<?xml version="1.0" standalone="no"?>
<!DOCTYPE svg PUBLIC "-//W3C//DTD SVG 1.1//EN" "http://www.w3.org/Graphics/SVG/1.1/DTD/svg11.dtd" >
<svg xmlns="http://www.w3.org/2000/svg">
<metadata></metadata>
<defs>
<font id="macmillan_headlineregular" horiz-adv-x="1361" >
<font-face units-per-em="2048" ascent="1536" descent="-512" />
<missing-glyph horiz-adv-x="436" />
<glyph horiz-adv-x="2048" />
<glyph horiz-adv-x="2048" />
<glyph unicode="&#xd;" horiz-adv-x="2048" />
<glyph horiz-adv-x="587" d="M-100.5 172.5q23.5 75.5 85 199t117.5 228.5t123 223q50 86 89 149t92.5 139.5t96 124t87.5 77t79 22.5q32 -6 45.5 -10.5t15.5 -13.5t-4 -17.5t-15.5 -31.5t-14.5 -47q-15 -71 -454 -840q-21 -37 -56 -99q-74 -130 -102 -160q-36 -40 -91 -38q-29 1 -92 14 q-25 5 -1.5 80.5z" />
<glyph unicode=" "  horiz-adv-x="436" />
<glyph unicode="&#x09;" horiz-adv-x="436" />
<glyph unicode="&#xa0;" horiz-adv-x="436" />
<glyph unicode="!" horiz-adv-x="754" d="M182.5 155.5q20.5 91.5 63.5 138.5q15 16 36 25t50 12t52 3t62 -1.5t59 -1.5q79 0 79 -212q0 -22 -3 -44.5t-11.5 -48t-27 -41.5t-44.5 -16q-239 0 -297 51q-39 44 -18.5 135.5zM212 1283q0 131 51 178.5t194 47.5q57 0 94 -22.5t54 -64t21 -97t-5.5 -123.5t-25.5 -142.5 t-38 -155t-44 -159.5q-31 -109 -45 -161q-4 -13 -28.5 -25t-49 -33t-28.5 -55q-2 21 -16.5 26.5t-24.5 -2.5q-2 7 -10.5 12t-18 1t-12.5 -20q-38 68 -38 140q0 60 -15 333t-15 322z" />
<glyph unicode="&#x22;" horiz-adv-x="1034" d="M106 1417q0 64 174 64q24 0 50.5 -3t60.5 -11t55.5 -26.5t21.5 -44.5q0 -75 -55.5 -264.5t-98.5 -189.5q-208 0 -208 475zM587 1345q0 39 14.5 66.5t32 40.5t46.5 20t43.5 8t37.5 1q24 0 50.5 -3t60.5 -11t55.5 -26.5t21.5 -44.5q0 -110 -10 -193.5t-25.5 -132 t-36.5 -78.5t-40.5 -40t-41.5 -10q-48 0 -85 24t-58.5 65.5t-35.5 84t-20 94t-7.5 79.5t-1.5 56z" />
<glyph unicode="#" horiz-adv-x="1167" d="M44.5 533.5q1.5 13.5 4 33t2.5 30.5q0 21 144 34q9 37 23.5 102.5t20.5 89.5q-37 8 -61.5 20.5t-35.5 25t-15 30.5t-3 31t3.5 34t2.5 33q0 17 47.5 28t122.5 13q28 93 53.5 163t55 135t59.5 100t58 35q68 0 95.5 -34.5t27.5 -112.5q0 -25 -62 -286q73 -4 137 -4h13 q29 93 54 163.5t54.5 136.5t59.5 101.5t58 35.5q68 0 95 -34.5t27 -112.5q0 -50 -64 -303q129 -13 129 -38q0 -22 -1 -35t-8.5 -40t-21.5 -45t-43.5 -37.5t-71.5 -30.5q-33 -7 -41 -7q-27 -113 -41 -163q146 -12 146 -38v-18.5v-21t-1 -19.5t-3 -21t-5.5 -18.5t-9 -18 t-13.5 -14t-19 -12.5q-39 -20 -150 -24q-1 -6 -5.5 -20t-4.5 -18q-60 -229 -83 -282q-28 -65 -73 -82q-29 -11 -93 -11q-48 0 -50.5 120t29.5 279q-92 0 -160 4q-7 -23 -7 -28q-60 -229 -83 -282q-28 -65 -73 -82q-29 -11 -93 -11q-89 0 -17 423q-36 6 -59.5 18t-34 24 t-14 30t-2 31.5zM488 642h51h96q9 43 31 140q-52 0 -140 6q-28 -102 -38 -146z" />
<glyph unicode="$" horiz-adv-x="925" d="M24 352q0 72 53.5 115.5t127.5 30.5q10 -4 73 -11.5t131.5 -0.5t68.5 40q0 20 -26 47t-64.5 53.5t-83.5 64.5t-83.5 78t-64.5 96.5t-26 117.5q0 101 64 188t178 129q15 78 51 139t92 73q78 18 118.5 -3t59.5 -82q2 -6 3.5 -12.5t2 -14.5t1 -13.5t0 -15.5t-1 -15 t-1.5 -17.5t-1 -17.5q198 -31 198 -130q0 -62 -1.5 -97.5t-10 -61.5t-16.5 -35t-32 -13.5t-44.5 -2t-66 5.5t-85.5 3q-46 0 -77.5 -9.5t-31.5 -24.5q0 -33 36 -69t87 -72.5t102 -79.5t87 -107.5t36 -139.5q0 -108 -78.5 -191.5t-211.5 -125.5q-3 -77 -11 -119.5t-33 -71 t-58 -40.5t-99 -25q-36 -8 -62 4t-39.5 33.5t-21 57t-9 62t-1.5 61.5q-66 7 -110 20.5t-54 23.5q-65 30 -65 175z" />
<glyph unicode="%" horiz-adv-x="1706" d="M116 1065q0 186 72.5 291t221.5 105q31 0 70 -15.5t81.5 -51.5t77.5 -85t58 -124.5t23 -163.5q0 -56 -26 -107t-65 -85t-84.5 -59.5t-83.5 -37.5t-62 -12q-72 0 -128.5 29.5t-89 79.5t-49 109.5t-16.5 126.5zM359.5 1054q4.5 -38 27.5 -64.5t60 -26.5q24 0 44.5 28 t20.5 84q0 147 -82 147q-26 0 -45 -26.5t-24.5 -65t-1 -76.5zM375.5 128q-3.5 44 19.5 112t58 145.5t84.5 166t92.5 160.5t87 141q67 105 121.5 183.5t121 160t123.5 120.5t98 28q78 -20 102.5 -60.5t6.5 -113.5q-19 -74 -495 -816q-117 -183 -152 -225q-53 -64 -108 -70 q-40 -5 -122 15q-34 9 -37.5 53zM942 379q0 72 26 134.5t64.5 103.5t83.5 71t82.5 43t61.5 13q73 0 129 -29.5t88.5 -79.5t49 -110.5t16.5 -128.5q0 -184 -72.5 -288.5t-221.5 -104.5q-33 0 -70.5 10.5t-80.5 38t-77 68t-56.5 108t-22.5 151.5zM1130 427q0 -34 10 -75 t34 -75.5t55 -34.5q34 0 59.5 39.5t25.5 128.5l-8 -31l-9 -38q5 77 -11.5 119t-46.5 42q-38 0 -73.5 -19t-35.5 -56z" />
<glyph unicode="&#x26;" horiz-adv-x="1355" d="M10 416q0 123 61 212t178 160q-126 141 -126 256q0 81 42 149t107.5 112t147.5 75t159 44t145 13q54 0 88 -9.5t49.5 -23t20.5 -40t2.5 -49.5t-6.5 -64t-4 -70q0 -44 -191 -44q-31 0 -64.5 -4.5t-71 -15.5t-62 -34.5t-24.5 -55.5q0 -71 85 -150q85 12 189 18.5t198 7.5 t173.5 -3t126 -12.5t44.5 -20.5q6 -3 19 -25.5t22 -22.5q-9 -4 -11.5 -7.5t0.5 -8t6.5 -7.5t10.5 -8q-12 2 -3 -22q11 -25 24 -32q-7 -5 -3 -21.5t10 -16.5q-14 -7 -18 -38.5t4 -46.5q-3 1 -6.5 -4.5t-3.5 -13t3 -13.5q-7 2 -13.5 -11.5t-6.5 -22.5q-6 0 -27.5 -13.5 t-34.5 -13.5q-45 -4 -181 -4q31 -67 33.5 -139t-27 -139.5t-87 -121t-155 -86t-221.5 -32.5q-150 0 -267.5 35t-189 94.5t-108 133t-36.5 156.5zM352 444q0 -43 14 -67t59 -38.5t128 -14.5q48 0 89 9.5t78 31t60.5 62.5t28.5 99q-457 20 -457 -82z" />
<glyph unicode="'" horiz-adv-x="542" d="M106 1417q0 64 174 64q24 0 50.5 -3t60.5 -11t55.5 -26.5t21.5 -44.5q0 -75 -55.5 -264.5t-98.5 -189.5q-208 0 -208 475z" />
<glyph unicode="(" horiz-adv-x="1047" d="M38 577q0 140 28 273.5t75 240t109 202.5t128.5 167t135 127.5t127.5 90.5t107 49q19 6 52 17.5t47 15.5t38.5 10t35.5 4.5t28 -6t26.5 -17t20 -31.5t18.5 -47q10 -28 13 -46t-0.5 -44t-19.5 -49t-50 -53t-87 -64q-47 -30 -85.5 -59.5t-69 -61t-54.5 -60.5t-42 -65.5 t-30.5 -67.5t-21 -74.5t-13.5 -79t-7.5 -89.5t-3 -96.5t-0.5 -108.5q0 -511 331 -761q67 -51 100 -104.5t33 -120.5q0 -116 -191 -116q-70 0 -144.5 20.5t-150.5 63.5t-146 104t-131.5 147t-107 187t-72 230.5t-26.5 271.5z" />
<glyph unicode=")" horiz-adv-x="1047" d="M54 1548q-21 42 7 104q12 25 35.5 39t51 18.5t71.5 1.5t81 -9.5t96 -18.5q82 -16 165 -60.5t164.5 -126.5t144 -190.5t101.5 -265t39 -337.5q0 -178 -24.5 -320.5t-55 -226.5t-90 -161t-94.5 -108.5t-103 -83.5q-3 -3 -5 -4q-63 -48 -113.5 -70t-103 -11.5t-93.5 64.5 q-29 35 -37.5 70t14.5 92.5t88 127.5q34 36 61.5 71.5t48 65.5t35.5 65t25.5 59t17.5 60.5t10.5 57.5t5 61t1.5 59.5t-0.5 65t-0.5 66.5q0 76 -13.5 164t-47.5 188.5t-84 186t-131.5 153.5t-180.5 93q-65 18 -86 60z" />
<glyph unicode="*" horiz-adv-x="778" d="M40 960q0 23 10.5 54.5t48.5 69.5t99 70q-192 139 -150 208q12 20 50.5 22.5t90.5 -16t94 -54.5q16 62 29 100t35.5 70t48.5 32q23 0 39 -9t24 -22.5t13.5 -38t7 -46.5t5 -58t7.5 -62q44 46 116 63.5t88 1.5q58 -56 -42 -140q-21 -18 -108 -79q84 -54 147.5 -138 t47.5 -111q-15 -23 -92.5 5t-156.5 87q0 -204 -106 -204q-38 0 -64.5 61t-38.5 150q-95 -62 -128 -75q-74 -30 -107 24q-8 12 -8 35z" />
<glyph unicode="+" horiz-adv-x="1163" d="M82 694.5q-1 15.5 3 42t4 38.5q0 47 379 41q-3 56 -4 110.5t1.5 124t16 112t37.5 42.5q21 0 35 -1t40.5 -8.5t44.5 -22t37.5 -44t30.5 -71.5q13 -62 13 -246q393 -8 393 -51q0 -21 -1 -35t-8.5 -40.5t-22 -44.5t-44 -37.5t-71.5 -30.5q-67 -17 -259 -17 q-19 -185 -28 -228q-10 -44 -24 -70t-34 -34t-35.5 -9t-42 3t-38.5 4q-44 0 -44 345q-207 19 -266 34q-44 10 -70 24t-34 34t-9 35.5z" />
<glyph unicode="," horiz-adv-x="525" d="M104 200q-1 26 0.5 84.5t1.5 73.5q0 65 174 65q24 0 50.5 -3t60.5 -11t55.5 -26.5t21.5 -44.5q0 -93 -19.5 -254.5t-52.5 -199.5q0 63 -20.5 101.5t-53 52t-66 18.5t-66.5 10.5t-47 18.5q-19 18 -28.5 53.5t-10.5 61.5z" />
<glyph unicode="-" horiz-adv-x="768" d="M41 782q0 38 1.5 58t9 39.5t19 27.5t37 15t57 8.5t84.5 1.5h239q105 0 159.5 -13t70.5 -34.5t16 -61.5q0 -31 -9 -58t-32.5 -57t-76 -48t-128.5 -18l-198 -11q-249 -12 -249 151z" />
<glyph unicode="." horiz-adv-x="525" d="M104 200q-1 26 0.5 84.5t1.5 73.5q0 28 16.5 44.5t45 21t53.5 5t56.5 -2.5t39.5 -3q23 0 45 -3t48 -11t42 -26.5t16 -44.5q0 -238 -52 -297q-44 -39 -135 -19t-138 63q-19 18 -28.5 53.5t-10.5 61.5z" />
<glyph unicode="/" horiz-adv-x="669" d="M14.5 95q-7.5 88 21 226t63.5 266t75 249q33 96 57.5 164.5t61.5 155.5t68.5 141t70 92t73.5 38q80 0 113.5 -34t33.5 -110q0 -19 -23 -102.5t-63.5 -213t-72.5 -230.5t-74 -229.5t-44 -135.5q-70 -212 -95 -262q-34 -69 -83 -88q-39 -15 -125 -15q-50 0 -57.5 88z" />
<glyph unicode="0" horiz-adv-x="1204" d="M44 710q0 202 77 371.5t221.5 272.5t326.5 103q225 0 361.5 -168.5t136.5 -472.5q0 -78 -5.5 -150.5t-22 -158t-42.5 -157.5t-71 -141t-104 -117t-145 -77t-190 -29q-95 0 -190 49t-174.5 138t-129 229.5t-49.5 307.5zM375 710q0 -174 75.5 -271.5t177.5 -97.5t180 122 q75 119 85 273q11 168 -68 255q-58 64 -156 64q-148 0 -221 -93.5t-73 -251.5z" />
<glyph unicode="1" horiz-adv-x="870" d="M41 1222q0 72 68 128t155 81.5t166 25.5q149 0 214.5 -76.5t65.5 -240.5q0 -639 -2 -848t-12 -231q-3 -8 -27 -21.5t-24 -22.5q-11 26 -34 -7q2 12 -22 3q-30 -11 -36 -27q-5 7 -23 3.5t-18 -9.5q-7 15 -42 19.5t-50 -6.5q1 5 -4.5 8.5t-14 3.5t-15.5 -5q2 10 -12 17 t-26 7q0 6 -13.5 29t-13.5 36q1 68 6 237.5t7 260t-1 228.5t-12 253q-123 -7 -182.5 6t-78.5 45.5t-19 102.5z" />
<glyph unicode="2" horiz-adv-x="1174" d="M44 1103q0 98 66 181.5t177.5 131.5t241.5 48q109 0 197.5 -21t146 -53.5t100 -79t64.5 -89.5t35.5 -93.5t16.5 -82.5t3 -65q0 -79 -25.5 -151t-60 -122.5t-94 -105.5t-101.5 -85.5t-111 -77t-96 -66.5l32 2q32 1 83 1.5t113 -1.5t124 -11t113 -25t83 -46t32 -70 q0 -17 -9.5 -35t-34.5 -40t-63.5 -42.5t-101.5 -40t-143 -33.5t-194 -22.5t-249 -8.5q-293 0 -293 147q0 51 63 140.5t153 185.5t179.5 190.5t152.5 175t63 117.5q0 50 -22.5 76t-59.5 26q-52 0 -103 -21t-85.5 -45.5t-82 -45.5t-95.5 -21q-215 0 -215 178z" />
<glyph unicode="3" horiz-adv-x="1191" d="M3 266q0 70 39 120.5t125 50.5q26 0 74.5 -9t99.5 -20.5t109 -22.5t108.5 -13t92.5 5t66 34.5t24 73.5q0 35 -42 65t-112.5 63t-98.5 53q-65 51 -65 112q0 36 22 62t53 42.5t62 32.5t53 41.5t22 60.5q0 14 -5 25.5t-15.5 20t-21.5 15.5t-29 12t-31 8t-34.5 6t-33 4 t-32.5 2.5t-27 2.5q-124 11 -172 27q-114 40 -115 150q0 55 25 93.5t71.5 58.5t98.5 28t119 8q81 0 158.5 -15t149.5 -48.5t126 -82t86.5 -122t32.5 -162.5q0 -71 -32 -132t-80 -104q64 -45 105 -81t76.5 -81t51.5 -97t16 -116q0 -87 -40 -166.5t-111 -140.5t-176.5 -97 t-228.5 -36q-296 0 -430 68t-134 201z" />
<glyph unicode="4" horiz-adv-x="1262" d="M38 403q0 100 94.5 327.5t207 428.5t169.5 251q23 19 49.5 28.5t45 12t49.5 -2t40.5 -7t40.5 -11.5q2 -1 29 -7.5t38.5 -10t40 -12t44.5 -15t40.5 -16.5t38.5 -20t29 -22t21 -26t6 -28l17 -672h58q41 0 67.5 -21.5t35 -55t7.5 -68.5t-11 -67q-14 -44 -151 -72 q-11 -224 -99 -322q-62 -70 -133 -43q-75 30 -114 155q-22 72 -26 166q-99 -7 -286 -7q-70 0 -128.5 7t-110 21.5t-80.5 42.5t-29 66zM498 601h174l31 423z" />
<glyph unicode="5" horiz-adv-x="1047" d="M87 115.5q-1 18.5 5 31.5q1 2 14 20.5t20.5 30.5t18 34t14.5 39t1.5 36t-13.5 34q16 -14 27.5 -12t18 13t2.5 20q19 3 27.5 16.5t-0.5 44.5q3 2 40.5 -28.5t98.5 -64t113 -33.5q96 0 96 85q0 77 -86.5 156t-258.5 117q-25 6 -44 18.5t-31.5 27.5t-20.5 41t-11.5 47.5 t-5 58t-1.5 61.5t1 70t1 72q0 84 24 149t57.5 107t96 71.5t110.5 44t132 22t130.5 8.5t133.5 1h5h5h5q31 0 53 -5t38 -11.5t26 -24t15.5 -31t8 -45t3 -53.5t0.5 -69q0 -61 -21.5 -95.5t-53.5 -34.5q-23 0 -62 3t-74.5 6t-76.5 5t-74 -1.5t-61 -11.5t-43.5 -26.5t-15.5 -45.5 v-133q222 -25 367 -167t145 -332q0 -206 -120.5 -335t-329.5 -129q-67 0 -129 9.5t-108 25t-86.5 36t-65 42.5t-42 44t-18.5 40.5z" />
<glyph unicode="6" horiz-adv-x="1276" d="M92 717q0 717 635 717q95 0 161.5 -13t101.5 -37t50 -52.5t15 -65.5q0 -44 -9 -72t-34.5 -52t-76 -35t-129.5 -11q-105 0 -181.5 -23t-120.5 -59t-69.5 -91.5t-33.5 -108t-8 -121.5q57 81 145.5 130t182.5 60.5t190 -11t171.5 -75t123 -142t47.5 -201.5q0 -136 -68 -241 t-181 -159t-250 -54q-329 0 -495.5 179.5t-166.5 537.5zM519 505q0 -26 18.5 -60t38 -55t25.5 -21q9 0 -8 20q-3 4 -2 4t14.5 -8.5t28 -16t18.5 -6.5q4 0 -11 15q-9 10 -6 12q66 -43 130.5 -47.5t103.5 24.5t39 78q0 56 -97 106.5t-194.5 43.5t-97.5 -89z" />
<glyph unicode="7" horiz-adv-x="942" d="M-17 1321q24 17 20 34q-3 16 -20 24q4 1 10.5 1.5t10.5 1.5t7 3.5t3 7.5q0 8 -11 11.5t-13 5.5q42 4 48 41q4 30 51 30q50 0 121 -2t217.5 -10t260 -31.5t148.5 -58.5q38 -38 48 -99.5t10 -183.5q0 -15 -115.5 -482t-143.5 -556q-10 -33 -38 -47t-82 -14q-34 0 -74 6 t-86 20t-76 43.5t-30 70.5q0 27 6.5 63t16 73.5t11.5 47.5l185 744q0 42 -22 55t-105 13h-191q-45 0 -74.5 10t-40.5 25t-17 32.5t-6.5 32.5t-5.5 25.5t-16 11.5q11 15 9.5 29.5t-16.5 21.5z" />
<glyph unicode="8" horiz-adv-x="1235" d="M92 1007q0 208 147.5 310.5t405.5 102.5q75 0 144 -13.5t132.5 -44.5t110 -76.5t74 -113.5t27.5 -151q0 -143 -147 -318q205 -137 205 -331q0 -208 -147.5 -310.5t-405.5 -102.5q-75 0 -144 13.5t-132.5 44.5t-110 76.5t-74 113.5t-27.5 151q0 143 147 318 q-205 137 -205 331zM427 980q0 -45 49 -78.5t112.5 -47.5t124.5 -14q30 21 54.5 66t24.5 87q0 43 -58 66t-167 16q4 3 90 19l5 2q-124 0 -179.5 -34t-55.5 -82zM492 423q0 -52 37.5 -85t91 -39.5t107.5 1.5t91.5 35.5t37.5 63.5q0 44 -41 90t-98.5 77t-109.5 38 q-116 -103 -116 -181z" />
<glyph unicode="9" horiz-adv-x="1252" d="M65 952q7 93 44 178t100.5 153.5t162.5 109.5t219 41q127 0 231.5 -42t173.5 -112t115 -162.5t63 -193.5t10 -204q-12 -159 -57 -287.5t-113 -214.5t-158.5 -143.5t-189.5 -83t-209 -25.5q-95 0 -160.5 12.5t-98.5 36.5t-45.5 52.5t-9.5 65.5q3 44 14 72.5t38 52.5t78 35 t130 11q105 0 187.5 26t134.5 68.5t87.5 101.5t51 118t20.5 126q5 61 -6.5 115.5t-30.5 89.5t-41.5 61t-39 37t-22.5 11q-14 0 9 -28q6 -6 5 -6t-23.5 12t-56.5 24t-64 12q-101 0 -148 -41t-50 -92q-5 -74 43 -115.5t152 -41.5q36 0 64.5 -2t65 -7.5t56.5 -20t19 -35.5 q-7 -98 -120 -151q-116 -55 -269 -32q-172 25 -272 134q-103 113 -90 284z" />
<glyph unicode=":" horiz-adv-x="665" d="M179 1016q-1 26 0.5 84.5t1.5 73.5q0 28 16.5 44.5t45.5 21t54 5t57 -2.5t39 -3q23 0 44.5 -3t47.5 -11t42 -26.5t16 -44.5q0 -239 -51 -297q-43 -39 -135.5 -19t-138.5 63q-19 18 -28.5 53.5t-10.5 61.5zM181 358q0 65 174 65q22 0 48 -3.5t57 -12t54 -26.5t29 -43 q15 -69 16 -123t-8 -89t-32 -59.5t-46 -37t-60.5 -19t-64.5 -8t-69 -2.5h-9q-26 0 -45 40.5t-28 103t-12.5 115.5t-3.5 99z" />
<glyph unicode=";" horiz-adv-x="699" d="M181.5 232.5q-0.5 24.5 1 65.5t1.5 60q0 65 174 65q24 0 50.5 -3t60.5 -11t55.5 -26.5t21.5 -44.5q0 -93 -19.5 -254.5t-52.5 -199.5q0 63 -20.5 101.5t-53 52t-65.5 18.5t-66 10.5t-47 18.5q-16 15 -25 37t-12 54t-3.5 56.5zM181.5 1048.5q-0.5 24.5 1 65.5t1.5 60 q0 28 16.5 44.5t45.5 21t54 5t57 -2.5t39 -3q23 0 44.5 -3t47.5 -11t42 -26.5t16 -44.5q0 -239 -51 -297q-44 -39 -135 -19t-138 63q-16 15 -25 37t-12 54t-3.5 56.5z" />
<glyph unicode="&#x3c;" horiz-adv-x="1010" d="M44.5 805q6.5 40 23.5 55q35 32 102.5 89.5t185 152.5t223.5 160.5t155 65.5q36 0 100 -60.5t64 -120.5q0 -32 -17 -44q-56 -47 -227 -174.5t-238 -174.5q61 -41 153.5 -110.5t140.5 -114.5q78 -62 114 -119t36 -120q0 -16 -8.5 -41t-32.5 -50t-58 -25q-19 -4 -92 42 t-169 118.5t-184 141.5t-162 129t-79 64q-21 15 -29 55.5t-1.5 80.5z" />
<glyph unicode="=" horiz-adv-x="1163" d="M82 551q-1 15 3 40.5t4 36.5q0 44 491 44q69 0 144 -2t171 -7t157 -16.5t61 -28.5v-18.5v-21t-1 -19.5t-3 -21t-5.5 -18.5t-9 -18.5t-13.5 -14.5t-19 -12.5q-58 -30 -405 -34.5t-462 21.5q-44 8 -70 21.5t-34 33.5t-9 35zM82 950.5q-1 15.5 3 42t4 38.5q0 17 47 27 t127.5 12.5t152.5 2t159 -2.5t111 -2q151 0 289 -11t138 -40q0 -21 -1 -35t-8.5 -40.5t-22 -44.5t-44 -37.5t-71.5 -30.5q-120 -23 -383 -11.5t-388 39.5q-44 10 -70 24t-34 34t-9 35.5z" />
<glyph unicode="&#x3e;" horiz-adv-x="1095" d="M116 341q0 33 17 45q56 47 226.5 173.5t237.5 174.5q-60 40 -152.5 109.5t-140.5 115.5q-78 62 -114 119t-36 120q0 16 8.5 41t32.5 50t58 25q19 4 92 -42t169 -118.5t184 -141.5t162 -129t79 -64q21 -15 28.5 -55.5t1 -80.5t-23.5 -55q-36 -33 -102.5 -90t-184.5 -152.5 t-223.5 -160.5t-154.5 -65q-36 0 -100 60.5t-64 120.5z" />
<glyph unicode="?" horiz-adv-x="1020" d="M65 1215q0 131 89 212.5t232 81.5q123 0 228.5 -38t175.5 -101.5t109.5 -146t39.5 -172.5q0 -85 -21.5 -150.5t-55.5 -103.5t-75 -65t-82 -42.5t-75 -29t-55.5 -32t-21.5 -44.5q-11 10 -32.5 0.5t-45 -43t-28.5 -70.5q-2 21 -16.5 26.5t-24.5 -2.5q-2 7 -10.5 12t-18 1 t-12.5 -20q-37 66 -37 140q0 51 29.5 101.5t71.5 90t84 75t71.5 70t29.5 62.5q0 31 -36 46.5t-96 16.5t-119 -2.5t-126.5 -9.5t-96.5 -6q-31 0 -53 40t-22 103zM268 155.5q20 92.5 63 138.5q15 16 36 25t50.5 12t52.5 3t62 -1.5t59 -1.5q78 0 78 -212q0 -23 -3 -44.5 t-11 -47.5t-26.5 -42t-44.5 -16q-239 0 -297 51q-39 43 -19 135.5z" />
<glyph unicode="@" horiz-adv-x="1706" d="M44 672q0 133 23 246t75.5 210t131.5 164.5t196 106t264 38.5q64 0 130.5 -8.5t145 -31t148.5 -56.5t136.5 -90t115 -126.5t77.5 -171t29 -219.5q0 -169 -32 -266.5t-81 -129.5q-20 -13 -55.5 -24t-86.5 -13.5t-101 8.5t-100.5 50.5t-83.5 104.5q-29 -59 -101.5 -85.5 t-140.5 -26.5q-155 0 -233 93.5t-78 261.5q0 138 79.5 227.5t231.5 89.5q94 0 168 -36t74 -94q0 -36 -27 -65.5t-68 -40.5q-22 -4 -57.5 -8.5t-48.5 -7.5t-30 -11t-22.5 -22.5t-5.5 -38.5q0 -76 60 -126q45 -38 79 -26q25 8 25 43v51q0 31 4.5 54.5t10 39t17.5 26t21 15.5 t27 7.5t28 3t32 0.5q56 0 95.5 -17t57 -44.5t24.5 -53t7 -52.5v-71q0 -17 18 -19q28 -3 46 34q14 30 14 77q0 275 -142.5 398.5t-461.5 123.5q-155 0 -265 -141t-110 -344q0 -110 20.5 -197t49.5 -141.5t76.5 -93.5t84.5 -57.5t92 -28t80.5 -10.5t66.5 -1h14 q27 0 43.5 -10.5t22.5 -25.5t6.5 -36.5t-2.5 -38t-7 -35t-4 -24.5q-1 -13 -4.5 -21t-16.5 -20t-36.5 -15.5t-65.5 -7t-103 4.5q-49 5 -98 16.5t-107.5 38t-109.5 63.5t-100 96t-84 133t-56.5 178t-21.5 226z" />
<glyph unicode="A" horiz-adv-x="1348" d="M68 116q0 177 76 561.5t153 646.5q14 49 39 77.5t70 35.5q167 27 337 27q104 0 209 -10q36 -4 60 -14.5t36.5 -30.5t17 -33t9.5 -38q63 -266 129 -658.5t66 -563.5q0 -93 -51 -137t-113 -44q-29 0 -55.5 14.5t-47 35.5t-41 58.5t-34.5 68t-31.5 81t-26.5 81.5t-24.5 84 t-22.5 75h-308q-7 -22 -22.5 -75t-24.5 -84t-26.5 -81.5t-31.5 -81t-34.5 -68t-41 -58.5t-47 -35.5t-55.5 -14.5q-62 0 -113 44t-51 137zM580 696h178q1 0 1 4q0 22 -35 174q-41 178 -55 215q-14 -37 -55 -215q-35 -152 -35 -174q0 -4 1 -4z" />
<glyph unicode="B" horiz-adv-x="1324" d="M108 897v49q0 200 15 288q31 190 154 264q96 58 262 58q60 0 128.5 -10.5t142.5 -31.5t141 -56.5t120.5 -80.5t85 -109t31.5 -138q0 -125 -137 -277q127 -76 193.5 -173t66.5 -229q0 -87 -38 -168.5t-106 -145.5t-172 -102t-227 -38q-145 0 -284.5 23.5t-227.5 64.5 q-73 30 -105 87t-32 122q0 26 -5 229.5t-5 278.5q0 32 -1 95zM416 393q135 -41 308 -41q89 0 138 17t64.5 44t15.5 72q0 43 -41 77t-114 70t-98 54q-37 30 -50.5 53t-13.5 63q0 29 20.5 59t49.5 56.5t58 55t49.5 65t20.5 75.5q0 35 -26 60t-66.5 37t-76.5 17t-70 5 q-89 0 -103 -54q-35 -137 -37 -389v-50q0 -215 20 -326q-26 3 -47 -12q-4 -3 -4 -5t3 -3z" />
<glyph unicode="C" horiz-adv-x="1112" d="M51 710q0 46 9 102.5t34 130t62 141t99.5 133t140.5 107.5q41 22 86.5 39.5t84.5 29t83 19t75.5 11.5t70 6t58 2t48.5 -0.5t33 -0.5q144 0 144 -106q0 -29 -5 -55.5t-22.5 -59t-45.5 -55.5t-79 -39t-118 -16q-65 0 -107 -9.5t-80 -39t-58.5 -85t-32.5 -146t-12 -222.5 q0 -34 2.5 -62t7.5 -49.5t12 -38.5t16.5 -29.5t21.5 -21t25.5 -13.5t29 -8.5t33 -4.5t37 -1h40.5h24q165 0 246.5 -42.5t81.5 -108.5q0 -113 -72 -169t-195 -56q-131 0 -247 28t-213.5 86t-168 142t-110 202t-39.5 259z" />
<glyph unicode="D" horiz-adv-x="1314" d="M48 341v850q0 119 62 186t170 67q128 0 327.5 -37.5t259.5 -61.5q117 -49 191 -100q237 -167 273 -446q6 -40 7 -77v-10q0 -32 -6 -60q-6 -34 -11.5 -61.5t-20.5 -56t-23 -46.5t-29 -42.5t-27.5 -34t-29.5 -30t-25 -22.5t-22 -18q-5 -4 -7 -6q-57 -49 -160.5 -92 t-190 -64.5t-168 -38.5t-82.5 -17q-10 -3 2 2q100 42 108 48q3 3 3 4q0 4 -40 -3t-94 -24t-85 -37q13 16 41.5 33t50 27.5t21.5 14.5q-1 7 -41 -14t-100 -49.5t-98 -32.5q-25 -4 -47 -4q-41 0 -75 13q-52 20 -80 61t-41 86t-13 93zM505 406q45 15 85 33t83.5 47t74 62.5 t47.5 79.5q13 34 13 72q0 13 -2 27q-8 49 -41.5 87t-76.5 57.5t-84.5 32t-69.5 15.5l-29 3v-516z" />
<glyph unicode="E" horiz-adv-x="959" d="M65 420q0 224 8 383t28.5 284t52 201t83 126t116 69t156.5 19q7 0 59 1h44h30q22 0 71.5 -3.5t79 -10t65.5 -19t60 -30.5q27 -23 27 -71q0 -37 -15 -65.5t-36.5 -47t-57.5 -31.5t-65 -19.5t-73 -10t-68 -4t-63 -0.5h-55q-34 0 -34 -34v-109q0 -18 11.5 -28t29.5 -10h99 q249 0 249 -150t-249 -150h-99q-18 0 -29.5 -10t-11.5 -28v-279q0 -35 34 -35h55q40 0 63 -0.5t68.5 -4t74.5 -9.5t65.5 -19t58 -31.5t37 -47t15.5 -65.5q0 -49 -27 -72q-34 -25 -158 -40t-255 -18t-247 -5h-66q-55 0 -67 2h-3q-35 0 -48 81t-13 291z" />
<glyph unicode="F" horiz-adv-x="894" d="M68 304v1044q0 37 24.5 65t73 45t99.5 28t127 15.5t130.5 6t132.5 1.5q40 0 75 -8t68 -27t52.5 -56.5t19.5 -89.5q0 -82 -48 -136.5t-146 -54.5q-2 0 -18 0.5t-30 0t-37.5 -0.5t-42.5 -2t-42 -4.5t-40 -7.5t-32 -11t-23 -15.5t-8 -21.5v-198q7 0 54.5 5.5t92 8.5t94.5 3 q2 0 5 1q47 1 77 -9q32 -10 35 -29q0 -23 2 -70v-18q-1 -39 -7 -81q-8 -52 -26 -60q-23 -11 -80 -25t-143 -32t-114 -25v-331q0 -160 -154 -160q-36 0 -63.5 8.5t-45.5 20.5t-30 34.5t-18.5 39.5t-9.5 48t-3.5 48t-0.5 50z" />
<glyph unicode="G" horiz-adv-x="1221" d="M14 679q0 158 43.5 287.5t116 215t170 143.5t202 83.5t215.5 25.5q95 0 161.5 -13t101.5 -37t50 -52.5t15 -65.5q0 -44 -9 -72t-34.5 -52t-76 -35t-129.5 -11q-105 0 -189 -26t-138.5 -69t-90.5 -101t-51.5 -119t-15.5 -126q0 -61 15.5 -115.5t37.5 -89.5t46 -61 t41.5 -37t23.5 -11q14 0 -13 29q-5 5 -4 5q2 0 43 -24.5t49 -22.5q6 0 -27.5 31t-67.5 62.5t-28 32.5q65 -65 126 -98t103 -34q5 -1 9 -1q37 0 67 13q32 13 48 34.5t16 41.5q0 26 -6.5 43.5t-15.5 27.5t-30.5 17t-39 9.5t-54 8t-63.5 10.5q-53 10 -87.5 48.5t-34.5 84.5 q0 75 102.5 121t252.5 46q147 0 251 -43t104 -104q0 -57 -45.5 -81.5t-159.5 -47.5q77 -30 115 -100q29 -53 29 -113q0 -18 -2 -37q-12 -81 -56 -157t-138 -126.5t-214 -50.5q-141 0 -262 41.5t-206.5 112t-146.5 162.5t-90 193t-29 204z" />
<glyph unicode="H" horiz-adv-x="1416" d="M130 212v488q0 62 1 108t4.5 111.5t9.5 114.5t18 107.5t28 101t41 84.5t56 68t73 42.5t93 16.5h10h11t10 -0.5t11.5 -1.5t10.5 -3t12.5 -5t12.5 -7q22 -13 26 -78q4 -53 3 -192v-66q-1 -125 -1 -203q209 24 269 24q7 91 10 176.5t3 130.5t-1 95t-1 55q0 33 19 54t56 21 h225q20 0 36 -10.5t26.5 -28t19 -41.5t12.5 -51t7.5 -55t3.5 -55t1 -50.5t0 -41.5v-18q0 -185 3 -212q1 -11 9 -32t8 -40q0 -15 -4 -29.5t-12.5 -34.5t-10.5 -25v-621q0 -26 -9.5 -46t-28.5 -32.5t-40 -20.5t-52 -11.5t-56 -4.5t-60 -1q-54 0 -88 8t-49 25.5t-19 35t-4 47.5 v468q-127 -10 -273 -10q-5 -25 -9.5 -178.5t-4.5 -200.5q0 -35 -3.5 -62t-11.5 -46.5t-15.5 -33.5t-22.5 -22.5t-25.5 -13.5t-31 -7t-32 -2.5t-35.5 -0.5q-59 0 -104 15t-70 37.5t-40.5 53t-20 55.5t-4.5 51z" />
<glyph unicode="I" horiz-adv-x="587" d="M89 116v1239q1 110 81 154q45 25 103 25q45 0 96 -15q44 -12 76 -164.5t44 -362.5q13 -209 15 -416v-72q0 -161 -10 -277q-11 -138 -29 -138h-1q-3 -8 -27 -22t-24 -23q-11 26 -34 -6q2 12 -22 3q-30 -11 -36 -27q-5 7 -23 3t-18 -10q-7 15 -42 19.5t-50 -6.5 q1 5 -4.5 8.5t-14 3.5t-15.5 -5q2 10 -12 17t-26 7q0 6 -13.5 29t-13.5 36z" />
<glyph unicode="J" horiz-adv-x="1273" d="M51 1184q0 122 75 185t212 68h621q79 0 138.5 -7.5t95.5 -23.5t59 -33t32.5 -42.5t12.5 -44.5t3 -47q0 -53 -22 -89t-57 -52.5t-77.5 -25t-85.5 -13t-78 -11.5t-57 -24.5t-22 -47.5v-423q0 -132 -38.5 -239.5t-100 -176t-142.5 -115.5t-161.5 -67t-161.5 -20 q-108 0 -172 93.5t-64 227.5q0 35 9.5 60t23.5 41t45 28t57.5 18.5t76.5 16.5q38 8 74 20.5t80 38t75.5 57.5t54 84t23.5 114l7 242h-276q-127 0 -193.5 59t-66.5 149z" />
<glyph unicode="K" horiz-adv-x="1419" d="M62 1028.5q0 52.5 2 113.5t10 95.5t22 39.5q27 9 74 15q33 4 75 4h37q64 -2 114 -19q18 -6 29.5 -32.5t15.5 -78.5t5 -88v-34v-72q-2 -70 -2 -88q11 9 117 100.5t182.5 153t183 142t189 124t130.5 43.5q26 0 73 -31.5t87.5 -84.5t40.5 -102q0 -37 -24 -51 q-73 -60 -287 -220.5t-272 -199.5q57 -42 402 -338q93 -80 137 -148t44 -142q0 -19 -10.5 -49t-40.5 -60.5t-72 -30.5h-5q-63 0 -375 245q-325 256 -493 417q-3 -17 -3 -59q0 -21 1 -49q2 -84 7 -211.5t5 -144.5v-27v-42t-1 -34t-3 -30t-6 -23t-9.5 -19.5l-14 -14t-20 -11 t-27 -6t-34 -4.5t-42.5 -1q-72 0 -110.5 23.5t-63.5 72.5q-32 67 -48.5 304t-16.5 412q0 32 -1.5 110t-1.5 130.5z" />
<glyph unicode="L" horiz-adv-x="1259" d="M58 297q0 396 3 488q1 39 1 117.5t0.5 141.5t2.5 130t6 111t11 56q15 31 101 45q35 5 67 5q48 0 91 -12q18 -5 32.5 -20.5t20 -26.5t16.5 -35q30 -65 49 -404.5t19 -465.5h505q157 0 208 -14q0 -12 7 -26t17 -12q-5 -7 -5 -15.5t3.5 -14t8.5 -4.5q-11 -15 -6 -50t20 -42 q-6 0 -10 -18t3 -23q-17 -6 -27 -37q-8 -23 3 -21q-33 -23 -7 -34q-7 0 -15 -9.5t-16 -23t-13 -18.5q-29 -29 -396 -50.5t-536 -21.5q-48 0 -80.5 21.5t-50.5 63.5t-25.5 94.5t-7.5 124.5z" />
<glyph unicode="M" horiz-adv-x="1867" d="M55 355q0 110 6.5 210.5t22.5 204t40.5 190t63.5 163.5t88.5 130.5t118.5 84.5t151 31q136 0 253.5 -71.5t186.5 -171.5q50 98 130.5 158.5t190.5 60.5q234 0 375 -211.5t141 -594.5v-140v-77.5t-1 -68.5t-3.5 -63t-6.5 -52.5t-10.5 -47t-15.5 -36.5t-21 -30.5t-28 -20 t-36.5 -14t-45.5 -3.5h-26h-58t-55.5 3t-55 9t-44.5 18t-38.5 29t-23 43.5t-9.5 61.5v365q-13 260 -126 260q-17 0 -26.5 -24.5t-12.5 -65t-8.5 -92t-13 -105.5t-29 -105.5t-53 -92t-88 -65t-131.5 -24.5q-38 0 -74 11.5t-67.5 35t-51 65.5t-19.5 97q0 15 2 51t3 70t1 77 t-5 78t-14 65.5t-27.5 47.5t-44.5 17q-47 0 -80 -85.5t-53 -207.5t-40.5 -244t-54.5 -207.5t-83 -85.5t-88.5 38.5t-61.5 97.5t-33 119.5t-11 113.5z" />
<glyph unicode="N" horiz-adv-x="1512" d="M55 294q0 56 0.5 97t5 125t11.5 149.5t23 154t37.5 155.5t55.5 137t76.5 115.5t102.5 74.5t131 29q132 0 250.5 -146t265.5 -496v618q0 78 42.5 111t148.5 33q110 0 164 -12t54 -50v-921q0 -176 -63.5 -276t-198.5 -100q-72 0 -148.5 32.5t-165.5 118t-158 214.5 l-201 372q-1 -9 -1 -83q0 -76 1 -216q2 -280 4 -301q1 -13 7 -18.5t12.5 -4t10.5 8.5q0 -106 -69.5 -186t-182.5 -80q-52 0 -91.5 19.5t-62.5 51t-37 78.5t-19 93t-5 103z" />
<glyph unicode="O" horiz-adv-x="1280" d="M27 782q0 203 41 348t123.5 234t200.5 130.5t280 41.5q125 0 226 -48t166 -127.5t108.5 -187t62 -220t18.5 -233.5q0 -138 -40 -255.5t-105.5 -198t-152 -137t-178 -83t-183.5 -26.5q-94 0 -173.5 24.5t-136.5 67t-102 102.5t-74 126t-47.5 143t-26 150t-7.5 149z M345 792q0 -28 2 -56t8.5 -70t18 -77.5t33 -73.5t50 -65t72 -44t96.5 -17q62 0 112 22.5t81 59t52 84t29.5 94.5t8.5 95q0 61 -4 112.5t-13.5 108t-28.5 99t-47 78t-71.5 54.5t-98.5 19q-155 -5 -227.5 -108.5t-72.5 -314.5z" />
<glyph unicode="P" horiz-adv-x="1020" d="M68 963q-9 37 -9 75q1 44 13 92q22 86 78.5 158.5t153.5 119t215 46.5q139 0 252.5 -73t173 -182.5t59.5 -225.5q0 -103 -37.5 -197t-99 -159.5t-140.5 -104t-160 -38.5h-21q-4 -208 -34 -372q-2 -10 -16.5 -33.5t-14.5 -30.5q-13 0 -29.5 -7.5t-14.5 -16.5q-7 5 -16.5 5 t-16 -3.5t-5.5 -8.5q-15 11 -56.5 6t-48.5 -20q0 6 -20 10t-28 -3q-6 17 -41 28q-26 7 -24 -4q-25 35 -41 7q0 9 -29 22t-29 22q2 165 2 299v84q0 79 -1 138q-1 88 -2.5 152.5t-3.5 102.5t-3.5 58.5t-3.5 35.5t-2 18zM317 904q2 -12 9.5 -33t18.5 -38q18 -29 47 -49t49 -28 q14 -5 18 -6q2 0 2 1q0 2 -16 10t-38.5 23.5t-34.5 34.5q56 -61 147 -61q74 0 122 50.5t48 119.5q0 79 -57 128.5t-120 49.5q-49 0 -83.5 -23t-48 -51t-27.5 -57t-25 -36q0 -44 13 -79q-6 7 -11.5 22t-8.5 25.5t-4 10.5q-1 -1 -1 -4.5t1 -9.5z" />
<glyph unicode="Q" horiz-adv-x="1430" d="M116 642q0 232 83.5 418.5t232 291.5t333.5 105q223 0 360.5 -163t137.5 -441q0 -165 -55 -348q8 -12 49 -75.5t60 -95.5t48 -86t42 -97t13 -79q0 -18 -12 -51.5t-12 -44.5q0 -1 -0.5 -8.5t-0.5 -13t2.5 -17t7.5 -23.5t16 -31t26 -40q-19 11 -36 39.5t-26.5 47 t-15.5 12.5q-97 -79 -147 -79q-19 0 -36 10t-37 34.5t-37.5 49t-48.5 70t-59 82.5q-56 -56 -128 -89.5t-193 -33.5q-75 0 -154.5 29.5t-153 88t-131.5 136t-93 182.5t-35 220zM447 710q0 -89 25.5 -161t69 -116.5t98 -68t114.5 -23.5q29 0 38 4q-27 47 -76.5 108t-66.5 93.5 t3 57.5q6 6 36.5 38.5t51 51.5t50 43.5t53.5 33t41 0.5q42 -21 65 -37q16 74 16 131q0 71 -26 114q-47 76 -174 76q-150 0 -234 -95t-84 -250z" />
<glyph unicode="R" horiz-adv-x="1471" d="M116 218v396q0 111 5 196.5t21.5 178.5t44 161t75 131t113 101t159.5 58q72 15 157 15q26 0 53 -1q2 0 -2 3q-15 9 -15.5 10t3.5 1q7 0 36.5 -5t53 -9t20.5 -3q-66 33 -155 33q-36 0 -75 -5l-23 -4q76 13 147 13q32 0 62 -2q99 -8 183 -48t145 -98.5t95 -137.5t34 -168 q0 -146 -92 -257.5t-209 -127.5q132 -106 216.5 -238.5t84.5 -277.5q0 -60 -58 -98t-144 -38q-89 0 -116.5 26t-47.5 131q-17 78 -84.5 163.5t-102.5 85.5q-54 11 -87.5 25t-42 24.5t-13 19t-7.5 9.5q-10 7 -11 -10v-17v-7q-11 30 -28 29q-13 0 -13 -19q-14 39 -26 38 q-3 0 -4 -3q-3 -9 -14 14q-8 15 -10 26q-2 8 -7 -6q-10 -29 -10 -62v-331q0 -46 -14 -78t-37.5 -47.5t-46.5 -21.5t-49 -6q-34 0 -60.5 8.5t-43.5 19.5t-29 32.5t-18 38.5t-9 46t-3.5 45.5t-0.5 47.5zM436 883q1 -9 4 -9q10 7 35.5 13.5t43.5 6.5q38 0 64.5 -14t40.5 -30 t42 -30t68 -14q46 0 88 46.5t42 110.5q0 71 -51 110.5t-127 39.5q-141 0 -214 -124q-36 -61 -36 -106z" />
<glyph unicode="S" horiz-adv-x="1020" d="M65 1051q0 90 39.5 172.5t109.5 146t175.5 101.5t228.5 38q143 0 232 -81.5t89 -212.5q0 -63 -22 -103t-53 -40t-86.5 7.5t-101.5 14t-91 7.5h-6q-41 -1 -65 -13q-26 -14 -26 -44.5t26.5 -66t69 -71t93.5 -75.5t102.5 -88t94 -100t69 -120t26.5 -141q0 -206 -120.5 -335 t-329.5 -129q-67 0 -129 9.5t-108 25t-86.5 36t-65 42.5t-42 44t-18.5 40.5t5 31.5q1 2 14 20.5t20.5 30.5t18 34t14.5 39t1.5 36t-13.5 34q16 -14 27.5 -12t17.5 13t2 20q19 3 29 18t-1 43q3 2 40.5 -28.5t98.5 -64t113 -33.5q96 0 96 85q0 33 -27 67t-70 66t-95 68 t-104 81.5t-95 98.5t-70 128t-27 160z" />
<glyph unicode="T" horiz-adv-x="1082" d="M-96 1229q0 75 84.5 117.5t253.5 42.5h724q27 0 42 -0.5t40.5 -6t39 -15.5t24.5 -30.5t11 -49.5q0 -26 -1 -43.5t-6.5 -41.5t-16 -39t-29.5 -32t-46 -26.5t-67.5 -16t-92.5 -6.5h-96q-60 0 -73 -156q-12 -144 -12 -580v-69v-205q0 -95 -99 -114q-27 -5 -55 -5l-143 35 q-99 50 -99 121q0 839 37 942q-48 0 -99 4t-110.5 16.5t-104.5 31t-75.5 51.5t-30.5 75z" />
<glyph unicode="U" horiz-adv-x="1433" d="M39 1138q2 120 9 207q5 55 23 82.5t59 40.5q25 6 73 8q8 0 17 1q40 0 90 -6q60 -7 103 -42t44 -94q0 -6 -3 -146q-1 -37 -1 -72q1 -101 7 -197q8 -129 35 -231q34 -126 109.5 -199.5t183.5 -73.5q49 0 87 48t59 127.5t35 172.5t18.5 191.5t5.5 176.5q1 52 1 95v41 q0 58 -1 60q2 32 13.5 54.5t31 35.5t36 19.5t42.5 13.5q25 7 53 7q31 0 65 -8q66 -16 87 -68q18 -43 26.5 -139t10.5 -175t1 -235q0 -108 -5.5 -191.5t-22 -171t-44.5 -151.5t-74.5 -122t-110.5 -94.5t-154.5 -57.5t-203.5 -21q-77 0 -143 8.5t-136 31.5t-128 60t-112 97.5 t-95 140.5q-38 84 -61 223.5t-27 285.5q-3 101 -4 190q0 40 1 77z" />
<glyph unicode="V" horiz-adv-x="1262" d="M-17 1280q0 81 41.5 119t139.5 38q45 0 81.5 -6t72.5 -20.5t62 -44t40 -72.5q17 -84 52.5 -281t67 -343.5t71.5 -287.5l164 714q12 51 19 77.5t19 67t24 62.5t29 47t38 40t48 23q43 10 90 10q24 -1 48 -3q74 -8 133.5 -31.5t59.5 -47.5q0 -26 -68 -230t-148 -430.5 t-151.5 -426.5t-72.5 -203q-5 -17 -20.5 -30t-40.5 -20.5t-50 -12t-59 -5.5t-56.5 -1t-54 0.5t-40.5 0.5q-44 0 -71.5 2.5t-69.5 23t-67 59.5q-42 64 -120.5 300.5t-144.5 509t-66 402.5z" />
<glyph unicode="W" horiz-adv-x="1880" d="M24 1277q-4 40 -4 70q0 53 12 79q19 42 84 42q14 0 47 0.5t46.5 0.5t41 -2t40.5 -6t33.5 -11.5t32.5 -19t24.5 -28.5t21.5 -40q36 -93 51.5 -278.5t18.5 -353.5t8 -194q95 363 125 454q60 179 132 239q57 48 146 48q67 0 110.5 -23.5t84 -91t82.5 -196.5q31 -93 63 -229 t52 -206t38 -70q17 0 30 40t23 130t15.5 160t13.5 202q34 505 242 505q39 0 61.5 -4t48.5 -21.5t39.5 -52t22.5 -97.5t9 -156q0 -397 -13 -547q-26 -292 -129 -423q-121 -153 -387 -153q-104 0 -138 50.5t-103 288.5q-5 18 -8 27l-89 303l-164 -443q-22 -57 -47 -95t-53 -62 t-71 -35.5t-87 -15.5t-114 -4q-44 0 -83.5 9.5t-80.5 35.5t-71.5 67.5t-53.5 110.5t-31 159z" />
<glyph unicode="X" horiz-adv-x="1283" d="M58 195q0 46 45 128.5t100.5 158.5t120.5 164.5t89 131.5l-11 11q-37 37 -63 64t-77.5 87t-84 110t-59 113t-26.5 114q0 26 27 56t72 50q45 21 95 29q16 3 33 2q35 0 71 -12q53 -18 91 -64l181 -297l181 297q38 46 91 64q36 13 71 12q17 0 33 -2q50 -8 95 -28.5t72 -50.5 t27 -56q0 -40 -134.5 -243.5t-186.5 -255.5q20 -35 88.5 -140.5t122 -191.5t99 -185.5t45.5 -154.5q0 -99 -184 -99q-155 0 -184 37q-85 104 -236 372q-144 -256 -235 -372q-13 -17 -42 -31.5t-67 -19.5q-8 -1 -16 -1q-30 0 -60 15q-62 30 -99 54t-55.5 47t-24 41.5 t-5.5 45.5zM864 730q45 23 45 40q0 3 -1 5q-4 -4 -19 -20.5t-25 -24.5z" />
<glyph unicode="Y" horiz-adv-x="1119" d="M-72 1352q0 9 12 20.5t37 23t58 20.5t79.5 15t97.5 6q84 0 177 -107t212 -320q31 60 64 131.5t53 116.5t43.5 91t41 71.5t39.5 41.5t45 16q108 0 182 -49t74 -108q0 -20 -38 -122.5t-92.5 -226t-126 -233.5t-128.5 -135q0 -40 4.5 -97t9.5 -107t10 -105q3 -41 3 -76 q0 -11 -1 -22q-1 -43 -8 -78.5t-26.5 -55t-49.5 -19.5q-3 0 -24 -0.5t-40 -0.5t-48.5 0.5t-54.5 3t-54 6.5t-51 11.5t-41 17.5t-29 25t-10 33v430q0 60 -65.5 183.5t-144.5 239.5t-144.5 222.5t-65.5 136.5z" />
<glyph unicode="Z" horiz-adv-x="1082" d="M55 154q0 52 51 150l375 788h-7q-38 0 -96 9q-64 10 -135 29.5t-121 57t-50 82.5q0 88 116.5 144.5t326.5 56.5q78 0 154.5 -6t159.5 -21t134 -47t51 -76q0 -91 -40 -212.5t-141 -326.5l-150 -301h259q33 0 52 -29q20 -28 24 -70q3 -25 2 -52q0 -18 -1 -38 q-3 -49 -10.5 -88.5t-15.5 -66.5q-19 -64 -174 -93.5t-372 -29.5q-87 0 -177.5 19t-152.5 52t-62 69z" />
<glyph unicode="[" horiz-adv-x="918" d="M174 -236l38 1779q0 66 12 114t32.5 77t53 46t67 23t80.5 6q10 0 59 0.5t73 0.5t70.5 -3.5t76.5 -9.5t65 -18.5t59 -30.5q27 -23 27 -72q0 -37 -6 -65.5t-14.5 -47.5t-26.5 -31.5t-32 -19t-42 -10t-46 -4t-54 -0.5h-55q-34 0 -34 -34q0 -43 7 -712t7 -728q0 -41 40 -41 h69q35 0 54.5 -0.5t55 -2.5t57 -5.5t52.5 -11t50 -18.5t41 -27.5t34 -38t20 -51t8 -64.5q0 -59 -31 -85q-26 -19 -69 -33t-97 -22t-106 -13t-112 -6.5t-98 -1.5t-81 0.5t-45 0.5q-26 0 -55 1t-43 1.5t-28.5 -0.5t-22.5 -5.5t-14 -13.5q2 14 -9.5 21t-18.5 -7q0 17 -16 30.5 t-28 13.5q0 14 -12 54.5t-12 64.5z" />
<glyph unicode="\" horiz-adv-x="669" d="M27 1283q0 76 33.5 110t113.5 34q35 0 73.5 -38t70 -92t68.5 -141t61.5 -155.5t57.5 -164.5q40 -121 75 -248.5t64 -266.5t21.5 -226.5t-57.5 -87.5t-78.5 1.5t-58 20.5t-42.5 31t-37 65.5t-36 89.5t-45 136q-5 14 -7 21t-44 135.5t-74 229.5t-72.5 230.5t-63.5 213 t-23 102.5z" />
<glyph unicode="]" horiz-adv-x="918" d="M150 1655q18 14 50.5 24.5t68.5 17t82 11t85.5 6.5t85 3t73.5 1t58 -0.5t33 -0.5h18h44.5t39 -1.5t36.5 -5t29 -9.5t25.5 -16t17 -24t12 -33t3.5 -44l-54 -1731q0 -293 -260 -293q-17 0 -70.5 -1.5t-86.5 -1t-80 5t-85 17.5t-67 34q-14 12 -27.5 56.5t-13.5 70.5 q0 126 90 211.5t194 85.5h95q34 0 34 34q0 46 15.5 650t15.5 650q0 34 -34 34h-96q-96 0 -160.5 24.5t-129.5 81.5q-17 17 -36 74t-5 69z" />
<glyph unicode="^" horiz-adv-x="1501" d="M123 614q0 43 109.5 208t237 327t182.5 210q18 23 138.5 23.5t161.5 -20.5q57 -25 129 -135t126.5 -233.5t92.5 -226t38 -122.5q0 -59 -74 -108t-182 -49q-28 0 -52 19.5t-50.5 66t-48.5 93.5t-61.5 134t-74.5 155q-119 -213 -212 -320t-177 -107q-51 0 -97 6t-79 15 t-58 20.5t-37 23t-12 20.5z" />
<glyph unicode="_" horiz-adv-x="1706" d="M-15.5 -404.5q2.5 19.5 6.5 40.5t8 45t4 39q0 20 113.5 23.5t297 -3t204.5 -6.5h1116q0 -11 3.5 -39.5t5.5 -54.5t1.5 -52t-10 -40.5t-27.5 -11.5q-112 9 -455 4.5t-764.5 -3.5t-487.5 16q-11 0 -14.5 11.5t-1 31z" />
<glyph unicode="`" d="M258.5 1757.5q-0.5 13.5 3.5 32.5t12 41.5t22 44.5t31 40t41.5 29t51.5 11q64 0 134 -39.5t120.5 -92.5t84 -105.5t33.5 -80.5q0 -26 -39 -59t-57 -33q-64 0 -212.5 74t-220.5 121q-4 3 -4.5 16.5z" />
<glyph unicode="a" horiz-adv-x="1331" d="M10 256q11 139 157 567t229 556q16 25 32 31.5t40 6.5q35 -3 117.5 -6t147.5 -7t86 -8q62 -9 75 -48q10 -23 187 -542.5t179 -525.5q23 -56 40 -68q1 -4 -4 -1q-15 8 -16 6t0 -5q1 -9 9.5 -19.5t19 -20t12.5 -12.5q3 -4 -1 -2q-16 8 -20 2q-14 -10 1.5 -47t33.5 -55 q-13 -36 -131 -66q-65 -17 -120 -17q-43 0 -80 11q-31 10 -54 29.5t-40.5 54.5t-28 63.5t-27 83.5t-28.5 87h-334l-45 -164q-14 -43 -40 -72.5t-62 -44t-72.5 -20.5t-81.5 -6q-100 0 -147 66q-37 52 -37 141q0 24 3 52zM529 631l246 7l-113 461z" />
<glyph unicode="b" horiz-adv-x="1119" d="M51 399v813q0 52 45 94t116 65.5t149 36t154 12.5q95 0 181 -22.5t158.5 -68.5t116 -125.5t43.5 -182.5q0 -143 -147 -318q205 -137 205 -331q0 -208 -147.5 -310.5t-405.5 -102.5q-79 0 -143.5 8.5t-111.5 26t-82 39t-58 53.5t-38 64t-22.5 76t-10 82.5t-2.5 90.5z M369 447q0 -77 22.5 -110.5t73.5 -37.5q16 -1 34 -1q42 0 98 6q-4 -3 -90 -19l-5 -2q124 0 179.5 34t55.5 82q0 70 -88 145.5t-168 83.5q29 0 36 8t-4 18t-32 15q14 0 16 9.5t-9 17.5q19 0 29.5 5.5t10.5 12t-2 10.5q77 57 111.5 122.5t34.5 109.5q0 86 -90 112 q-32 10 -69 10q-65 0 -144 -30v-601z" />
<glyph unicode="c" horiz-adv-x="1300" d="M44 771q0 132 49 248.5t138.5 203t223 137t293.5 50.5q119 0 217.5 -30.5t160 -80t94.5 -108.5t33 -119q0 -29 -6 -49t-23.5 -33.5t-36 -21t-57 -11t-71 -4.5t-93.5 -1q-25 0 -76 1q-31 2 -62 2q-24 0 -48 -1q-56 -3 -106.5 -8t-95 -25t-77.5 -51.5t-52 -87t-19 -130.5 q0 -68 23 -122.5t56 -87.5t82 -57.5t87.5 -35.5t87.5 -17.5t67.5 -7t40.5 -0.5q53 -5 100 -5q34 1 64 3q74 6 129.5 15t92.5 13.5t56 -10t19 -53.5q0 -40 -14 -83t-52 -91t-94.5 -85t-151.5 -61.5t-214 -24.5q-69 0 -167.5 29.5t-156.5 72.5q33 -17 76.5 -33t83 -26.5 t76 -18t56 -7t22.5 6.5q1 4 -12.5 6.5t-41 8t-61 13.5t-81.5 26.5t-94 44.5q-48 26 -93.5 61.5t-66.5 53t-25 11.5q-2 -2 -2 -4q0 -16 57 -77l3 -4q-39 25 -76.5 56.5t-87.5 91t-86.5 128.5t-62 171.5t-25.5 217.5z" />
<glyph unicode="d" horiz-adv-x="1215" d="M44 1058q0 109 24 150q6 10 24 45q8 14 9 24.5t5 19.5q17 34 27 58q6 14 38 31q31 16 107 29q55 9 121 9q25 0 52 -1q66 -3 137.5 -18t148.5 -45.5t147.5 -72.5t134.5 -103.5t111 -134.5t74.5 -169t27.5 -204q0 -130 -44 -245t-123 -201t-185 -148t-234 -94t-267 -32 q-126 0 -207 78t-97 188q-12 81 -19.5 288.5t-9.5 343.5t-2 204zM404 748q0 -15 -1 -32q0 -34 1 -74q1 -62 6 -110.5t14 -93t25.5 -69t38.5 -24.5q91 0 181.5 44.5t154 130t63.5 187.5q0 145 -103 212t-303 67q-41 0 -58 -24t-17 -51q0 -15 -1 -66t-1 -97z" />
<glyph unicode="e" horiz-adv-x="1003" d="M44 198v23q-1 23 -1 60.5t1 89.5q2 104 3.5 233.5t12.5 268.5t26.5 253.5t45.5 188.5t69 74h673q27 0 42 -0.5t40.5 -6t39 -15.5t24.5 -30.5t11 -49.5q0 -26 -1 -43.5t-7 -41t-16 -39t-29 -32.5t-46.5 -26.5t-68 -16t-92.5 -6.5h-245q-65 0 -77 -32q-10 -28 -10 -133v-37 q1 -24 1 -37h236q22 0 41.5 -1t61.5 -7.5t70.5 -18t52 -36.5t23.5 -60q0 -24 -1 -38.5t-5 -42.5t-14.5 -46.5t-27.5 -38t-47 -29.5t-69 -10h-321v-198h215q169 0 253.5 -42.5t84.5 -117.5q0 -52 -43 -89t-111.5 -55t-132 -25.5t-126.5 -7.5q-134 0 -253 23t-201 74t-82 121z " />
<glyph unicode="f" horiz-adv-x="894" d="M68 236v1044q0 37 24.5 65t73 45t99.5 27.5t127 15t130 6t133 1.5q40 0 75 -8t68 -26.5t52.5 -56t19.5 -89.5q0 -82 -48 -137t-146 -55q-2 0 -17.5 0.5t-23.5 0t-24 -2t-25 -5.5t-19.5 -10.5t-15.5 -17.5t-5 -26v-198q11 1 40.5 5.5t55 7.5t53.5 3.5t45.5 -9t20.5 -28.5 q1 -14 1 -34q0 -36 -4 -90q-8 -84 -28 -104q-28 -28 -71 -45.5t-123 -36.5v-331q0 -48 -36 -82.5t-89.5 -50t-96.5 -22t-75 -6.5q-31 0 -56.5 5.5t-42.5 18t-30 25t-20.5 34.5t-12.5 37.5t-6.5 43t-2 42.5t-0.5 44z" />
<glyph unicode="g" horiz-adv-x="1433" d="M38 683q0 145 49 270t130 212t186 149t216 91t221 29q195 0 271.5 -61t76.5 -206q0 -32 -1.5 -49t-6.5 -37.5t-16.5 -30t-30.5 -20t-50 -14.5t-73 -6.5t-102 -2.5q-220 0 -337.5 -23.5t-168 -80t-50.5 -162.5q0 -86 30.5 -159.5t79.5 -123t111.5 -84.5t125 -51t120.5 -16 q113 0 171 38q52 34 52 84q0 6 -1 11q-3 21 -14.5 34t-36.5 20t-48.5 10.5t-68 9.5t-78.5 12q-53 10 -92.5 48.5t-47.5 84.5v10q0 68 91 111q97 46 247 46q55 0 99 -2.5t93.5 -9.5t86 -20.5t68 -34.5t47.5 -53.5t16 -74.5q0 -139 -43.5 -259.5t-125 -211t-208 -142.5 t-282.5 -52q-115 0 -219 27.5t-193.5 85t-154.5 141t-102 202t-37 261.5z" />
<glyph unicode="h" horiz-adv-x="1225" d="M89 280v1072q0 65 77 86q30 8 63 8q52 0 109 -21q99 -37 125 -113q8 -22 8 -46v-341q8 -11 41 -11q11 0 25 2q36 3 78 2h49q71 -2 80 -24v434q0 39 36 64q36 24 86 30q26 3 53 3q25 0 49 -2q52 -5 88.5 -25t39.5 -46l78 -1038q2 -26 2 -49q0 -104 -40 -169 q-48 -79 -153 -79q-229 0 -229 283v239q0 10 -20 15.5t-54 7.5t-61.5 2.5t-61.5 -0.5t-35 -1q-25 0 -31 -97q-3 -51 -3 -101q0 -47 2 -93q2 -32 2 -58q0 -53 -7 -84q-33 -113 -154 -113q-61 0 -107.5 22.5t-71 53.5t-40 71t-19.5 67t-4 49z" />
<glyph unicode="i" horiz-adv-x="556" d="M72 38q11 175 11 367.5t-5.5 425.5t-5.5 360q0 46 12.5 82.5t30.5 59.5t47.5 40t54 25t60 12.5t56 5.5t49.5 1q31 0 52.5 -17t32.5 -53t16.5 -76.5t5.5 -102.5t-1.5 -115.5t-4 -131t-2.5 -133.5q0 -138 6.5 -291t12.5 -239q4 -64 4 -119v-36q-2 -69 -16 -93 q-22 -36 -88 -48.5t-135.5 -12.5t-83.5 -7q1 5 -5.5 8.5t-16 3.5t-16.5 -5q2 10 -13 17t-28 7q0 6 -15 29t-15 36z" />
<glyph unicode="j" horiz-adv-x="1109" d="M0 270q0 107 57 176t175 69q43 0 81 -16.5t155 -78.5q16 -9 48 -14q20 -4 41 -4q14 0 29 2q38 3 65.5 34t27.5 88v525q-181 -17 -314 -17q-139 0 -228 50t-89 135q0 71 120 128q141 66 339 70h23q226 0 367 -93q151 -102 151 -290v-539q0 -20 -1.5 -43.5t-8.5 -63.5 t-18 -78.5t-32.5 -84t-50 -85t-72 -77.5t-96 -64.5t-126 -43t-158.5 -16.5q-128 0 -241 47t-178.5 123.5t-65.5 160.5z" />
<glyph unicode="k" horiz-adv-x="1232" d="M99 140v1215q0 38 32.5 51.5t138.5 13.5q55 0 85 -1t62 -6t47 -15.5t24.5 -28.5t9.5 -45l4 -413q26 50 48 72l293 355q38 46 91 64q36 13 71 12q17 0 33 -2q50 -8 95 -28.5t72 -50.5t27 -56q0 -181 -310 -488l-11 -11q20 -35 88.5 -140.5t122 -191.5t99 -185.5 t45.5 -154.5q0 -99 -184 -99q-155 0 -184 37q-62 78 -141 210.5t-152.5 268t-95.5 170.5q-4 0 -4 3l4 -198q0 -179 -11.5 -265t-53.5 -148q-32 -46 -91 -68q-47 -18 -92 -18q-11 -1 -23 1q-56 6 -97.5 42.5t-41.5 97.5z" />
<glyph unicode="l" horiz-adv-x="996" d="M72 1355q0 38 13 51q17 17 181 20q33 1 59 1q108 0 126 -10q41 -17 41 -82l23 -891q0 -43 22.5 -56t104.5 -13h191q45 0 74.5 -10t40.5 -24.5t17 -32t6.5 -32.5t5.5 -25.5t16 -11.5q-11 -15 -9.5 -29.5t16.5 -21.5q-24 -17 -20 -34q3 -16 20 -24q-4 -1 -10.5 -1.5 t-10.5 -1.5t-7 -3.5t-3 -7.5q0 -8 11 -11.5t13 -5.5q-42 -4 -48 -41q-5 -31 -51 -31q-48 0 -120.5 2.5t-218 10.5t-259.5 31.5t-149 58.5q-38 38 -48 99.5t-10 183.5q0 4 -4.5 211.5t-8.5 439t-4 291.5z" />
<glyph unicode="m" horiz-adv-x="1890" d="M27 270v303q0 171 31.5 320.5t86.5 257.5t126.5 186t153 116.5t166.5 38.5q119 0 212 -53t190 -156q101 106 220 144q60 19 120 19t121 -19q-5 0 -34.5 3.5t-57 2.5t-48.5 -10h8q141 -1 268 -67q130 -68 168 -168q-9 30 -19.5 52t-41 59t-76.5 70q102 -45 153.5 -170 t51.5 -359q0 -1 1 -60t1 -121q0 -12 1 -26q0 -54 -2 -127q-2 -91 -7 -168.5t-16.5 -155t-28.5 -124.5q-12 -37 -28 -62t-32.5 -39t-42.5 -21.5t-47.5 -9t-57.5 -1.5q-84 0 -120.5 50t-36.5 185v66v48v38q0 33 -0.5 94t-3.5 102.5t-7 96.5t-12 92.5t-18 73.5t-25 56.5 t-33 25.5l-96 -222q-22 -50 -45 -91t-43 -70.5t-45 -52.5t-41.5 -37.5t-41.5 -24.5t-38 -14.5t-37 -7t-31 -2.5h-29q-56 0 -100.5 47.5t-71 119t-47 154.5t-31.5 154.5t-21.5 119t-19.5 47.5q-17 0 -31 -21.5t-23.5 -61.5t-16.5 -87t-11 -107.5t-6.5 -112t-2.5 -112.5 q-2 -61 -2 -97v-37v-39q0 -41 1 -42q0 -28 -11 -60t-33 -64t-63 -53t-94 -21q-23 0 -37.5 0.5t-43.5 4.5t-49 11.5t-45.5 23t-40.5 37.5t-26 56.5t-11 78.5z" />
<glyph unicode="n" horiz-adv-x="1529" d="M58 393v86v70q0 62 1 165.5t4 179t8 156.5t14 137.5t21 85.5q3 9 13.5 -3t13.5 -4q4 8 9.5 6t10 -5.5t4.5 -0.5q9 47 56 88.5t115 41.5q70 0 139.5 -36.5t116.5 -120.5q1 -2 48.5 -86t86 -148t91 -146.5t94.5 -129t65 -46.5q8 0 14.5 10.5t11 32t7 47.5t4 63.5t2.5 73.5 q1 24 1 52q-1 14 -1 30v85.5t-0.5 89t-0.5 86.5q0 112 56.5 167t192.5 55q125 0 177 -36t52 -101v-171q-5 -551 -99 -818t-253 -267q-155 0 -307.5 125.5t-333.5 396.5v-403q0 -47 -13 -80t-30 -49.5t-45 -25.5t-45.5 -10.5t-44.5 -1.5q-37 0 -65.5 3t-66.5 17t-63 39 t-43 73t-18 114v113z" />
<glyph unicode="o" d="M-10 751q0 102 28 202.5t84.5 190t135.5 158t188.5 109t235.5 40.5q140 0 257.5 -37.5t199.5 -102t141.5 -151t89 -184t36.5 -201.5q2 -29 2 -58q0 -75 -13 -145q-18 -98 -58.5 -188.5t-101.5 -158.5q65 52 119 169q52 118 70 256q5 42 6 84q0 94 -28 184q16 -39 24 -92 q6 -42 6 -90q0 -12 -1 -26q-2 -64 -14 -132t-39.5 -137t-66.5 -133.5t-99 -120.5t-133 -97.5t-172.5 -65.5t-214.5 -24q-135 0 -259 54t-218 150.5t-149.5 238.5t-55.5 308zM324 778q0 -73 22.5 -134.5t59.5 -102.5t85 -70t97 -42t98 -13q63 0 124 25.5t111.5 72t81.5 121 t31 164.5q0 160 -103.5 254t-251.5 94q-105 0 -187.5 -54.5t-125 -138t-42.5 -176.5z" />
<glyph unicode="p" horiz-adv-x="1276" d="M20 212v245q0 210 37 375t102.5 277t161 186t208 106.5t246.5 32.5q137 0 249.5 -54t180.5 -159t68 -241q0 -85 -24.5 -157.5t-72 -129t-124.5 -88.5t-175 -32q-119 0 -214.5 47.5t-95.5 120.5q0 46 34.5 84.5t87.5 48.5q27 5 63.5 10.5t54 8t39 9.5t30.5 17t15.5 27.5 t6.5 43.5q0 14 -7.5 29t-22.5 28.5t-36 22.5t-51.5 8t-64.5 -13t-78.5 -42.5t-91.5 -77.5q-6 1 28 33t67.5 63t27.5 31q-8 2 -49 -23t-43 -25q-1 0 5 6q26 28 12 28q-7 0 -23 -11.5t-39.5 -46.5t-44 -87t-35.5 -147t-15 -213v-365q0 -28 -2 -51t-7.5 -40.5t-10.5 -32 t-15 -24t-17.5 -17t-21.5 -11.5t-23 -6.5t-26 -4t-26.5 -1.5h-28.5q-59 0 -104 15t-70 37.5t-40.5 53t-20 55.5t-4.5 51z" />
<glyph unicode="q" horiz-adv-x="1430" d="M34 652q0 174 53 325.5t146 259.5t224.5 169.5t283.5 61.5q244 0 393 -163t149 -441q0 -162 -64 -352q6 -7 30 -31.5t33 -34t29.5 -31.5t31.5 -36.5t27.5 -35.5t30 -41.5t26.5 -42.5q33 -58 39 -108q1 -11 1 -22q0 -37 -15 -69q-21 -42 -58.5 -76t-96.5 -66 q-23 -13 -47 -13q-103 0 -246 221q-60 -57 -140 -93t-212 -36q-103 0 -211.5 47.5t-199.5 130.5t-149 209t-58 268zM396 720q0 -184 128 -284q92 -72 213 -72q46 0 96 11q-33 33 -68 93q-36 65 -36 129q0 61 31 99q30 38 80 38q29 0 59.5 -14t57 -33.5t29.5 -20.5 q14 59 14 112q0 98 -48 172q-75 115 -211 115q-163 0 -254 -95t-91 -250zM795 440q-1 0 -1 -1q0 -2 2 -5q2 -6 8.5 -16t14.5 -19q6 -8 14 -15q6 -5 9 -5h1q1 1 -10 17t-24 30.5t-14 13.5z" />
<glyph unicode="r" horiz-adv-x="1303" d="M55 556q0 509 109 669q79 115 241 171q149 51 336 51h34q243 -7 370.5 -114t127.5 -275q0 -80 -18.5 -143.5t-47.5 -103t-68.5 -68.5t-78.5 -42t-81 -20t-71.5 -7t-54.5 1t-27 1q27 -31 112 -140t170.5 -206.5t164.5 -162.5q24 -20 24 -49q0 -12 -4 -25q-15 -56 -85 -79 q-39 -14 -87 -14q-81 0 -189 38q-50 17 -111.5 82.5t-114 146.5t-99 165t-74.5 143t-31 74v-574q0 -41 -34 -65t-89 -24q-141 0 -232.5 151t-91.5 419zM498 959q1 0 18.5 -3.5t38 -7t51.5 -8.5q30 -4 60 -5q20 -1 41 -1h21q32 0 58.5 7.5t48 19t34 32t12.5 48.5q1 76 -95 94 q-27 5 -55 5q-69 0 -137 -32q-96 -46 -96 -125v-24z" />
<glyph unicode="s" horiz-adv-x="925" d="M24 229q0 84 50 113q32 19 77 19q25 0 54 -6q11 -5 73 -14q33 -5 68 -5q31 0 63 4q69 8 69 49q0 30 -36 76.5t-87 101.5t-102 120t-87 152.5t-36 177.5q0 115 49 213t148 161t229 63q66 0 123 -9t107 -28t79 -54t29 -83q0 -78 -1.5 -119t-9.5 -67t-17.5 -30.5t-31 -1.5 t-45 12.5t-65.5 17t-86 7.5q-47 0 -78 -12t-31 -32q0 -41 36 -93t87 -107.5t102 -120t87 -152.5t36 -183q0 -195 -158 -317.5t-398 -122.5q-64 0 -120 12.5t-77.5 23t-34.5 19.5q-65 35 -65 215z" />
<glyph unicode="t" horiz-adv-x="1174" d="M-51 1215q0 41 7 107t20 77q34 25 158 40.5t255.5 18t246.5 4.5q46 1 76 1q45 0 56 -2h3q7 1 59 1h45h30q23 0 72 -3.5t78.5 -10t65.5 -19t60 -30.5q13 -11 20 -77t7 -107q0 -37 -15 -65.5t-36.5 -47t-58 -31.5t-65 -19t-73.5 -9.5t-68 -4t-63 -0.5h-54q20 -50 27 -286 q2 -79 2 -155q0 -153 -9 -298q-14 -210 -42 -210h-2q-3 -8 -27 -22t-24 -23q-11 26 -34 -6q2 12 -22 3q-30 -11 -36 -27q-5 7 -23 3t-18 -10q-7 15 -42.5 19.5t-50.5 -6.5q1 5 -4.5 8.5t-14 3.5t-15.5 -5q2 10 -11.5 17t-25.5 7q0 6 -14 29t-14 36v263q0 120 22.5 334.5 t22.5 290.5q0 34 -34 34h-55q-40 0 -63 0.5t-68.5 4t-74.5 9.5t-65.5 19t-58 31.5t-37 47t-15.5 65.5z" />
<glyph unicode="u" horiz-adv-x="1563" d="M51 686q0 142 20 334.5t45 269.5q11 38 45 67t76 43t77 20.5t58 6.5q126 0 126 -239q0 -33 -13.5 -214.5t-13.5 -219.5q0 -88 14 -150.5t32.5 -94t48.5 -49t51 -20.5t52 -3q70 0 128 17.5t96.5 45t67.5 65.5t45 75t26 78t13 70t3 55v529q0 26 14.5 43t38.5 23t36.5 7.5 t26.5 1.5q50 0 104.5 -14t104.5 -40.5t82.5 -72t32.5 -101.5v-314q0 -155 -25.5 -288t-84 -250.5t-148 -199.5t-223.5 -129.5t-304 -47.5q-94 0 -185 25t-176 80t-149 134.5t-103 197.5t-39 259z" />
<glyph unicode="v" horiz-adv-x="1119" d="M-51 1205q0 34 77.5 71.5t191.5 37.5q30 0 57.5 -20t51.5 -52.5t52.5 -91t53.5 -117.5t62 -150q33 -81 51 -125q126 349 144 395q88 222 154 260q17 10 33 10q120 0 202 -74t82 -161q0 -21 -43.5 -148.5t-112.5 -300t-145 -340t-152.5 -283.5t-123.5 -116q-55 0 -166 102 t-148 181q-51 99 -186 469.5t-135 452.5z" />
<glyph unicode="w" horiz-adv-x="1836" d="M61 847v389q0 95 106 95q263 0 263 -123q0 -136 1.5 -219.5t7.5 -211t22 -193t41 -65.5t50 61t46.5 152t53.5 198t67.5 198t92 152t123.5 61q55 0 98.5 -39t71 -103t49 -146t33 -167.5t21.5 -167.5t16.5 -146t16 -103t22.5 -39q106 0 106 625q0 382 246 382 q94 0 132 -26.5t38 -99.5q0 -83 -0.5 -136t-5.5 -166.5t-13.5 -195t-27 -197t-44.5 -197.5t-67 -172t-92 -145.5t-123.5 -92t-158.5 -36.5q-63 0 -115.5 48t-86 119t-63.5 170.5t-46.5 183t-35 177.5t-29.5 135q-15 -55 -34 -134.5t-32.5 -138t-34 -130t-40 -122.5 t-50 -102.5t-65.5 -83t-83.5 -51.5t-107.5 -20q-31 0 -63.5 11.5t-69.5 39.5t-70 69.5t-64 108t-53 149t-35.5 197t-13.5 248.5z" />
<glyph unicode="x" horiz-adv-x="1194" d="M44 1120q0 80 23 141.5t57 96.5t77.5 57t79 29t67.5 7q19 0 33.5 -4.5t22.5 -14.5t13.5 -18.5t7.5 -24t2.5 -23t0 -24t-0.5 -18.5q0 -107 44 -209.5t96 -141.5q24 24 45 52t34.5 48.5t31 57t25 54t26 63.5t25.5 63q26 62 82 90.5t123 28.5q54 0 144 -46q32 -16 32 -9 q0 2 -2 7q10 -13 19 -34.5t14 -33t8 -7.5q0 -115 -84 -246t-240 -303q116 -76 198 -218t82 -294q0 -131 -71 -183.5t-209 -52.5q-38 0 -58 33t-31 87.5t-24 114.5t-48 125t-92 108q-120 -114 -136 -389q-2 -39 -44.5 -65.5t-109.5 -26.5q-18 0 -35.5 2.5t-32 6.5t-28 8.5 t-24 9.5t-19.5 9.5l-16 8t-11.5 5t-7.5 0t-3 -5.5q-9 13 -26 16.5t-30 -1.5t-13 -15q-15 72 -15 144q0 111 36 219q58 178 198 323q-97 74 -120 113q-2 2 1 -1q2 -1 5 -4q37 -35 48 -35q3 0 4 2q3 3 -9 16.5t-36.5 43.5t-42.5 60q-28 49 -44 98.5t-19.5 72.5t-5.5 23 q-7 -5 -3.5 -36.5t20 -83.5t35.5 -91q-29 41 -49 107t-20 108z" />
<glyph unicode="y" horiz-adv-x="1194" d="M-17 1266q0 22 0.5 29t8 27t23 34t48 35.5t80.5 45.5q29 15 60 15q7 0 15 -1q39 -5 68 -20t42 -32q91 -116 235 -372q47 29 138.5 136.5t100.5 177.5q11 72 73 104q36 19 81 19q32 0 68 -10q9 -3 70 -38q38 -22 38 -9q-1 2 -2 6q8 -13 16.5 -34.5t13 -33t7.5 -7.5 q10 -30 10 -64t-10 -72q-20 -76 -65.5 -146.5t-102.5 -147.5t-108.5 -139.5t-87 -122t-35.5 -96.5v-458q-42 -63 -112 -90q-50 -19 -97 -19q-20 0 -39 3q-66 12 -114 66.5t-48 138.5v30q0 118 -1.5 190t-13.5 172.5t-36 140.5q-15 26 -102 158t-154.5 244.5t-67.5 139.5z " />
<glyph unicode="z" horiz-adv-x="1174" d="M-7 150q0 135 167 365l441 611l-33 -1q-32 -1 -84 -1q-10 0 -21 -1q-43 0 -93 2q-62 2 -125 10.5t-114.5 22.5t-84 40t-32.5 62q0 38 24 68.5t68 51t97.5 35.5t120.5 23t128 13q62 5 130 5q34 0 63 0.5t52 -0.5q47 0 95.5 -1t60.5 -1q58 0 114.5 -64.5t89 -147.5 t32.5 -146q0 -34 -49 -117t-118.5 -177t-139.5 -183t-119 -147l-49 -59h53q115 -1 251 -7q168 -8 222 -20q-26 6 -34 -34q-4 -19 -4 -39q0 -35 12 -73q10 -32 23 -35q-11 -3 -19 -23.5t-14 -48.5t-21.5 -60t-37.5 -58.5t-65.5 -44.5t-102.5 -18h-471q-95 0 -168.5 12 t-119 31t-74.5 45.5t-40 53t-11 56.5z" />
<glyph unicode="{" horiz-adv-x="839" d="M46.5 599.5q-1.5 32.5 0 63.5t5 66.5t3.5 48.5q0 45 43 60t172 15q26 3 31.5 41t-5 95.5t-24.5 116t-27 113t-13 75.5q0 416 324 518q112 38 188 21t96 -92q31 -89 31 -110q0 -32 -39 -56q-17 -10 -50 -25q-67 -31 -105 -77.5t-48.5 -101t-10 -115.5t4.5 -126.5t1 -127 t-28 -125t-74 -112.5q81 -36 126 -84.5t57 -103.5t9.5 -115.5t-10 -128t-9.5 -132t18.5 -136.5t68.5 -133q114 -142 58 -263q-34 -72 -119 -84.5t-212 46.5q-68 33 -122.5 75t-88.5 81t-59.5 84t-37 78t-18.5 68.5t-8 50t-1 28.5q0 57 21 140t42.5 147t21.5 74q0 22 -7.5 37 t-17 22.5t-29.5 11t-32.5 3.5t-40.5 -1t-40 -1q-21 0 -32.5 19t-13 51.5z" />
<glyph unicode="|" horiz-adv-x="505" d="M89 -300v1798q0 165 59.5 231.5t148.5 14.5q33 -16 56.5 -238.5t33 -528t11.5 -607.5t-6.5 -509.5t-22.5 -201.5q-1 -11 -19.5 -33t-18.5 -36q-2 13 -5.5 18t-7 0.5t-6 -10t-5.5 -14.5q0 16 -17 4q-21 -18 -27 -45q-3 8 -10.5 7.5t-15.5 -5.5t-8 -9q-5 23 -30.5 29.5 t-38.5 -9.5q2 11 -7 17t-16 -6q2 14 -8.5 25.5t-19.5 11.5q0 6 -10 40t-10 56z" />
<glyph unicode="}" horiz-adv-x="832" d="M155.5 1576.5q0.5 36.5 15.5 68.5q33 66 122.5 84.5t204.5 -33.5q58 -28 104 -62t73 -67t48 -68t28.5 -65t13.5 -58t4 -46.5t-1 -31.5v-8q0 -69 -27.5 -243.5t-27.5 -176.5q0 -23 8.5 -39t26 -24.5t33 -12.5t42.5 -8.5t41 -7.5q26 -5 42.5 -16.5t24 -31t9.5 -37t2 -44.5 q0 -21 -18.5 -40t-43 -32.5t-53.5 -36t-45 -45.5q-28 -40 -35.5 -71t-1.5 -53t14.5 -72.5t8.5 -107.5q0 -366 -314 -464q-54 -18 -95.5 -26.5t-79.5 -8.5t-62 16.5t-33 49.5q-8 21 -8.5 39.5t2.5 32t15 27t21 21.5t30 19t32.5 16t38 16t37.5 16q60 28 91 71t35 93.5 t-3 106.5t-16.5 116.5t-12.5 117t16 114t64 102.5q-63 40 -91 94.5t-26 111t15.5 116.5t26.5 117t13.5 107.5t-30.5 92.5t-99 67q-65 23 -107 58t-57.5 72.5t-15 74z" />
<glyph unicode="~" horiz-adv-x="1024" d="M27 618q0 26 23 70.5t60 90t93 79t114 33.5q85 0 267 -46t218 -46q14 0 35 24.5t47 49.5t51 25q15 0 50.5 -31.5t35.5 -54.5q0 -25 -30.5 -71.5t-76.5 -93t-109.5 -81t-121.5 -34.5q-46 0 -227.5 49.5t-196.5 49.5q-22 0 -42 -15.5t-33.5 -34t-32.5 -34t-38 -15.5 q-15 0 -50.5 31.5t-35.5 54.5z" />
<glyph unicode="&#xa1;" horiz-adv-x="754" d="M152 125q-3 140 84 454q9 36 30 107q31 111 45 164q3 11 19 21t33.5 18.5t33.5 27.5t19 46q2 -21 16.5 -26.5t24.5 2.5q2 -7 10.5 -12.5t18 -1.5t12.5 20q38 -68 38 -139q0 -60 15.5 -333.5t15.5 -322.5q0 -131 -51.5 -178t-194.5 -47q-165 0 -169 200zM195 1314 q0 23 3 44.5t11 47.5t26.5 42t44.5 16q239 0 297 -51q39 -44 18.5 -135t-63.5 -138q-15 -16 -36 -25t-50 -12t-52 -3t-62 1.5t-59 1.5q-78 0 -78 211z" />
<glyph unicode="&#xa2;" horiz-adv-x="1252" d="M106 812q0 174 91 300.5t264 174.5q15 78 51 138.5t92 72.5q78 18 118.5 -3t59.5 -82q2 -6 3.5 -12.5t2 -14.5t1 -13.5t0 -15.5t-1 -15t-1.5 -17.5t-1 -17.5q131 -27 207 -101.5t76 -157.5q0 -23 -5 -39t-19 -26.5t-29 -17t-45.5 -9.5t-56.5 -3.5t-73 -0.5q-20 0 -56 1 t-59.5 1.5t-57.5 -1t-57 -5t-52 -11t-48 -18.5t-39 -29.5t-31.5 -42t-19 -56.5t-7.5 -74q0 -54 18.5 -98t44 -70.5t65 -46.5t70 -28.5t70 -13.5t54 -5.5t33.5 -0.5q72 -7 127.5 -5.5t96 4.5t66.5 3.5t38.5 -8.5t12.5 -32v-9q0 -30 -0.5 -46t-6.5 -46.5t-17.5 -48.5 t-35.5 -41.5t-57.5 -36t-86.5 -22t-120 -9.5q-2 -50 -7 -84.5t-19.5 -59.5t-27.5 -39.5t-44 -26t-54.5 -17t-72.5 -15.5q-20 -4 -36.5 0.5t-27.5 18t-19 31t-12 42t-6.5 46.5t-3 50.5t0 48t1 44.5t0.5 36q43 -23 105 -42t99.5 -24t45.5 1q0 3 -28.5 7.5t-87.5 23t-117 51.5 q-38 19 -74 46.5t-52.5 42t-19.5 10.5q-12 -9 47 -68q-32 20 -61.5 45t-69.5 73t-68.5 102.5t-49 137t-20.5 174.5z" />
<glyph unicode="&#xa3;" horiz-adv-x="976" d="M-49.5 266.5q12.5 63.5 49.5 85.5q61 36 96 87t37 107q-58 12 -96.5 36.5t-53.5 50.5t-18.5 57.5t0 52.5t11.5 42q9 31 174 48q-13 98 -14 179.5t11.5 143.5t33 111t53.5 83.5t70.5 58t86 37t98 19.5t108.5 6q137 0 242.5 -68t105.5 -171q0 -50 -21.5 -81.5t-55.5 -43.5 t-77 -20t-87 -10.5t-84 -16t-68 -36t-40 -70t0 -118.5h150q249 0 249 -150t-249 -150h-153q0 -55 -43 -119t-111 -93q24 5 95.5 -0.5t163.5 -6t168 17.5q65 16 103 -4.5t54 -50.5q28 -46 26 -122t-43 -117q-49 -49 -140 -65.5t-182 -10.5t-230 13.5t-237 1.5 q-71 -5 -119 43.5t-62 114t-1.5 129z" />
<glyph unicode="&#xa4;" horiz-adv-x="1280" d="M130 259q-35 49 119 267q-20 65 -20 170q0 110 17 168l-62 75q-77 81 -51.5 168.5t133.5 145.5q31 18 90.5 -11t169.5 -116q94 17 181 17q55 0 99 -10q116 105 129 86q8 5 35.5 -1.5t33.5 1.5q-5 -16 5.5 -20t21.5 -1q-7 -7 16 -16q31 -12 45 -4q0 -7 15.5 -17t18.5 -7 q-5 -15 19.5 -42.5t42.5 -29.5q-10 -3 0 -17q6 -10 17 -10q-7 -6 -2.5 -21.5t12.5 -23.5q-4 -4 -9.5 -30t-14.5 -35l-85 -88q31 -101 31 -198q0 -50 -11 -92q48 -53 82 -95t49.5 -68t8.5 -29q3 -7 -4 -35t1 -33q-16 7 -20 -3t-1 -24q-7 10 -18 -16q-13 -29 -5 -42 q-7 0 -17 -15.5t-7 -18.5q-14 5 -42 -17t-33 -41q-3 9 -17 1q-11 -7 -11 -18q-6 7 -21 2t-23 -13q-4 4 -30 11.5t-35 16.5l-147 143q-95 -31 -187 -31q-81 0 -134 14l-68 -68q-78 -79 -166 -56.5t-151 127.5zM495 672q0 -23 2 -44.5t12.5 -53.5t28 -54.5t52.5 -39t82 -16.5 q90 0 134 56.5t44 124.5q0 49 -6 86t-22 74.5t-51.5 58t-87.5 20.5q-188 -4 -188 -212z" />
<glyph unicode="&#xa5;" horiz-adv-x="1119" d="M-72 1352q0 9 12 20.5t37 23t58 20.5t79.5 15t97.5 6q84 0 177 -107t212 -320q31 60 64 131.5t53 116.5t43.5 91t41 71.5t39.5 41.5t45 16q108 0 182 -49t74 -108q0 -20 -38 -122.5t-92.5 -226t-126 -233.5t-128.5 -135q355 -7 355 -51q0 -21 -1 -35t-8.5 -40.5 t-22 -44.5t-44 -37.5t-71.5 -30.5q-47 -12 -191 -17q4 -47 6 -78.5t2 -70.5t-4.5 -63.5t-13.5 -47.5t-25.5 -33.5t-39.5 -10.5q-3 0 -24 -0.5t-40 -0.5t-48.5 0.5t-54.5 3t-54 6.5t-51 11.5t-41 17.5t-29 25t-10 33v229q-113 12 -153 24q-44 10 -70 24t-34 34t-9 35.5t3 42 t4 38.5q0 41 252 41q-16 69 -84.5 189.5t-140.5 226.5t-130 202.5t-58 125.5z" />
<glyph unicode="&#xa6;" horiz-adv-x="1706" d="M89 -300v600q0 165 59.5 231.5t148.5 14.5q33 -16 56.5 -115.5t33 -228.5t11.5 -255t-6.5 -210t-22.5 -78q-1 -11 -19.5 -33t-18.5 -36q-2 13 -5.5 18t-7 0.5t-6 -10t-5.5 -14.5q0 16 -17 4q-21 -18 -27 -45q-3 8 -10.5 7.5t-15.5 -5.5t-8 -9q-5 23 -30.5 29.5 t-38.5 -9.5q2 11 -7 17t-16 -6q2 14 -8.5 25.5t-19.5 11.5q0 6 -10 40t-10 56zM99 867v631q0 165 59.5 231.5t148.5 14.5q33 -16 56.5 -118.5t33 -236.5t11.5 -264.5t-6.5 -217.5t-22.5 -81q-1 -11 -19.5 -32.5t-18.5 -35.5q-7 40 -23 -4l-1 -3q0 16 -17 4q-21 -17 -27 -45 q-3 8 -10.5 7.5t-15.5 -5.5t-8 -9q-5 23 -30 30t-38 -9q2 11 -7.5 16.5t-16.5 -6.5q2 14 -8.5 25.5t-19.5 11.5q0 6 -10 40t-10 56z" />
<glyph unicode="&#xa7;" horiz-adv-x="1344" d="M80 1054q3 62 26 123t60 113t96 95t134 69q16 116 88 206t195 132q47 17 106.5 21t119 -8t109.5 -36.5t81 -67.5t31 -97q0 -46 -19 -71.5t-49.5 -32t-67 -6t-73 1.5t-67 -3.5t-49.5 -25.5t-19 -61q0 -31 28 -65.5t73 -69.5t99 -74.5t108 -86t99 -97.5t73 -116.5 t28 -135.5q0 -247 -239 -375q6 -77 -11 -149.5t-59.5 -136.5t-106.5 -112t-158 -76t-207 -28q-79 0 -148.5 13t-116 33.5t-78 45.5t-42 50t-1.5 46q1 2 8.5 18.5t11.5 27.5t10.5 30.5t8.5 35t2 33t-6 32t-18 24.5q27 -15 41 -2t7 29q10 4 16.5 11.5t8 21.5t-11.5 32 q2 2 15 -7t40.5 -24.5t65 -31.5t100 -27.5t134.5 -11.5q49 0 69.5 29t12.5 73q-7 38 -46.5 70.5t-94.5 57t-120.5 62t-123 81.5t-104.5 120t-64 172q-8 64 -5 126zM461 1007q6 -37 54 -76t108.5 -70t142 -80.5t135.5 -97.5q64 26 51 78q-9 30 -63.5 68.5t-120.5 73.5 t-144.5 89t-125.5 107q-47 -37 -37 -92z" />
<glyph unicode="&#xa8;" horiz-adv-x="1437" d="M328 1642v34q0 125 60.5 174t150.5 10q69 -26 95 -122q19 -71 2 -112q-8 -20 -22 -15q-1 -8 -19 -24t-18 -27q-7 25 -21 2l-6 -9q0 15 -19 3q-21 -14 -26 -34q-2 9 -18 5t-16 -8q-5 18 -31 22.5t-41 -8.5q6 9 -7 13q-10 3 -17 -3q2 10 -8 18.5t-19 8.5q0 5 -10 31t-10 41 zM758 1642v34q0 125 59.5 174t151.5 10q69 -26 95 -122q19 -71 2 -112q-8 -20 -22 -15q-1 -8 -20.5 -24t-19.5 -27q-2 10 -5.5 13t-6.5 0t-6 -8t-6 -12q0 15 -19 3q-21 -14 -26 -34q-2 9 -18 5t-16 -8q-5 18 -32 22.5t-40 -8.5q2 8 -7 12.5t-16 -2.5q2 10 -8.5 18.5 t-19.5 8.5q0 5 -10 31t-10 41z" />
<glyph unicode="&#xa9;" horiz-adv-x="1471" d="M3 727q0 150 58 285.5t156.5 234t234 156.5t285.5 58t285.5 -58t234 -156.5t156.5 -234t58 -285.5t-58 -285.5t-156.5 -234t-234 -156.5t-285.5 -58t-285.5 58t-234 156.5t-156.5 234t-58 285.5zM126 727q0 -125 48.5 -238t130 -194.5t194.5 -130t238 -48.5t238 48.5 t194.5 130t130 194.5t48.5 238t-48.5 238t-130 194.5t-194.5 130t-238 48.5t-238 -48.5t-194.5 -130t-130 -194.5t-48.5 -238zM263 788q0 178 126.5 299t337.5 121q152 0 241.5 -69t89.5 -156q0 -22 -7.5 -35.5t-19.5 -22t-38.5 -12t-52 -4.5t-73.5 -1q-16 0 -46 0.5t-48 1 t-47 -1t-47 -4.5t-42 -9.5t-39 -16.5t-31.5 -25.5t-26 -35.5t-15.5 -48t-6 -62q0 -44 15 -79.5t36.5 -57t53.5 -37t57 -23t57.5 -11t44 -4t26.5 -0.5q59 -7 107 -3t84 9.5t60.5 8.5t36.5 -6.5t12 -35.5t-9 -54t-33.5 -59.5t-62 -56t-99.5 -40.5t-140 -16q-44 0 -108.5 20 t-103.5 49q35 -19 86.5 -35.5t83 -20t38.5 3.5q0 1 -2.5 2t-8 2t-13.5 2.5t-18.5 3.5t-23 5t-27.5 7.5t-30.5 10.5t-34 14t-36.5 18q-32 16 -61.5 39.5t-42.5 35t-16 7.5q-9 -9 29 -45q12 -11 12 -9q-26 16 -51.5 36.5t-58.5 59.5t-57 84t-41 112.5t-17 143.5z" />
<glyph unicode="&#xaa;" horiz-adv-x="675" d="M65 986q6 58 64.5 230.5t92.5 220.5q7 14 27 14q100 0 140 -7q27 0 31 -21q5 -10 75 -212.5t72 -213.5q11 -22 17 -28h-1q-6 2 -6 0q0 -4 3.5 -8.5t8.5 -8.5l5 -3q0 -1 -2 -0.5l-4 1t-4 -0.5q-5 -5 1 -20t12 -21q-6 -14 -53 -27.5t-80 -3.5q-16 5 -27 19t-16 27.5 t-13.5 40.5t-14.5 43h-134l-17 -68q-19 -55 -102 -55q-86 0 -75 102zM273 1137l99 3l-44 184z" />
<glyph unicode="&#xab;" horiz-adv-x="1310" d="M82 433q0 21 14 31q25 21 89 70t141.5 107t79.5 59q-30 14 -92 60t-106 83q-99 84 -99 161q0 21 17 49.5t48 28.5q17 3 89.5 -45.5t146 -106t147 -116.5t74.5 -60q22 -14 22.5 -64t-18.5 -62q-12 -16 -97.5 -90.5t-192.5 -149t-150 -74.5q-23 0 -68 40t-45 79zM625 433 q0 22 13 31q24 21 89.5 70.5t141 106t80.5 59.5q-30 14 -92 60t-106 83q-99 84 -99 161q0 21 17 49.5t48 28.5q17 3 89.5 -45.5t146 -106t147 -116.5t74.5 -60q22 -14 22.5 -64t-18.5 -62q-12 -16 -98 -90.5t-193 -149t-150 -74.5q-23 0 -67.5 40t-44.5 79z" />
<glyph unicode="&#xac;" horiz-adv-x="1163" d="M82 694.5q-1 15.5 3 42t4 38.5q0 41 379 41q48 0 117.5 2t126 4t120 3.5t111 -1t88 -9t61.5 -20.5t21 -34q0 -59 -15.5 -193.5t-15.5 -239.5q0 -30 -13 -51.5t-29 -32t-44 -16t-44 -6t-44 -0.5q-44 0 -44 345q-41 4 -339.5 15t-329.5 19q-44 10 -70 24t-34 34t-9 35.5z " />
<glyph unicode="&#xad;" horiz-adv-x="768" d="M41 782q0 38 1.5 58t9 39.5t19 27.5t37 15t57 8.5t84.5 1.5h239q105 0 159.5 -13t70.5 -34.5t16 -61.5q0 -31 -9 -58t-32.5 -57t-76 -48t-128.5 -18l-198 -11q-249 -12 -249 151z" />
<glyph unicode="&#xae;" horiz-adv-x="1471" d="M3 727q0 150 58 285.5t156.5 234t234 156.5t285.5 58t285.5 -58t234 -156.5t156.5 -234t58 -285.5t-58 -285.5t-156.5 -234t-234 -156.5t-285.5 -58t-285.5 58t-234 156.5t-156.5 234t-58 285.5zM126 727q0 -125 48.5 -238t130 -194.5t194.5 -130t238 -48.5t238 48.5 t194.5 130t130 194.5t48.5 238t-48.5 238t-130 194.5t-194.5 130t-238 48.5t-238 -48.5t-194.5 -130t-130 -194.5t-48.5 -238zM352 433v253q0 71 3.5 126t14 114.5t28.5 103t48.5 84t72.5 64t102.5 36t136.5 8.5q3 0 -4.5 5t-2.5 5l68 -10q-62 31 -157 15l-7 -1 q117 23 217.5 -8.5t158.5 -104.5t58 -167t-60 -166t-135 -80q195 -162 195 -331q0 -38 -38.5 -63.5t-94.5 -25.5t-73.5 17t-32.5 86q-10 48 -54 104t-66 56q-35 6 -57 14.5t-27.5 15t-9 12t-5.5 6.5q-3 3 -4 0t0 -11.5t1 -9.5q-15 26 -24 17q-3 -3 -3 -10q-12 21 -21 21 q-3 -7 -11 11q-4 8 -6 16q-1 3 -4 -3q-6 -18 -6 -41v-212q0 -55 -28.5 -77t-67.5 -22q-30 0 -51.5 10.5t-31.5 23t-15.5 37.5t-6 39t-0.5 43zM557 855q1 -4 3 -2q16 11 54 11q35 0 66 -27.5t71 -27.5q32 0 58.5 30t26.5 72q0 44 -34 70t-82 26q-99 0 -145 -90 q-22 -41 -18 -62z" />
<glyph unicode="&#xaf;" horiz-adv-x="1163" d="M313.5 1642.5q-0.5 12.5 1.5 34t2 30.5q0 14 27.5 22.5t75 10t90 1.5t93.5 -2t66 -2q253 0 253 -41q0 -22 -2 -36.5t-9 -39.5t-27 -44t-51 -30q-69 -19 -224.5 -10t-229.5 31q-25 8 -40.5 19.5t-20 27.5t-5 28.5z" />
<glyph unicode="&#xb0;" horiz-adv-x="897" d="M133 1157q0 103 91.5 201.5t198.5 98.5q120 0 208.5 -69.5t88.5 -172.5q0 -57 -8.5 -105.5t-20 -78t-25.5 -52.5t-22 -31.5t-13 -12.5l12 9q62 61 77 185q6 47 4 100q6 0 10.5 -18t5.5 -36l1 -18q0 -31 -5.5 -66.5t-25 -83.5t-50.5 -85t-88 -63t-132 -26 q-131 0 -219 89.5t-88 234.5zM280 1130q0 -81 55 -122.5t122 -41.5q62 0 103 59.5t41 165.5q0 59 -44 99.5t-106 40.5q-81 0 -126 -62t-45 -139z" />
<glyph unicode="&#xb1;" horiz-adv-x="1163" d="M82 124q-1 15 3 40.5t4 36.5q0 45 491 45q67 0 143.5 -2t171.5 -7t156.5 -17t61.5 -29v-18.5v-21t-1 -19.5t-3 -21t-5.5 -18.5t-9 -18t-13.5 -14t-19 -12.5q-58 -30 -405 -35t-462 21q-44 8 -70 21.5t-34 33.5t-9 35zM82 830.5q-1 15.5 3 42t4 38.5q0 47 379 41 q-20 328 51 328q21 0 35 -1t40.5 -8.5t44.5 -22t37.5 -44t30.5 -71.5q13 -62 13 -184q393 -8 393 -51q0 -21 -1 -35t-8.5 -40.5t-22 -44.5t-44 -37.5t-71.5 -30.5q-67 -17 -259 -17q-9 -86 -28 -178q-8 -37 -20.5 -61t-25 -34.5t-30.5 -14.5t-31.5 -2.5t-34 4.5t-32.5 3 q-44 0 -44 293q-207 19 -266 34q-44 10 -70 24t-34 34t-9 35.5z" />
<glyph unicode="&#xb2;" horiz-adv-x="682" d="M-7 707q0 50 68.5 119t150 125.5t150 112.5t68.5 83q0 61 -51 61q-47 0 -110 -39t-105 -39q-72 0 -101 28t-29 78q0 89 86 152t204 63q89 0 155 -24t99 -56.5t53 -77t24 -73.5t4 -59q0 -56 -26 -107.5t-59 -86.5t-88 -71.5t-87 -53.5t-82 -40l11 -2q10 -2 28.5 -5 t42.5 -7.5t50.5 -11.5t53.5 -15.5t51 -20t43 -24.5t30 -30.5t11 -36.5q0 -24 -53 -45t-162 -30t-276 13q-65 9 -109.5 37.5t-44.5 82.5z" />
<glyph unicode="&#xb3;" horiz-adv-x="686" d="M-17 707q0 33 20 54.5t48 31t68.5 13t72.5 2.5t69.5 -3.5t49.5 -2.5q64 0 88 16.5t24 48.5q0 20 -20 37t-58.5 36.5t-47.5 25.5q-34 28 -34 58q0 17 15.5 35.5t34 33.5t34 38t15.5 47q0 18 -17 31.5t-44.5 21t-47 10.5t-38.5 5q-26 3 -50.5 10t-52.5 20.5t-44.5 38.5 t-16.5 57q0 14 5 25t14.5 18.5t19.5 13.5t25 9.5t26.5 5.5t27.5 2.5t24.5 1t21.5 0t14 -0.5q59 0 120.5 -14.5t117.5 -42.5t91.5 -77.5t35.5 -111.5q0 -70 -75 -160q72 -44 109.5 -99t37.5 -130q0 -105 -85.5 -183.5t-225.5 -78.5q-174 0 -273 41.5t-99 115.5z" />
<glyph unicode="&#xb4;" d="M570 1638q0 28 33.5 80.5t84 105.5t120.5 92.5t134 39.5q27 0 51.5 -11t41.5 -29t31 -40t22 -44.5t12 -41.5t3.5 -32.5t-4.5 -16.5q-72 -47 -220.5 -121t-212.5 -74q-18 0 -57 33t-39 59z" />
<glyph unicode="&#xb5;" horiz-adv-x="1177" d="M201 -96q0 128 19.5 541t35.5 456q26 92 171 92q143 0 143 -157q0 -21 -7 -139t-7 -144q0 -58 6.5 -98.5t15 -61.5t24 -32.5t27 -13.5t30.5 -2q24 0 43.5 12t31.5 28t20.5 44.5t12.5 47.5t6 52.5t2 44.5v37v259q0 61 44 97.5t126 36.5q45 0 91.5 -15.5t83.5 -51.5t37 -84 v-201q0 -102 -16.5 -189t-55 -164t-97 -131t-146.5 -85.5t-200 -31.5q-18 0 -47 -1.5t-52 -1.5q0 -34 -1 -70t-4.5 -95t-11.5 -108.5t-20 -96.5t-32.5 -74t-46.5 -27q-60 0 -102 16t-66 42t-37.5 70.5t-17 88.5t-3.5 110z" />
<glyph unicode="&#xb6;" horiz-adv-x="1276" d="M58 980q0 136 68 241t180.5 159t249.5 54q166 0 277 -51.5t182 -170t101.5 -301t30.5 -454.5v-245q0 -27 -0.5 -42.5t-2.5 -45t-6.5 -47.5t-12.5 -38t-21.5 -29.5t-31.5 -9.5h-28.5t-26.5 1.5t-26 4t-23 6.5t-21.5 11.5t-17.5 17t-15 24t-10.5 32t-7.5 40.5t-2 51v365 q0 118 -15 213t-35.5 147t-44 87t-39.5 46.5t-23 11.5q-14 0 12 -28q6 -6 5 -6q-2 0 -43 25t-49 23q-6 0 27.5 -31t67.5 -63t28 -33q-47 47 -91.5 77.5t-78.5 42.5t-64.5 13t-51.5 -8t-36 -22.5t-22.5 -28.5t-7.5 -29q0 -74 45.5 -95t163.5 -21q51 0 88.5 -88.5t49 -215 t5 -253t-44.5 -215t-98 -88.5q-45 0 -66 48.5t-21 120.5t3 157t6.5 157t-10.5 120.5t-49 48.5q-211 0 -329 76.5t-118 237.5z" />
<glyph unicode="&#xb7;" horiz-adv-x="525" d="M104 709q-1 26 0.5 84.5t1.5 73.5q0 65 174 65q24 0 50.5 -3t60.5 -11t55.5 -26.5t21.5 -44.5v-33v-37.5t-0.5 -35t-1.5 -37.5t-3 -32t-5 -31t-7 -23q-13 -31 -77.5 -46.5t-134 -9t-96.5 31.5q-19 18 -28.5 53.5t-10.5 61.5z" />
<glyph unicode="&#xb8;" horiz-adv-x="1314" d="M51 608q0 98 16.5 194t53 197t107.5 187t168 138q66 35 147 57t148.5 30.5t158.5 8t142.5 -3.5t133.5 -10q55 -5 82.5 -23t40.5 -59q7 -25 8.5 -73t-5.5 -107.5t-42 -102.5t-94 -44q-14 0 -44 -1q-75 -2 -116.5 -4t-117.5 -11.5t-121.5 -25t-103.5 -47.5t-90.5 -76.5 t-55.5 -113t-23 -155.5q0 -57 47.5 -98.5t116.5 -61.5t156.5 -31.5t156.5 -13t128 -1t60 0.5q62 -5 92.5 -40.5t30.5 -81.5q0 -33 -1.5 -53.5t-7 -53.5t-20.5 -57.5t-39 -40.5q-38 -25 -86.5 -31.5t-217.5 -6.5h-17q-7 -22 -14 -58q97 -10 146 -68.5t49 -129.5 q0 -123 -82 -198t-191 -75q-74 0 -126 22t-67 48t2 43q1 2 13 16t20.5 25.5t14 27t0.5 26.5q10 -9 16.5 -3.5t6.5 14.5q25 5 21 30q1 1 15 -14t40.5 -31t53.5 -16q46 0 58 41q8 37 -24.5 70.5t-115.5 52.5q-36 10 -36 58.5t18 105.5q3 13 5 20q-115 8 -203.5 28t-168.5 63.5 t-131.5 110t-81.5 169t-30 237.5z" />
<glyph unicode="&#xb9;" horiz-adv-x="423" d="M89 642v734q0 67 49.5 93.5t120.5 5.5q44 -11 66 -224.5t17.5 -421.5t-25.5 -204q-1 -5 -15.5 -14t-14.5 -14q-6 12 -19 -1l-2 -2q1 4 -4 3q-16 -1 -28 -13l-2 -4q-5 3 -16 0.5t-11 -7.5q-5 10 -26.5 13.5t-28.5 -2.5q0 5 -7.5 6.5t-12.5 -3.5q0 5 -9 9.5t-15 4.5 q0 5 -8.5 19t-8.5 22z" />
<glyph unicode="&#xba;" horiz-adv-x="815" d="M102 1171q0 62 38.5 127.5t101.5 109t127 43.5q113 0 193 -64t80 -162q0 -52 -7.5 -96.5t-17.5 -71.5t-22.5 -47.5t-20.5 -29t-14 -11.5l4 1q32 22 56 84q30 78 25 185q6 0 10.5 -17t5.5 -34l1 -17q0 -28 -5.5 -60.5t-23.5 -76t-46.5 -78t-80.5 -58.5t-120 -24 q-120 0 -202 83t-82 214zM239 1167q0 -68 44.5 -102t98.5 -34q51 0 85.5 51t34.5 137q0 48 -36.5 80t-86.5 32q-67 0 -103.5 -50.5t-36.5 -113.5z" />
<glyph unicode="&#xbb;" horiz-adv-x="1310" d="M80 696q-6 70 12 82q11 16 102.5 90.5t203.5 149t155 74.5q44 0 72.5 -48t26.5 -102q-24 -21 -90 -71t-140 -104.5t-81 -59.5q63 -29 198 -144q99 -84 99 -160q0 -162 -287 27q-93 61 -222 165q-17 13 -20 16q-23 15 -29 85zM652 712.5q13 43.5 34 58.5q13 18 90 92.5 t177 151.5t143 77q23 0 67.5 -40t44.5 -79q0 -7 -21 -33t-30 -32q-24 -21 -82 -63.5t-118 -85t-73 -52.5q47 -21 118.5 -60.5t103.5 -66.5q46 -39 60.5 -82t14.5 -95q0 -21 -17 -50t-48 -29q-17 -3 -89.5 45.5t-146 106t-147 116.5t-74.5 60q-20 17 -7 60.5z" />
<glyph unicode="&#xbc;" horiz-adv-x="1505" d="M89 642v734q0 67 49.5 93.5t120.5 5.5q44 -11 66 -224.5t17.5 -421.5t-25.5 -204q-1 -5 -15.5 -14t-14.5 -14q-6 12 -19 -1l-2 -2q1 4 -4 3q-16 -1 -28 -13l-2 -4q-5 3 -16 0.5t-11 -7.5q-5 10 -26.5 13.5t-28.5 -2.5q0 5 -7.5 6.5t-12.5 -3.5q0 5 -9 9.5t-15 4.5 q0 5 -8.5 19t-8.5 22zM244.5 172.5q23.5 75.5 85 199t117.5 228.5t123 223q50 86 89 149t92.5 139.5t96 124t87.5 77t79 22.5q32 -6 45.5 -10.5t15.5 -13.5t-4 -17.5t-15.5 -31.5t-14.5 -47q-15 -71 -454 -840q-21 -37 -56 -99q-74 -130 -102 -160q-36 -40 -91 -38 q-29 1 -92 14q-25 5 -1.5 80.5zM768 212q0 61 56.5 206t124.5 274t102 158q22 19 51 23.5t44.5 1.5t41.5 -11q5 -2 24.5 -7t32 -9t32.5 -10.5t33.5 -13.5t26.5 -15.5t19.5 -19t5.5 -21.5l14 -437h34q31 0 49 -29.5t17 -63.5t-8 -61q-4 -22 -89 -40l3 -140 q-3 -13 -68.5 -17.5t-129.5 5t-64 29.5q0 12 8.5 43.5t8.5 51.5q-58 -3 -157 -3q-84 0 -148 29.5t-64 76.5zM1048 331h106l17 290z" />
<glyph unicode="&#xbd;" horiz-adv-x="1505" d="M89 642v734q0 67 49.5 93.5t120.5 5.5q44 -11 66 -224.5t17.5 -421.5t-25.5 -204q-1 -5 -15.5 -14t-14.5 -14q-6 12 -19 -1l-2 -2q1 4 -4 3q-16 -1 -28 -13l-2 -4q-5 3 -16 0.5t-11 -7.5q-5 10 -26.5 13.5t-28.5 -2.5q0 5 -7.5 6.5t-12.5 -3.5q0 5 -9 9.5t-15 4.5 q0 5 -8.5 19t-8.5 22zM244.5 172.5q23.5 75.5 85 199t117.5 228.5t123 223q300 512 444 512q41 0 45.5 -33t-18.5 -87q-16 -43 -197 -374.5t-257 -465.5q-21 -37 -56 -99q-74 -130 -102 -160q-36 -40 -91 -38q-29 1 -92 14q-25 5 -1.5 80.5zM829 130q0 50 68.5 119 t150 125.5t150 112.5t68.5 83q0 61 -51 61q-47 0 -110 -39t-105 -39q-72 0 -101 28t-29 78q0 89 86.5 152t204.5 63q65 0 117.5 -12.5t86.5 -32t59 -47.5t38.5 -53.5t21 -56t9.5 -49.5t2 -39q0 -40 -13.5 -78.5t-33 -68t-52 -59.5t-59 -50t-66 -42.5t-61.5 -33.5t-56 -27 l10 -2q11 -2 29.5 -5t42.5 -7.5t50.5 -11.5t53.5 -15.5t51 -20t43 -24.5t30 -30.5t11 -36.5q0 -24 -53 -45t-162.5 -30t-276.5 13q-65 9 -109.5 37.5t-44.5 82.5z" />
<glyph unicode="&#xbe;" horiz-adv-x="1727" d="M-17 707q0 33 20 54.5t48 31t68.5 13t72.5 2.5t69.5 -3.5t49.5 -2.5q64 0 88 16.5t24 48.5q0 20 -20 37t-58.5 36.5t-47.5 25.5q-34 28 -34 58q0 17 15.5 35.5t34 33.5t34 38t15.5 47q0 18 -17 31.5t-44.5 21t-47 10.5t-38.5 5q-26 3 -50.5 10t-52.5 20.5t-44.5 38.5 t-16.5 57q0 14 5 25t14.5 18.5t19.5 13.5t25 9.5t26.5 5.5t27.5 2.5t24.5 1t21.5 0t14 -0.5q59 0 120.5 -14.5t117.5 -42.5t91.5 -77.5t35.5 -111.5q0 -70 -75 -160q72 -44 109.5 -99t37.5 -130q0 -105 -85.5 -183.5t-225.5 -78.5q-174 0 -273 41.5t-99 115.5zM496.5 172.5 q23.5 75.5 85.5 199.5t117.5 228t123.5 223q51 86 89.5 149t92 140t95.5 124t87 76.5t79 22.5q27 -5 40 -9.5t18.5 -9t2.5 -13.5t-8 -18.5t-13 -29t-12 -40.5q-15 -71 -454 -840q-21 -36 -55 -96l-40 -70t-32 -51t-28 -39t-26.5 -23t-29.5 -15t-34 -2.5t-43 2.5t-54 11 q-25 5 -1.5 80.5zM1021 212q0 61 56.5 206t124.5 274t102 158q22 19 50.5 23.5t44 1.5t41.5 -11q6 -2 24.5 -7t32 -9t33 -10.5t33 -13.5t27 -15.5t20 -19t5.5 -21.5l13 -437h34q31 0 49 -29.5t17 -63.5t-8 -61q-4 -22 -88 -40l3 -140q-3 -10 -40.5 -12t-81.5 2.5t-80.5 16.5 t-36.5 27q0 12 -3.5 35t-3.5 43q-58 -3 -157 -3q-84 0 -147.5 29.5t-63.5 76.5zM1300 331h106l17 290z" />
<glyph unicode="&#xbf;" horiz-adv-x="1020" d="M65 403q0 85 21.5 150.5t55.5 103.5t75 65t82 42.5t75 29t55.5 32t21.5 44.5q11 -10 32.5 -0.5t44.5 43t28 70.5q2 -21 16.5 -26.5t24.5 2.5q2 -7 10.5 -12t18 -1t12.5 20q38 -68 38 -140q0 -51 -29.5 -101.5t-72 -90t-84.5 -75t-71.5 -70t-29.5 -62.5q0 -31 36 -46.5 t96.5 -16.5t119.5 2.5t126.5 9.5t96.5 6q31 0 53 -40t22 -103q0 -131 -89 -212.5t-232 -81.5q-123 0 -228.5 38t-175.5 101.5t-109.5 146t-39.5 172.5zM335 1335q0 23 3 44.5t11 47.5t26.5 42t44.5 16q239 0 297 -51q39 -44 18.5 -135t-63.5 -138q-15 -16 -36 -25t-50.5 -12 t-52 -3.5t-62 1t-58.5 1.5q-78 0 -78 212z" />
<glyph unicode="&#xc0;" horiz-adv-x="1348" d="M68 116q0 177 76 561.5t153 646.5q14 49 39 77.5t70 35.5q270 44 546 17q36 -4 60 -14.5t36.5 -30.5t17 -33t9.5 -38q63 -266 129 -658.5t66 -563.5q0 -93 -51 -137t-113 -44q-29 0 -55.5 14.5t-47 35.5t-41 58.5t-34.5 68t-31.5 81t-26.5 81.5t-24.5 84t-22.5 75h-308 q-7 -22 -22.5 -75t-24.5 -84t-26.5 -81.5t-31.5 -81t-34.5 -68t-41 -58.5t-47 -35.5t-55.5 -14.5q-62 0 -113 44t-51 137zM258.5 1757.5q-0.5 13.5 3.5 32.5t12 41.5t22 44.5t31 40t41.5 29t51.5 11q64 0 134 -39.5t120.5 -92.5t84 -105.5t33.5 -80.5q0 -26 -39 -59t-57 -33 q-64 0 -212.5 74t-220.5 121q-4 3 -4.5 16.5zM580 696h178q7 0 -34 178.5t-55 214.5q-14 -36 -55 -214.5t-34 -178.5z" />
<glyph unicode="&#xc1;" horiz-adv-x="1348" d="M68 116q0 177 76 561.5t153 646.5q14 49 39 77.5t70 35.5q270 44 546 17q36 -4 60 -14.5t36.5 -30.5t17 -33t9.5 -38q63 -266 129 -658.5t66 -563.5q0 -93 -51 -137t-113 -44q-29 0 -55.5 14.5t-47 35.5t-41 58.5t-34.5 68t-31.5 81t-26.5 81.5t-24.5 84t-22.5 75h-308 q-7 -22 -22.5 -75t-24.5 -84t-26.5 -81.5t-31.5 -81t-34.5 -68t-41 -58.5t-47 -35.5t-55.5 -14.5q-62 0 -113 44t-51 137zM570 1638q0 28 33.5 80.5t84 105.5t120.5 92.5t134 39.5q27 0 51.5 -11t41.5 -29t31 -40t22 -44.5t12 -41.5t3.5 -32.5t-4.5 -16.5 q-72 -47 -220.5 -121t-212.5 -74q-18 0 -57 33t-39 59zM580 696h178q7 0 -34 178.5t-55 214.5q-14 -36 -55 -214.5t-34 -178.5z" />
<glyph unicode="&#xc2;" horiz-adv-x="1348" d="M68 116q0 177 76 561.5t153 646.5q14 49 39 77.5t70 35.5q270 44 546 17q36 -4 60 -14.5t36.5 -30.5t17 -33t9.5 -38q63 -266 129 -658.5t66 -563.5q0 -93 -51 -137t-113 -44q-29 0 -55.5 14.5t-47 35.5t-41 58.5t-34.5 68t-31.5 81t-26.5 81.5t-24.5 84t-22.5 75h-308 q-7 -22 -22.5 -75t-24.5 -84t-26.5 -81.5t-31.5 -81t-34.5 -68t-41 -58.5t-47 -35.5t-55.5 -14.5q-62 0 -113 44t-51 137zM321 1673q0 27 33.5 74t84 92.5t120.5 79t134 33.5q62 0 136 -29.5t130.5 -70.5t89.5 -88.5t19 -80.5q-17 -42 -54.5 -74t-64.5 -32q-40 0 -98.5 30.5 t-108 61.5t-66.5 31q-3 0 -113.5 -60t-146.5 -60q-18 0 -56.5 33.5t-38.5 59.5zM580 696h178q7 0 -34 178.5t-55 214.5q-14 -36 -55 -214.5t-34 -178.5z" />
<glyph unicode="&#xc3;" horiz-adv-x="1348" d="M68 116q0 177 76 561.5t153 646.5q14 49 39 77.5t70 35.5q270 44 546 17q36 -4 60 -14.5t36.5 -30.5t17 -33t9.5 -38q63 -266 129 -658.5t66 -563.5q0 -93 -51 -137t-113 -44q-29 0 -55.5 14.5t-47 35.5t-41 58.5t-34.5 68t-31.5 81t-26.5 81.5t-24.5 84t-22.5 75h-308 q-7 -22 -22.5 -75t-24.5 -84t-26.5 -81.5t-31.5 -81t-34.5 -68t-41 -58.5t-47 -35.5t-55.5 -14.5q-62 0 -113 44t-51 137zM311 1649q0 26 23 70.5t60 90t93 79t114 33.5q52 0 94.5 -15t65 -33t51.5 -33t58 -15q11 0 27 15.5t30.5 34t35.5 34t41 15.5q15 0 50 -31t35 -54 q0 -25 -25.5 -68.5t-66 -87t-99 -75.5t-116.5 -32q-46 0 -135 42.5t-104 42.5q-22 0 -42.5 -15.5t-34 -34t-32.5 -34t-38 -15.5q-15 0 -50 31.5t-35 54.5zM580 696h178q7 0 -34 178.5t-55 214.5q-14 -36 -55 -214.5t-34 -178.5z" />
<glyph unicode="&#xc4;" horiz-adv-x="1348" d="M68 116q0 177 76 561.5t153 646.5q14 49 39 77.5t70 35.5q270 44 546 17q36 -4 60 -14.5t36.5 -30.5t17 -33t9.5 -38q63 -266 129 -658.5t66 -563.5q0 -93 -51 -137t-113 -44q-29 0 -55.5 14.5t-47 35.5t-41 58.5t-34.5 68t-31.5 81t-26.5 81.5t-24.5 84t-22.5 75h-308 q-7 -22 -22.5 -75t-24.5 -84t-26.5 -81.5t-31.5 -81t-34.5 -68t-41 -58.5t-47 -35.5t-55.5 -14.5q-62 0 -113 44t-51 137zM328 1642v34q0 125 60.5 174t150.5 10q69 -26 95 -122q19 -71 2 -112q-8 -20 -22 -15q-1 -8 -19 -24t-18 -27q-7 25 -21 2l-6 -9q0 15 -19 3 q-21 -14 -26 -34q-2 9 -18 5t-16 -8q-5 18 -31 22.5t-41 -8.5q6 9 -7 13q-10 3 -17 -3q2 10 -8 18.5t-19 8.5q0 5 -10 31t-10 41zM580 696h178q7 0 -34 178.5t-55 214.5q-14 -36 -55 -214.5t-34 -178.5zM758 1642v34q0 125 59.5 174t151.5 10q69 -26 95 -122q19 -71 2 -112 q-8 -20 -22 -15q-1 -8 -20.5 -24t-19.5 -27q-2 10 -5.5 13t-6.5 0t-6 -8t-6 -12q0 15 -19 3q-21 -14 -26 -34q-2 9 -18 5t-16 -8q-5 18 -32 22.5t-40 -8.5q2 8 -7 12.5t-16 -2.5q2 10 -8.5 18.5t-19.5 8.5q0 5 -10 31t-10 41z" />
<glyph unicode="&#xc5;" horiz-adv-x="1348" d="M68 116q0 177 76 561.5t153 646.5q14 49 39 77.5t70 35.5q270 44 546 17q36 -4 60 -14.5t36.5 -30.5t17 -33t9.5 -38q63 -266 129 -658.5t66 -563.5q0 -93 -51 -137t-113 -44q-29 0 -55.5 14.5t-47 35.5t-41 58.5t-34.5 68t-31.5 81t-26.5 81.5t-24.5 84t-22.5 75h-308 q-7 -22 -22.5 -75t-24.5 -84t-26.5 -81.5t-31.5 -81t-34.5 -68t-41 -58.5t-47 -35.5t-55.5 -14.5q-62 0 -113 44t-51 137zM430 1744q0 74 67 144.5t145 70.5q62 0 107 -18t67.5 -41.5t35.5 -57t15.5 -54.5t2.5 -44q0 -25 -4 -51t-18 -60.5t-36.5 -60.5t-64 -44.5 t-95.5 -18.5q-94 0 -158 65t-64 170zM553 1724q0 -49 33.5 -74t72.5 -25q38 0 63.5 36t25.5 100q0 33 -26.5 57.5t-62.5 24.5q-50 0 -78 -36.5t-28 -82.5zM580 696h178q7 0 -34 178.5t-55 214.5q-14 -36 -55 -214.5t-34 -178.5z" />
<glyph unicode="&#xc6;" horiz-adv-x="1645" d="M31 116q0 162 74 501.5t103 420.5q47 166 108 256t157 130t254 40q308 0 406 -4q471 -22 471 -139q0 -37 -15 -65.5t-36.5 -47t-57.5 -31.5t-65.5 -19.5t-73.5 -10t-68 -4t-63 -0.5h-54q-34 0 -34 -34v-109q0 -18 11.5 -27.5t29.5 -9.5h99q249 0 249 -151 q0 -150 -249 -150h-99q-18 0 -29.5 -9.5t-11.5 -27.5v-280q0 -34 34 -34h54q39 0 63 -0.5t69 -4t74.5 -10t66 -19.5t58 -31.5t37 -47t15.5 -65.5q0 -48 -28 -72q-34 -25 -144 -40t-225 -18t-216.5 -4.5t-117.5 1.5h-3q-51 0 -70 105t-19 328h-307q-7 -22 -22.5 -75 t-24.5 -84t-26.5 -81.5t-31.5 -81t-34.5 -68t-41 -58.5t-47 -35.5t-55.5 -14.5q-62 0 -113 44t-51 137zM532 696h253q5 0 6.5 87.5t-2 184.5t-11.5 117q-37 145 -105 50q-61 -84 -112 -287q-22 -89 -29 -152z" />
<glyph unicode="&#xc7;" horiz-adv-x="1314" d="M51 608q0 98 16.5 194t53 197t107.5 187t168 138q66 35 147 57t148.5 30.5t158.5 8t142.5 -3.5t133.5 -10q55 -5 82.5 -23t40.5 -59q7 -25 8.5 -73t-5.5 -107.5t-42 -102.5t-94 -44q-14 0 -44 -1q-75 -2 -116.5 -4t-117.5 -11.5t-121.5 -25t-103.5 -47.5t-90.5 -76.5 t-55.5 -113t-23 -155.5q0 -57 47.5 -98.5t116.5 -61.5t156.5 -31.5t156.5 -13t128 -1t60 0.5q62 -5 92.5 -40.5t30.5 -81.5q0 -33 -1.5 -53.5t-7 -53.5t-20.5 -57.5t-39 -40.5q-38 -25 -86.5 -31.5t-217.5 -6.5h-17q-7 -22 -14 -58q97 -10 146 -68.5t49 -129.5 q0 -123 -82 -198t-191 -75q-74 0 -126 22t-67 48t2 43q1 2 13 16t20.5 25.5t14 27t0.5 26.5q10 -9 16.5 -3.5t6.5 14.5q25 5 21 30q1 1 15 -14t40.5 -31t53.5 -16q46 0 58 41q8 37 -24.5 70.5t-115.5 52.5q-36 10 -36 58.5t18 105.5q3 13 5 20q-115 8 -203.5 28t-168.5 63.5 t-131.5 110t-81.5 169t-30 237.5z" />
<glyph unicode="&#xc8;" horiz-adv-x="959" d="M65 420q0 224 8 383t28.5 284t52 201t83 126t116 69t156.5 19q7 0 59 0.5t74.5 0t71.5 -3.5t78.5 -9.5t65.5 -19t60 -30.5q27 -23 27 -71q0 -37 -15 -65.5t-36.5 -47t-57.5 -31.5t-65 -19.5t-73 -10t-68 -4t-63 -0.5h-55q-34 0 -34 -34v-109q0 -18 11.5 -28t29.5 -10h99 q249 0 249 -150t-249 -150h-99q-18 0 -29.5 -10t-11.5 -28v-279q0 -35 34 -35h55q40 0 63 -0.5t68.5 -4t74.5 -9.5t65.5 -19t58 -31.5t37 -47t15.5 -65.5q0 -49 -27 -72q-34 -25 -158 -40t-255 -18t-246.5 -4.5t-133.5 1.5h-3q-35 0 -48 81t-13 291zM258.5 1757.5 q-0.5 13.5 3.5 32.5t12 41.5t22 44.5t31 40t41.5 29t51.5 11q64 0 134 -39.5t120.5 -92.5t84 -105.5t33.5 -80.5q0 -26 -39 -59t-57 -33q-64 0 -212.5 74t-220.5 121q-4 3 -4.5 16.5z" />
<glyph unicode="&#xc9;" horiz-adv-x="959" d="M65 420q0 224 8 383t28.5 284t52 201t83 126t116 69t156.5 19q7 0 59 0.5t74.5 0t71.5 -3.5t78.5 -9.5t65.5 -19t60 -30.5q27 -23 27 -71q0 -37 -15 -65.5t-36.5 -47t-57.5 -31.5t-65 -19.5t-73 -10t-68 -4t-63 -0.5h-55q-34 0 -34 -34v-109q0 -18 11.5 -28t29.5 -10h99 q249 0 249 -150t-249 -150h-99q-18 0 -29.5 -10t-11.5 -28v-279q0 -35 34 -35h55q40 0 63 -0.5t68.5 -4t74.5 -9.5t65.5 -19t58 -31.5t37 -47t15.5 -65.5q0 -49 -27 -72q-34 -25 -158 -40t-255 -18t-246.5 -4.5t-133.5 1.5h-3q-35 0 -48 81t-13 291zM283 1638 q0 28 33.5 80.5t84 105.5t120.5 92.5t134 39.5q27 0 51.5 -11t41.5 -29t31 -40t22 -44.5t12 -41.5t3.5 -32.5t-4.5 -16.5q-72 -47 -220.5 -121t-212.5 -74q-18 0 -57 33t-39 59z" />
<glyph unicode="&#xca;" horiz-adv-x="959" d="M65 420q0 224 8 383t28.5 284t52 201t83 126t116 69t156.5 19q7 0 59 0.5t74.5 0t71.5 -3.5t78.5 -9.5t65.5 -19t60 -30.5q27 -23 27 -71q0 -37 -15 -65.5t-36.5 -47t-57.5 -31.5t-65 -19.5t-73 -10t-68 -4t-63 -0.5h-55q-34 0 -34 -34v-109q0 -18 11.5 -28t29.5 -10h99 q249 0 249 -150t-249 -150h-99q-18 0 -29.5 -10t-11.5 -28v-279q0 -35 34 -35h55q40 0 63 -0.5t68.5 -4t74.5 -9.5t65.5 -19t58 -31.5t37 -47t15.5 -65.5q0 -49 -27 -72q-34 -25 -158 -40t-255 -18t-246.5 -4.5t-133.5 1.5h-3q-35 0 -48 81t-13 291zM171 1673q0 27 33.5 74 t84 92.5t120.5 79t134 33.5q62 0 136 -29.5t130.5 -70.5t89.5 -88.5t19 -80.5q-17 -42 -54.5 -74t-64.5 -32q-40 0 -98.5 30.5t-108 61.5t-66.5 31q-3 0 -113.5 -60t-146.5 -60q-18 0 -56.5 33.5t-38.5 59.5z" />
<glyph unicode="&#xcb;" horiz-adv-x="959" d="M65 420q0 224 8 383t28.5 284t52 201t83 126t116 69t156.5 19q7 0 59 0.5t74.5 0t71.5 -3.5t78.5 -9.5t65.5 -19t60 -30.5q27 -23 27 -71q0 -37 -15 -65.5t-36.5 -47t-57.5 -31.5t-65 -19.5t-73 -10t-68 -4t-63 -0.5h-55q-34 0 -34 -34v-109q0 -18 11.5 -28t29.5 -10h99 q249 0 249 -150t-249 -150h-99q-18 0 -29.5 -10t-11.5 -28v-279q0 -35 34 -35h55q40 0 63 -0.5t68.5 -4t74.5 -9.5t65.5 -19t58 -31.5t37 -47t15.5 -65.5q0 -49 -27 -72q-34 -25 -158 -40t-255 -18t-246.5 -4.5t-133.5 1.5h-3q-35 0 -48 81t-13 291zM147 1642v34 q0 125 60.5 174t150.5 10q69 -26 95 -122q19 -71 2 -112q-8 -20 -22 -15q-1 -8 -19 -24t-18 -27q-7 25 -21 2l-6 -9q0 15 -19 3q-21 -14 -26 -34q-2 9 -18 5t-16 -8q-5 18 -31 22.5t-41 -8.5q6 9 -7 13q-10 3 -16 -3q2 10 -8.5 18.5t-19.5 8.5q0 5 -10 31t-10 41zM577 1642 v34q0 125 59.5 174t151.5 10q69 -26 95 -122q19 -71 3 -112q-8 -20 -22 -15q-1 -8 -21 -24t-20 -27q-2 10 -5.5 13t-6.5 0t-6 -8t-6 -12q0 15 -19 3q-21 -14 -26 -34q-2 9 -18 5t-16 -8q-5 18 -31.5 22.5t-39.5 -8.5q2 8 -7.5 12.5t-16.5 -2.5q2 10 -8.5 18.5t-19.5 8.5 q0 5 -10 31t-10 41z" />
<glyph unicode="&#xcc;" horiz-adv-x="587" d="M-134.5 1757.5q-0.5 13.5 3.5 32.5t12 41.5t22 44.5t31 40t41.5 29t51.5 11q64 0 134 -39.5t120.5 -92.5t84 -105.5t33.5 -80.5q0 -26 -38.5 -59t-56.5 -33q-64 0 -213 74.5t-221 120.5q-4 3 -4.5 16.5zM89 116v1239q0 110 80.5 154t199.5 10q44 -12 76 -164.5t44 -362 t14.5 -416.5t-9 -349t-30.5 -138q-3 -8 -27 -22t-24 -23q-11 26 -34 -6q2 12 -22 3q-30 -11 -36 -27q-5 7 -23 3t-18 -10q-7 15 -42 19.5t-50 -6.5q1 5 -4.5 8.5t-14 3.5t-15.5 -5q2 10 -12 17t-26 7q0 6 -13.5 29t-13.5 36z" />
<glyph unicode="&#xcd;" horiz-adv-x="587" d="M89 116v1239q0 110 80.5 154t199.5 10q44 -12 76 -164.5t44 -362t14.5 -416.5t-9 -349t-30.5 -138q-3 -8 -27 -22t-24 -23q-11 26 -34 -6q2 12 -22 3q-30 -11 -36 -27q-5 7 -23 3t-18 -10q-7 15 -42 19.5t-50 -6.5q1 5 -4.5 8.5t-14 3.5t-15.5 -5q2 10 -12 17t-26 7 q0 6 -13.5 29t-13.5 36zM119 1628q0 28 33.5 80.5t84.5 105.5t121 92.5t134 39.5q27 0 51.5 -11t41.5 -29t31 -40t22 -44.5t12 -41.5t3.5 -32.5t-4.5 -16.5q-72 -46 -221 -120.5t-213 -74.5q-18 0 -57 33t-39 59z" />
<glyph unicode="&#xce;" horiz-adv-x="587" d="M-96 1673q0 27 33.5 74t84 92.5t120.5 79t134 33.5q82 0 179.5 -47.5t156 -112.5t40.5 -109q-17 -42 -55 -74t-65 -32q-40 0 -98.5 30.5t-108 61.5t-66.5 31q-3 0 -113 -60t-146 -60q-18 0 -57 33.5t-39 59.5zM89 116v1239q0 110 80.5 154t199.5 10q44 -12 76 -164.5 t44 -362t14.5 -416.5t-9 -349t-30.5 -138q-3 -8 -27 -22t-24 -23q-11 26 -34 -6q2 12 -22 3q-30 -11 -36 -27q-5 7 -23 3t-18 -10q-7 15 -42 19.5t-50 -6.5q1 5 -4.5 8.5t-14 3.5t-15.5 -5q2 10 -12 17t-26 7q0 6 -13.5 29t-13.5 36z" />
<glyph unicode="&#xcf;" horiz-adv-x="587" d="M-82 1642v34q0 125 61 174t151 10q69 -26 95 -122q19 -71 2 -112q-8 -20 -22 -15q-1 -8 -19.5 -24t-18.5 -27q-3 10 -6 13t-7 -0.5t-6.5 -7t-7.5 -12.5q0 15 -19.5 2t-24.5 -33q-2 9 -18.5 5t-16.5 -8q-5 18 -30.5 22.5t-40.5 -8.5q6 9 -7 13q-10 4 -17 -3q2 10 -8 18.5 t-19 8.5q0 5 -10.5 31t-10.5 41zM89 116v1239q0 110 80.5 154t199.5 10q44 -12 76 -164.5t44 -362t14.5 -416.5t-9 -349t-30.5 -138q-3 -8 -27 -22t-24 -23q-11 26 -34 -6q2 12 -22 3q-30 -11 -36 -27q-5 7 -23 3t-18 -10q-7 15 -42 19.5t-50 -6.5q1 5 -4.5 8.5t-14 3.5 t-15.5 -5q2 10 -12 17t-26 7q0 6 -13.5 29t-13.5 36zM348 1642v34q0 125 60 174t152 10q69 -26 95 -122q19 -71 2 -112q-8 -20 -22 -15q-1 -8 -21 -24t-20 -27q-2 10 -5.5 13t-6.5 0t-6 -8t-6 -12q0 15 -19.5 2t-24.5 -33q-2 9 -18 5t-16 -8q-5 18 -32 22.5t-40 -8.5 q2 8 -7.5 12.5t-16.5 -2.5q2 10 -8 18.5t-19 8.5q0 5 -10.5 31t-10.5 41z" />
<glyph unicode="&#xd0;" horiz-adv-x="1314" d="M-85 652q0 31 1 49.5t6 36.5t13.5 27.5t23.5 17t36 11t53 5.5v392q0 119 62 186t170 67q83 0 175.5 -10.5t195.5 -34.5t199 -59t184 -88t153.5 -117.5t104.5 -151t39 -184.5q0 -303 -194 -464q-57 -49 -160.5 -92t-190 -64.5t-168 -38.5t-82.5 -17q-10 -3 2 2 q100 42 108 48q3 3 3 4q0 4 -40 -3t-94 -24t-85 -37q13 16 41.5 33t50 27.5t21.5 14.5q-1 7 -41 -14t-100 -49.5t-98 -32.5q-70 -11 -122.5 9t-80 61t-40.5 86t-13 93v168q-133 24 -133 143zM471 406q66 13 123.5 38.5t106 63.5t77 94.5t28.5 124.5q0 50 -34.5 94.5 t-84 73.5t-98.5 50.5t-83 30.5l-35 10v-194q137 -23 137 -99q0 -40 -37.5 -84.5t-99.5 -72.5v-130z" />
<glyph unicode="&#xd1;" horiz-adv-x="1512" d="M55 294q0 56 0.5 97t5 125t11.5 149.5t23 154t37.5 155.5t55.5 137t76.5 115.5t102.5 74.5t131 29q132 0 250.5 -146t265.5 -496v618q0 78 42.5 111t148.5 33q110 0 164 -12t54 -50v-921q0 -176 -63.5 -276t-198.5 -100q-72 0 -148.5 32.5t-165.5 118t-158 214.5 l-201 372q-2 -18 0 -298.5t4 -301.5q1 -13 7 -18.5t12.5 -4t10.5 8.5q0 -106 -69.5 -186t-182.5 -80q-52 0 -91.5 19.5t-62.5 51t-37 78.5t-19 93t-5 103zM403 1649q0 26 23 70.5t60 90t93 79t114 33.5q52 0 94.5 -15t65 -33t52 -33t58.5 -15q11 0 27 15.5t30.5 34t35 34 t40.5 15.5q15 0 50 -31t35 -54q0 -25 -25.5 -68.5t-66 -87t-99 -75.5t-116.5 -32q-46 0 -135 42.5t-104 42.5q-22 0 -42.5 -15.5t-34 -34t-32.5 -34t-38 -15.5q-15 0 -50 31.5t-35 54.5z" />
<glyph unicode="&#xd2;" horiz-adv-x="1399" d="M27 713q0 203 41 348t123.5 234.5t200.5 131t280 41.5q125 0 226 -48t166 -127.5t108.5 -187t62 -220t18.5 -233.5q0 -138 -40 -255.5t-105.5 -198t-152 -137t-178 -83t-183.5 -26.5q-130 0 -231.5 47.5t-163.5 122.5t-102 178t-55 203.5t-15 209.5zM258.5 1757.5 q-0.5 13.5 3.5 32.5t12 41.5t22 44.5t31 40t41.5 29t51.5 11q64 0 134 -39.5t120.5 -92.5t84 -105.5t33.5 -80.5q0 -26 -39 -59t-57 -33q-64 0 -212.5 74t-220.5 121q-4 3 -4.5 16.5zM345 724q0 -28 2 -56t8.5 -70t18 -77.5t33 -73.5t50 -65t72 -44t96.5 -17q62 0 112 22.5 t81 59t52 84t29.5 94.5t8.5 95q0 61 -4 112.5t-13.5 108t-28.5 99t-47 78t-71.5 54.5t-98.5 19q-155 -5 -227.5 -108.5t-72.5 -314.5z" />
<glyph unicode="&#xd3;" horiz-adv-x="1399" d="M27 707q0 203 41 348t123.5 234t200.5 130.5t280 41.5q125 0 226 -48t166 -127.5t108.5 -187t62 -220t18.5 -233.5q0 -138 -40 -255.5t-105.5 -198t-152 -137t-178 -83t-183.5 -26.5q-94 0 -173.5 24.5t-136.5 67t-102 102.5t-74 126t-47.5 143t-26 150t-7.5 149z M345 717q0 -28 2 -56t8.5 -70t18 -77.5t33 -73.5t50 -65t72 -44t96.5 -17q62 0 112 22.5t81 59t52 84t29.5 94.5t8.5 95q0 61 -4 112.5t-13.5 108t-28.5 99t-47 78t-71.5 54.5t-98.5 19q-155 -5 -227.5 -108.5t-72.5 -314.5zM570 1638q0 28 33.5 80.5t84 105.5t120.5 92.5 t134 39.5q27 0 51.5 -11t41.5 -29t31 -40t22 -44.5t12 -41.5t3.5 -32.5t-4.5 -16.5q-72 -47 -220.5 -121t-212.5 -74q-18 0 -57 33t-39 59z" />
<glyph unicode="&#xd4;" horiz-adv-x="1399" d="M27 713q0 203 41 348t123.5 234.5t200.5 131t280 41.5q125 0 226 -48t166 -127.5t108.5 -187t62 -220t18.5 -233.5q0 -138 -40 -255.5t-105.5 -198t-152 -137t-178 -83t-183.5 -26.5q-130 0 -231.5 47.5t-163.5 122.5t-102 178t-55 203.5t-15 209.5zM321 1673 q0 27 33.5 74t84 92.5t120.5 79t134 33.5q62 0 136 -29.5t130.5 -70.5t89.5 -88.5t19 -80.5q-17 -42 -54.5 -74t-64.5 -32q-40 0 -98.5 30.5t-108 61.5t-66.5 31q-3 0 -113.5 -60t-146.5 -60q-18 0 -56.5 33.5t-38.5 59.5zM345 724q0 -28 2 -56t8.5 -70t18 -77.5t33 -73.5 t50 -65t72 -44t96.5 -17q62 0 112 22.5t81 59t52 84t29.5 94.5t8.5 95q0 61 -4 112.5t-13.5 108t-28.5 99t-47 78t-71.5 54.5t-98.5 19q-155 -5 -227.5 -108.5t-72.5 -314.5z" />
<glyph unicode="&#xd5;" horiz-adv-x="1399" d="M27 724q0 203 41 348t123.5 234t200.5 130.5t280 41.5q125 0 226 -48t166 -127.5t108.5 -187t62 -220t18.5 -233.5q0 -138 -40 -255.5t-105.5 -198t-152 -137t-178 -83t-183.5 -26.5q-94 0 -173.5 24.5t-136.5 67t-102 102.5t-74 126t-47.5 143t-26 150t-7.5 149z M311 1649q0 26 23 70.5t60 90t93 79t114 33.5q52 0 94.5 -15t65 -33t51.5 -33t58 -15q11 0 27 15.5t30.5 34t35.5 34t41 15.5q15 0 50 -31t35 -54q0 -25 -25.5 -68.5t-66 -87t-99 -75.5t-116.5 -32q-46 0 -135 42.5t-104 42.5q-22 0 -42.5 -15.5t-34 -34t-32.5 -34 t-38 -15.5q-15 0 -50 31.5t-35 54.5zM345 734q0 -28 2 -56t8.5 -70t18 -77.5t33 -73.5t50 -65t72 -44t96.5 -17q62 0 112 22.5t81 59t52 84t29.5 94.5t8.5 95q0 61 -4 112.5t-13.5 108t-28.5 99t-47 78t-71.5 54.5t-98.5 19q-155 -5 -227.5 -108.5t-72.5 -314.5z" />
<glyph unicode="&#xd6;" horiz-adv-x="1399" d="M27 693q0 203 41 348t123.5 234t200.5 130.5t280 41.5q125 0 226 -48t166 -127.5t108.5 -187t62 -220t18.5 -233.5q0 -138 -40 -255.5t-105.5 -197.5t-152 -137t-178 -83t-183.5 -26q-130 0 -231.5 47.5t-163.5 122.5t-102 178t-55 203.5t-15 209.5zM328 1642v34 q0 125 60.5 174t150.5 10q69 -26 95 -122q19 -71 2 -112q-8 -20 -22 -15q-1 -8 -19 -24t-18 -27q-7 25 -21 2l-6 -9q0 15 -19 3q-21 -14 -26 -34q-2 9 -18 5t-16 -8q-5 18 -31 22.5t-41 -8.5q6 9 -7 13q-10 3 -17 -3q2 10 -8 18.5t-19 8.5q0 5 -10 31t-10 41zM345 703 q0 -28 2 -56t8.5 -70t18 -77.5t33 -73.5t50 -65t72 -44t96.5 -17q62 0 112 22.5t81 59t52 84t29.5 94.5t8.5 95q0 61 -4 112.5t-13.5 108t-28.5 99t-47 78t-71.5 54.5t-98.5 19q-155 -5 -227.5 -108.5t-72.5 -314.5zM758 1642v34q0 125 59.5 174t151.5 10q69 -26 95 -122 q19 -71 2 -112q-8 -20 -22 -15q-1 -8 -20.5 -24t-19.5 -27q-2 10 -5.5 13t-6.5 0t-6 -8t-6 -12q0 15 -19 3q-21 -14 -26 -34q-2 9 -18 5t-16 -8q-5 18 -32 22.5t-40 -8.5q2 8 -7 12.5t-16 -2.5q2 10 -8.5 18.5t-19.5 8.5q0 5 -10 31t-10 41z" />
<glyph unicode="&#xd7;" horiz-adv-x="1037" d="M114 993q7 21 17 34t30.5 32t29.5 30q26 26 302 -229q13 -11 19 -17q111 108 210 189t118 67q4 -3 14 -11.5t15 -12.5t14 -12t13.5 -14t11.5 -14.5t9.5 -16.5t5.5 -17.5t2.5 -20t-3.5 -21.5q-10 -56 -219 -290q312 -275 287 -314q-14 -16 -20.5 -22.5t-25.5 -22.5 t-36 -21t-42 -9.5t-55 3t-63 24.5q-66 29 -219 171q-108 -111 -212 -208q-34 -30 -61.5 -42.5t-49 -5t-34 16t-31 30.5t-25.5 28q-36 26 232 362q-131 142 -191 218q-28 37 -39 66t-4 50z" />
<glyph unicode="&#xd8;" horiz-adv-x="1399" d="M47 65q4 21 13.5 45.5t29.5 58t41 65.5t50 73q-89 178 -89 430q0 378 159.5 546t485.5 168q139 0 249 -58q68 76 122.5 117t82.5 36q78 -20 101 -61.5t5 -115.5q-3 -17 -113 -161q134 -205 134 -529q0 -130 -40 -241t-105.5 -186.5t-152 -129t-178 -78t-183.5 -24.5 q-186 0 -314 89q-66 -88 -116.5 -105t-149.5 10q-19 4 -27.5 17t-4.5 34zM410 748q0 -75 6 -113q186 280 359 505q-47 7 -65 7q-155 -5 -227.5 -102t-72.5 -297zM546 406q59 -37 143 -37q77 0 134.5 32t88.5 83.5t46 106.5t15 112q0 131 -21 215q-67 -86 -211 -265.5 t-195 -246.5z" />
<glyph unicode="&#xd9;" horiz-adv-x="1433" d="M39 1137.5q2 120.5 9 207.5q5 55 23 82.5t59 40.5q25 7 73 8.5t107.5 -5.5t102.5 -42t44 -94q0 -6 -3 -146t5.5 -269t35.5 -231q34 -126 109.5 -199.5t183.5 -73.5q49 0 87 48t59 127.5t35 172.5t18.5 191.5t5.5 176.5t0.5 135.5t-0.5 60.5q2 32 13.5 54.5t31 35.5 t36 19.5t42.5 13.5q52 15 118 -1.5t87 -67.5q18 -43 26.5 -139t10 -175t1.5 -235q0 -108 -5.5 -191.5t-22 -171t-44.5 -151.5t-74.5 -122t-110.5 -94.5t-154.5 -57.5t-203.5 -21q-77 0 -143 8.5t-136 31.5t-128 60t-112 97.5t-95 140.5q-38 84 -61 223.5t-27.5 285.5 t-2.5 266.5zM306.5 1757.5q-0.5 13.5 3.5 32.5t12 41.5t22 44.5t31 40t41.5 29t51.5 11q64 0 134 -39.5t120.5 -92.5t84 -105.5t33.5 -80.5q0 -26 -39 -59t-57 -33q-64 0 -212.5 74t-220.5 121q-4 3 -4.5 16.5z" />
<glyph unicode="&#xda;" horiz-adv-x="1433" d="M39 1137.5q2 120.5 9 207.5q5 55 23 82.5t59 40.5q25 7 73 8.5t107.5 -5.5t102.5 -42t44 -94q0 -6 -3 -146t5.5 -269t35.5 -231q34 -126 109.5 -199.5t183.5 -73.5q49 0 87 48t59 127.5t35 172.5t18.5 191.5t5.5 176.5t0.5 135.5t-0.5 60.5q2 32 13.5 54.5t31 35.5 t36 19.5t42.5 13.5q52 15 118 -1.5t87 -67.5q18 -43 26.5 -139t10 -175t1.5 -235q0 -108 -5.5 -191.5t-22 -171t-44.5 -151.5t-74.5 -122t-110.5 -94.5t-154.5 -57.5t-203.5 -21q-77 0 -143 8.5t-136 31.5t-128 60t-112 97.5t-95 140.5q-38 84 -61 223.5t-27.5 285.5 t-2.5 266.5zM570 1638q0 28 33.5 80.5t84 105.5t120.5 92.5t134 39.5q27 0 51.5 -11t41.5 -29t31 -40t22 -44.5t12 -41.5t3.5 -32.5t-4.5 -16.5q-72 -47 -220.5 -121t-212.5 -74q-18 0 -57 33t-39 59z" />
<glyph unicode="&#xdb;" horiz-adv-x="1433" d="M39 1137.5q2 120.5 9 207.5q5 55 23 82.5t59 40.5q25 7 73 8.5t107.5 -5.5t102.5 -42t44 -94q0 -6 -3 -146t5.5 -269t35.5 -231q34 -126 109.5 -199.5t183.5 -73.5q49 0 87 48t59 127.5t35 172.5t18.5 191.5t5.5 176.5t0.5 135.5t-0.5 60.5q2 32 13.5 54.5t31 35.5 t36 19.5t42.5 13.5q52 15 118 -1.5t87 -67.5q18 -43 26.5 -139t10 -175t1.5 -235q0 -108 -5.5 -191.5t-22 -171t-44.5 -151.5t-74.5 -122t-110.5 -94.5t-154.5 -57.5t-203.5 -21q-77 0 -143 8.5t-136 31.5t-128 60t-112 97.5t-95 140.5q-38 84 -61 223.5t-27.5 285.5 t-2.5 266.5zM369 1673q0 27 33.5 74t84 92.5t120.5 79t134 33.5q62 0 136 -29.5t130.5 -70.5t89.5 -88.5t19 -80.5q-17 -42 -54.5 -74t-64.5 -32q-40 0 -98.5 30.5t-108 61.5t-66.5 31q-3 0 -113.5 -60t-146.5 -60q-18 0 -56.5 33.5t-38.5 59.5z" />
<glyph unicode="&#xdc;" horiz-adv-x="1433" d="M39 1137.5q2 120.5 9 207.5q5 55 23 82.5t59 40.5q25 7 73 8.5t107.5 -5.5t102.5 -42t44 -94q0 -6 -3 -146t5.5 -269t35.5 -231q34 -126 109.5 -199.5t183.5 -73.5q49 0 87 48t59 127.5t35 172.5t18.5 191.5t5.5 176.5t0.5 135.5t-0.5 60.5q2 32 13.5 54.5t31 35.5 t36 19.5t42.5 13.5q52 15 118 -1.5t87 -67.5q18 -43 26.5 -139t10 -175t1.5 -235q0 -108 -5.5 -191.5t-22 -171t-44.5 -151.5t-74.5 -122t-110.5 -94.5t-154.5 -57.5t-203.5 -21q-77 0 -143 8.5t-136 31.5t-128 60t-112 97.5t-95 140.5q-38 84 -61 223.5t-27.5 285.5 t-2.5 266.5zM328 1642v34q0 125 60.5 174t150.5 10q69 -26 95 -122q19 -71 2 -112q-8 -20 -22 -15q-1 -8 -19 -24t-18 -27q-7 25 -21 2l-6 -9q0 15 -19 3q-21 -14 -26 -34q-2 9 -18 5t-16 -8q-5 18 -31 22.5t-41 -8.5q6 9 -7 13q-10 3 -17 -3q2 10 -8 18.5t-19 8.5 q0 5 -10 31t-10 41zM758 1642v34q0 125 59.5 174t151.5 10q69 -26 95 -122q19 -71 2 -112q-8 -20 -22 -15q-1 -8 -20.5 -24t-19.5 -27q-2 10 -5.5 13t-6.5 0t-6 -8t-6 -12q0 15 -19 3q-21 -14 -26 -34q-2 9 -18 5t-16 -8q-5 18 -32 22.5t-40 -8.5q2 8 -7 12.5t-16 -2.5 q2 10 -8.5 18.5t-19.5 8.5q0 5 -10 31t-10 41z" />
<glyph unicode="&#xdd;" horiz-adv-x="1119" d="M-72 1352q0 9 12 20.5t37 23t58 20.5t79.5 15t97.5 6q84 0 177 -107t212 -320q31 60 64 131.5t53 116.5t43.5 91t41 71.5t39.5 41.5t45 16q108 0 182 -49t74 -108q0 -20 -38 -122.5t-92.5 -226t-126 -233.5t-128.5 -135q0 -40 4.5 -97t9.5 -107t9.5 -105t3 -98 t-8.5 -78.5t-26.5 -55t-49.5 -19.5q-3 0 -24 -0.5t-40 -0.5t-48.5 0.5t-54.5 3t-54 6.5t-51 11.5t-41 17.5t-29 25t-10 33v430q0 60 -65.5 183.5t-144.5 239.5t-144.5 222.5t-65.5 136.5zM454 1638q0 28 33.5 80.5t84 105.5t120.5 92.5t134 39.5q27 0 51.5 -11t41.5 -29 t31 -40t22 -44.5t12 -41.5t3.5 -32.5t-4.5 -16.5q-72 -47 -220.5 -121t-212.5 -74q-18 0 -57 33t-39 59z" />
<glyph unicode="&#xde;" horiz-adv-x="1221" d="M96 184v1151q0 54 5.5 88.5t23 64.5t52 44t89.5 14q59 0 100.5 -19.5t61.5 -53.5t28 -67t8 -71v-41q147 0 267 -25.5t200.5 -68t135.5 -100.5t79.5 -121t24.5 -132q0 -157 -51 -272t-144.5 -182t-212 -98.5t-265.5 -31.5q-34 0 -34 -41v-38q0 -38 -8 -71t-28 -67 t-61.5 -53.5t-100.5 -19.5q-55 0 -89.5 14t-52 44t-23 64.5t-5.5 88.5zM464 621q85 0 136 3.5t99.5 14.5t73 32.5t39 57.5t14.5 90q0 32 -13 57t-30.5 41t-50.5 27t-58.5 16.5t-70 8.5t-69 3.5t-70.5 0.5v-352z" />
<glyph unicode="&#xdf;" horiz-adv-x="2017" d="M24 229q0 84 50 113t131 13q12 -5 73.5 -14t130.5 -1t69 49q0 30 -36 76.5t-87 101.5t-102 120t-87 152.5t-36 177.5q0 115 49 213t148 161t229 63q66 0 123 -9t107 -28t79 -54t29 -83q0 -78 -1.5 -119t-9.5 -67t-17.5 -30.5t-31 -1.5t-45 12.5t-65.5 17t-86 7.5 q-47 0 -78 -12t-31 -32q0 -41 36 -93t87 -107.5t102 -120t87 -152.5t36 -183q0 -195 -158 -317.5t-398 -122.5q-64 0 -120 12.5t-77.5 23t-34.5 19.5q-65 35 -65 215zM980 945q-12 72 4 149t61.5 150.5t113.5 131.5t171.5 93.5t225.5 35.5q70 0 137 -19t117 -64.5t50 -107.5 q0 -55 -25.5 -90t-66 -50t-89.5 -23t-98.5 -14t-90 -16.5t-66 -37t-25.5 -69.5q0 -20 39.5 -44t99.5 -47.5t132.5 -61.5t137 -82t115 -114t64.5 -153q8 -58 7 -115.5t-20 -112t-48 -103.5t-76.5 -89.5t-105 -70t-134 -46t-163.5 -16.5q-80 0 -155 10.5t-131 28.5t-96.5 39.5 t-57 45t-7.5 43.5q1 2 8.5 18.5t11.5 28t10.5 31t8.5 35t2.5 33t-6 32t-18.5 24.5q27 -15 41 -2t7 29q10 4 16.5 11.5t8.5 21.5t-11 32q2 2 21 -5t55.5 -19.5t83 -25.5t115.5 -22.5t141 -9.5q49 0 69.5 29t12.5 73q-5 29 -31.5 52t-65 38t-87 33.5t-99.5 36.5t-102 48.5 t-93 67.5t-74 96.5t-45 132.5z" />
<glyph unicode="&#xe0;" horiz-adv-x="1331" d="M10 256q11 139 157 567t229 556q16 25 32 31.5t40 6.5q35 -3 117.5 -6t147.5 -7t86 -8q62 -9 75 -48q10 -23 187 -542.5t179 -525.5q23 -56 40 -68q1 -4 -4 -1q-15 8 -16 6t0 -5q1 -9 9.5 -19.5t19 -20t12.5 -12.5q3 -4 -1 -2q-16 8 -20 2q-14 -10 1.5 -47t33.5 -55 q-14 -36 -131.5 -66t-199.5 -6q-31 10 -54 29.5t-40.5 54.5t-28 63.5t-27 83.5t-28.5 87h-334l-45 -164q-14 -43 -40 -72.5t-62 -44t-72.5 -20.5t-81.5 -6q-100 0 -147 66t-34 193zM258.5 1757.5q-0.5 13.5 3.5 32.5t12 41.5t22 44.5t31 40t41.5 29t51.5 11q64 0 134 -39.5 t120.5 -92.5t84 -105.5t33.5 -80.5q0 -26 -39 -59t-57 -33q-64 0 -212.5 74t-220.5 121q-4 3 -4.5 16.5zM529 631l246 7l-113 461z" />
<glyph unicode="&#xe1;" horiz-adv-x="1331" d="M10 256q11 139 157 567t229 556q16 25 32 31.5t40 6.5q35 -3 117.5 -6t147.5 -7t86 -8q62 -9 75 -48q10 -23 187 -542.5t179 -525.5q23 -56 40 -68q1 -4 -4 -1q-15 8 -16 6t0 -5q1 -9 9.5 -19.5t19 -20t12.5 -12.5q3 -4 -1 -2q-16 8 -20 2q-14 -10 1.5 -47t33.5 -55 q-14 -36 -131.5 -66t-199.5 -6q-31 10 -54 29.5t-40.5 54.5t-28 63.5t-27 83.5t-28.5 87h-334l-45 -164q-14 -43 -40 -72.5t-62 -44t-72.5 -20.5t-81.5 -6q-100 0 -147 66t-34 193zM529 631l246 7l-113 461zM570 1638q0 28 33.5 80.5t84 105.5t120.5 92.5t134 39.5 q27 0 51.5 -11t41.5 -29t31 -40t22 -44.5t12 -41.5t3.5 -32.5t-4.5 -16.5q-72 -47 -220.5 -121t-212.5 -74q-18 0 -57 33t-39 59z" />
<glyph unicode="&#xe2;" horiz-adv-x="1331" d="M10 256q11 139 157 567t229 556q16 25 32 31.5t40 6.5q35 -3 117.5 -6t147.5 -7t86 -8q62 -9 75 -48q10 -23 187 -542.5t179 -525.5q23 -56 40 -68q1 -4 -4 -1q-15 8 -16 6t0 -5q1 -9 9.5 -19.5t19 -20t12.5 -12.5q3 -4 -1 -2q-16 8 -20 2q-14 -10 1.5 -47t33.5 -55 q-14 -36 -131.5 -66t-199.5 -6q-31 10 -54 29.5t-40.5 54.5t-28 63.5t-27 83.5t-28.5 87h-334l-45 -164q-14 -43 -40 -72.5t-62 -44t-72.5 -20.5t-81.5 -6q-100 0 -147 66t-34 193zM273 1673q0 27 33.5 74t84 92.5t120.5 79t134 33.5q82 0 179.5 -47.5t156 -112.5t40.5 -109 q-17 -42 -55 -74t-65 -32q-40 0 -98.5 30.5t-108 61.5t-66.5 31q-3 0 -113 -60t-146 -60q-18 0 -57 33.5t-39 59.5zM529 631l246 7l-113 461z" />
<glyph unicode="&#xe3;" horiz-adv-x="1331" d="M10 256q11 139 157 567t229 556q16 25 32 31.5t40 6.5q35 -3 117.5 -6t147.5 -7t86 -8q62 -9 75 -48q10 -23 187 -542.5t179 -525.5q23 -56 40 -68q1 -4 -4 -1q-15 8 -16 6t0 -5q1 -9 9.5 -19.5t19 -20t12.5 -12.5q3 -4 -1 -2q-16 8 -20 2q-14 -10 1.5 -47t33.5 -55 q-14 -36 -131.5 -66t-199.5 -6q-31 10 -54 29.5t-40.5 54.5t-28 63.5t-27 83.5t-28.5 87h-334l-45 -164q-14 -43 -40 -72.5t-62 -44t-72.5 -20.5t-81.5 -6q-100 0 -147 66t-34 193zM273 1649q0 26 23 70.5t60 90t93 79t114 33.5q52 0 94.5 -15t65 -33t52 -33t58.5 -15 q11 0 27 15.5t30.5 34t35 34t40.5 15.5q15 0 50 -31t35 -54q0 -25 -25.5 -68.5t-66 -87t-99 -75.5t-116.5 -32q-46 0 -135 42.5t-104 42.5q-22 0 -42.5 -15.5t-34 -34t-32.5 -34t-38 -15.5q-15 0 -50 31.5t-35 54.5zM529 631l246 7l-113 461z" />
<glyph unicode="&#xe4;" horiz-adv-x="1331" d="M10 256q11 139 157 567t229 556q16 25 32 31.5t40 6.5q35 -3 117.5 -6t147.5 -7t86 -8q62 -9 75 -48q10 -23 187 -542.5t179 -525.5q23 -56 40 -68q1 -4 -4 -1q-15 8 -16 6t0 -5q1 -9 9.5 -19.5t19 -20t12.5 -12.5q3 -4 -1 -2q-16 8 -20 2q-14 -10 1.5 -47t33.5 -55 q-14 -36 -131.5 -66t-199.5 -6q-31 10 -54 29.5t-40.5 54.5t-28 63.5t-27 83.5t-28.5 87h-334l-45 -164q-14 -43 -40 -72.5t-62 -44t-72.5 -20.5t-81.5 -6q-100 0 -147 66t-34 193zM273 1642v34q0 125 61 174t151 10q69 -26 95 -122q19 -71 2 -112q-8 -20 -22 -15 q-1 -8 -19.5 -24t-18.5 -27q-7 25 -21 2l-6 -9q0 15 -19.5 2t-24.5 -33q-2 9 -18.5 5t-16.5 -8q-5 18 -30.5 22.5t-40.5 -8.5q6 9 -7 13q-10 3 -17 -3q2 10 -8 18.5t-19 8.5q0 5 -10.5 31t-10.5 41zM529 631l246 7l-113 461zM703 1642v34q0 125 60 174t152 10 q69 -26 95 -122q19 -71 2 -112q-8 -20 -22 -15q-1 -8 -21 -24t-20 -27q-2 10 -5.5 13t-6.5 0t-6 -8t-6 -12q0 15 -19.5 2t-24.5 -33q-2 9 -18 5t-16 -8q-5 18 -32 22.5t-40 -8.5q2 8 -7.5 12.5t-16.5 -2.5q2 10 -8 18.5t-19 8.5q0 5 -10.5 31t-10.5 41z" />
<glyph unicode="&#xe5;" horiz-adv-x="1331" d="M10 256q11 139 157 567t229 556q16 25 32 31.5t40 6.5q35 -3 117.5 -6t147.5 -7t86 -8q62 -9 75 -48q10 -23 187 -542.5t179 -525.5q23 -56 40 -68q1 -4 -4 -1q-15 8 -16 6t0 -5q1 -9 9.5 -19.5t19 -20t12.5 -12.5q3 -4 -1 -2q-16 8 -20 2q-14 -10 1.5 -47t33.5 -55 q-14 -36 -131.5 -66t-199.5 -6q-31 10 -54 29.5t-40.5 54.5t-28 63.5t-27 83.5t-28.5 87h-334l-45 -164q-14 -43 -40 -72.5t-62 -44t-72.5 -20.5t-81.5 -6q-100 0 -147 66t-34 193zM430 1744q0 74 67 144.5t145 70.5q62 0 107 -18t67.5 -41.5t35.5 -57t15.5 -54.5t2.5 -44 q0 -25 -4 -51t-18 -60.5t-36.5 -60.5t-64 -44.5t-95.5 -18.5q-94 0 -158 65t-64 170zM529 631l246 7l-113 461zM553 1724q0 -49 33.5 -74t72.5 -25q38 0 63.5 36t25.5 100q0 33 -26.5 57.5t-62.5 24.5q-50 0 -78 -36.5t-28 -82.5z" />
<glyph unicode="&#xe6;" horiz-adv-x="1645" d="M31 116q0 162 74 501.5t103 420.5q47 166 108 256t157 130t254 40q308 0 406 -4q471 -22 471 -139q0 -37 -15 -65.5t-36.5 -47t-57.5 -31.5t-65.5 -19.5t-73.5 -10t-68 -4t-63 -0.5h-54q-34 0 -34 -34v-109q0 -18 11.5 -27.5t29.5 -9.5h99q249 0 249 -151 q0 -150 -249 -150h-99q-18 0 -29.5 -9.5t-11.5 -27.5v-280q0 -34 34 -34h54q39 0 63 -0.5t69 -4t74.5 -10t66 -19.5t58 -31.5t37 -47t15.5 -65.5q0 -48 -28 -72q-34 -25 -144 -40t-225 -18t-216.5 -4.5t-117.5 1.5h-3q-51 0 -70 105t-19 328h-307q-7 -22 -22.5 -75 t-24.5 -84t-26.5 -81.5t-31.5 -81t-34.5 -68t-41 -58.5t-47 -35.5t-55.5 -14.5q-62 0 -113 44t-51 137zM532 696h253q5 0 6.5 87.5t-2 184.5t-11.5 117q-37 145 -105 50q-61 -84 -112 -287q-22 -89 -29 -152z" />
<glyph unicode="&#xe7;" horiz-adv-x="1314" d="M51 608q0 98 16.5 194t53 197t107.5 187t168 138q66 35 147 57t148.5 30.5t158.5 8t142.5 -3.5t133.5 -10q55 -5 82.5 -23t40.5 -59q7 -25 8.5 -73t-5.5 -107.5t-42 -102.5t-94 -44q-14 0 -44 -1q-75 -2 -116.5 -4t-117.5 -11.5t-121.5 -25t-103.5 -47.5t-90.5 -76.5 t-55.5 -113t-23 -155.5q0 -57 47.5 -98.5t116.5 -61.5t156.5 -31.5t156.5 -13t128 -1t60 0.5q62 -5 92.5 -40.5t30.5 -81.5q0 -33 -1.5 -53.5t-7 -53.5t-20.5 -57.5t-39 -40.5q-38 -25 -86.5 -31.5t-217.5 -6.5h-17q-7 -22 -14 -58q97 -10 146 -68.5t49 -129.5 q0 -123 -82 -198t-191 -75q-74 0 -126 22t-67 48t2 43q1 2 13 16t20.5 25.5t14 27t0.5 26.5q10 -9 16.5 -3.5t6.5 14.5q25 5 21 30q1 1 15 -14t40.5 -31t53.5 -16q46 0 58 41q8 37 -24.5 70.5t-115.5 52.5q-36 10 -36 58.5t18 105.5q3 13 5 20q-115 8 -203.5 28t-168.5 63.5 t-131.5 110t-81.5 169t-30 237.5z" />
<glyph unicode="&#xe8;" horiz-adv-x="1003" d="M44 198v23q-2 46 0 150t3.5 233.5t12.5 268.5t26.5 253.5t45.5 188.5t69 74h673q27 0 42 -0.5t40.5 -6t39 -15.5t24.5 -30.5t11 -49.5q0 -26 -1 -43.5t-7 -41t-16 -39t-29 -32.5t-46.5 -26.5t-68 -16t-92.5 -6.5h-245q-65 0 -77 -32.5t-10 -169.5q1 -24 1 -37h236 q22 0 41.5 -1t61.5 -7.5t70.5 -18t52 -36.5t23.5 -60q0 -24 -1 -38.5t-5 -42.5t-14.5 -46.5t-27.5 -38t-47 -29.5t-69 -10h-321v-198h215q169 0 253.5 -42.5t84.5 -117.5q0 -52 -43 -89t-111.5 -55t-132 -25.5t-126.5 -7.5q-134 0 -253 23t-201 74t-82 121zM258.5 1757.5 q-0.5 13.5 3.5 32.5t12 41.5t22 44.5t31 40t41.5 29t51.5 11q64 0 134 -39.5t120.5 -92.5t84 -105.5t33.5 -80.5q0 -26 -39 -59t-57 -33q-64 0 -212.5 74t-220.5 121q-4 3 -4.5 16.5z" />
<glyph unicode="&#xe9;" horiz-adv-x="1003" d="M44 198v23q-2 46 0 150t3.5 233.5t12.5 268.5t26.5 253.5t45.5 188.5t69 74h673q27 0 42 -0.5t40.5 -6t39 -15.5t24.5 -30.5t11 -49.5q0 -26 -1 -43.5t-7 -41t-16 -39t-29 -32.5t-46.5 -26.5t-68 -16t-92.5 -6.5h-245q-65 0 -77 -32.5t-10 -169.5q1 -24 1 -37h236 q22 0 41.5 -1t61.5 -7.5t70.5 -18t52 -36.5t23.5 -60q0 -24 -1 -38.5t-5 -42.5t-14.5 -46.5t-27.5 -38t-47 -29.5t-69 -10h-321v-198h215q169 0 253.5 -42.5t84.5 -117.5q0 -52 -43 -89t-111.5 -55t-132 -25.5t-126.5 -7.5q-134 0 -253 23t-201 74t-82 121zM413 1638 q0 28 33.5 80.5t84 105.5t120.5 92.5t134 39.5q27 0 51.5 -11t41.5 -29t31 -40t22 -44.5t12 -41.5t3.5 -32.5t-4.5 -16.5q-72 -47 -220.5 -121t-212.5 -74q-18 0 -57 33t-39 59z" />
<glyph unicode="&#xea;" horiz-adv-x="1003" d="M44 198v23q-2 46 0 150t3.5 233.5t12.5 268.5t26.5 253.5t45.5 188.5t69 74h673q27 0 42 -0.5t40.5 -6t39 -15.5t24.5 -30.5t11 -49.5q0 -26 -1 -43.5t-7 -41t-16 -39t-29 -32.5t-46.5 -26.5t-68 -16t-92.5 -6.5h-245q-65 0 -77 -32.5t-10 -169.5q1 -24 1 -37h236 q22 0 41.5 -1t61.5 -7.5t70.5 -18t52 -36.5t23.5 -60q0 -24 -1 -38.5t-5 -42.5t-14.5 -46.5t-27.5 -38t-47 -29.5t-69 -10h-321v-198h215q169 0 253.5 -42.5t84.5 -117.5q0 -52 -43 -89t-111.5 -55t-132 -25.5t-126.5 -7.5q-134 0 -253 23t-201 74t-82 121zM177 1673 q0 27 33.5 74t84.5 92.5t121 79t134 33.5q62 0 136 -29.5t130.5 -70.5t89.5 -88.5t19 -80.5q-17 -42 -54.5 -74t-64.5 -32q-40 0 -99 30.5t-108.5 61.5t-66.5 31q-3 0 -113 -60t-146 -60q-18 0 -57 33.5t-39 59.5z" />
<glyph unicode="&#xeb;" horiz-adv-x="1003" d="M44 198v23q-2 46 0 150t3.5 233.5t12.5 268.5t26.5 253.5t45.5 188.5t69 74h673q27 0 42 -0.5t40.5 -6t39 -15.5t24.5 -30.5t11 -49.5q0 -26 -1 -43.5t-7 -41t-16 -39t-29 -32.5t-46.5 -26.5t-68 -16t-92.5 -6.5h-245q-65 0 -77 -32.5t-10 -169.5q1 -24 1 -37h236 q22 0 41.5 -1t61.5 -7.5t70.5 -18t52 -36.5t23.5 -60q0 -24 -1 -38.5t-5 -42.5t-14.5 -46.5t-27.5 -38t-47 -29.5t-69 -10h-321v-198h215q169 0 253.5 -42.5t84.5 -117.5q0 -52 -43 -89t-111.5 -55t-132 -25.5t-126.5 -7.5q-134 0 -253 23t-201 74t-82 121zM177 1642v34 q0 125 61 174t151 10q69 -26 95 -122q19 -71 2 -112q-8 -20 -22 -15q-1 -8 -19 -24t-18 -27q-2 10 -5.5 13t-7.5 -0.5t-7 -7.5t-8 -12q0 15 -19.5 2t-24.5 -33q-2 9 -18 5t-16 -8q-5 18 -31 22.5t-41 -8.5q6 9 -7 13q-10 3 -17 -3q2 10 -8 18.5t-19 8.5q0 5 -10.5 31 t-10.5 41zM608 1642v34q0 125 59.5 174t151.5 10q69 -26 95 -122q19 -71 2 -112q-8 -20 -22 -15q-1 -8 -21 -24t-20 -27q-2 10 -5.5 13t-6.5 0t-6 -8t-6 -12q0 15 -19.5 2t-24.5 -33q-2 9 -18 5t-16 -8q-5 18 -32 22.5t-40 -8.5q2 8 -7.5 12.5t-16.5 -2.5q2 10 -8 18.5 t-19 8.5q0 5 -10 31t-10 41z" />
<glyph unicode="&#xec;" horiz-adv-x="587" d="M-158.5 1757.5q-0.5 13.5 3.5 32.5t12 41.5t22 44.5t31 40t41.5 29t51.5 11q64 0 134 -39.5t120.5 -92.5t84 -105.5t33.5 -80.5q0 -26 -38.5 -59t-56.5 -33q-64 0 -213 74.5t-221 120.5q-4 3 -4.5 16.5zM72 38q11 175 11 367.5t-5.5 425.5t-5.5 360q0 46 12.5 82.5 t30.5 59.5t47.5 40t54 25t60 12.5t56 5.5t49.5 1q31 0 52.5 -17t32.5 -53t16.5 -76.5t5.5 -102.5t-1.5 -115.5t-4 -131t-2.5 -133.5q0 -138 6.5 -291t12.5 -239t4 -155t-16 -93q-22 -36 -88 -48.5t-135.5 -12.5t-83.5 -7q1 5 -5.5 8.5t-16 3.5t-16.5 -5q2 10 -13 17t-28 7 q0 6 -15 29t-15 36z" />
<glyph unicode="&#xed;" horiz-adv-x="587" d="M72 38q11 175 11 367.5t-5.5 425.5t-5.5 360q0 46 12.5 82.5t30.5 59.5t47.5 40t54 25t60 12.5t56 5.5t49.5 1q31 0 52.5 -17t32.5 -53t16.5 -76.5t5.5 -102.5t-1.5 -115.5t-4 -131t-2.5 -133.5q0 -138 6.5 -291t12.5 -239t4 -155t-16 -93q-22 -36 -88 -48.5 t-135.5 -12.5t-83.5 -7q1 5 -5.5 8.5t-16 3.5t-16.5 -5q2 10 -13 17t-28 7q0 6 -15 29t-15 36zM157 1638q0 28 33.5 80.5t84 105.5t120.5 92.5t134 39.5q27 0 51.5 -11t41.5 -29t31 -40t22 -44.5t12 -41.5t3.5 -32.5t-4.5 -16.5q-72 -47 -220.5 -121t-212.5 -74 q-18 0 -57 33t-39 59z" />
<glyph unicode="&#xee;" horiz-adv-x="587" d="M-79 1673q0 27 33.5 74t84.5 92.5t121 79t134 33.5q62 0 136 -29.5t130.5 -70.5t89.5 -88.5t19 -80.5q-17 -42 -54.5 -74t-64.5 -32q-40 0 -99 30.5t-108.5 61.5t-66.5 31q-3 0 -113 -60t-146 -60q-18 0 -57 33.5t-39 59.5zM72 38q11 175 11 367.5t-5.5 425.5t-5.5 360 q0 46 12.5 82.5t30.5 59.5t47.5 40t54 25t60 12.5t56 5.5t49.5 1q31 0 52.5 -17t32.5 -53t16.5 -76.5t5.5 -102.5t-1.5 -115.5t-4 -131t-2.5 -133.5q0 -138 6.5 -291t12.5 -239t4 -155t-16 -93q-22 -36 -88 -48.5t-135.5 -12.5t-83.5 -7q1 5 -5.5 8.5t-16 3.5t-16.5 -5 q2 10 -13 17t-28 7q0 6 -15 29t-15 36z" />
<glyph unicode="&#xef;" horiz-adv-x="587" d="M-75 1642v34q0 125 61 174t151 10q69 -26 95 -122q19 -71 2 -112q-8 -20 -22 -15q-1 -8 -19.5 -24t-18.5 -27q-3 10 -6 13t-7 -0.5t-6.5 -7t-7.5 -12.5q0 15 -19 3q-21 -14 -26 -34q-2 9 -18 5t-16 -8q-5 18 -30.5 22.5t-40.5 -8.5q6 9 -7 13q-10 4 -17 -3 q2 10 -8.5 18.5t-19.5 8.5q0 5 -10 31t-10 41zM72 38q11 175 11 367.5t-5.5 425.5t-5.5 360q0 46 12.5 82.5t30.5 59.5t47.5 40t54 25t60 12.5t56 5.5t49.5 1q31 0 52.5 -17t32.5 -53t16.5 -76.5t5.5 -102.5t-1.5 -115.5t-4 -131t-2.5 -133.5q0 -138 6.5 -291t12.5 -239 t4 -155t-16 -93q-22 -36 -88 -48.5t-135.5 -12.5t-83.5 -7q1 5 -5.5 8.5t-16 3.5t-16.5 -5q2 10 -13 17t-28 7q0 6 -15 29t-15 36zM355 1642v34q0 125 60 174t152 10q69 -26 95 -122q19 -71 2 -112q-8 -20 -22 -15q-1 -8 -21 -24t-20 -27q-2 10 -5.5 13t-6.5 0t-6 -8t-6 -12 q0 15 -19 3q-21 -14 -26 -34q-2 9 -18 5t-16 -8q-5 18 -31.5 22.5t-39.5 -8.5q2 8 -7.5 12.5t-16.5 -2.5q2 10 -8.5 18.5t-19.5 8.5q0 5 -10 31t-10 41z" />
<glyph unicode="&#xf0;" horiz-adv-x="1170" d="M31 447q-16 212 140 330q119 90 289 95q151 4 245 -63q71 -51 77 -126q1 -21 -19 -35.5t-56.5 -20t-65 -7.5t-64.5 -2q-104 0 -152 -41.5t-43 -115.5q3 -51 50 -92t148 -41q30 0 64 12t56.5 23.5t23.5 11.5t-5 -6q-21 -27 -9 -28q6 0 22.5 11t39 37t41.5 61t30.5 89.5 t6.5 115.5q-1 12 -3.5 48.5t-3.5 48t-4.5 41t-7.5 42t-11.5 36t-17 38t-23 33t-31.5 34.5q-257 -113 -318 24q-20 46 -26.5 68t-2 43.5t25.5 38.5q-57 31 -83.5 66.5t-25 72.5t16.5 80q32 91 184 79t297 -113q79 31 126.5 36.5t68 -8t37.5 -45.5q46 -112 -34 -192 q136 -209 136 -447q0 -105 -19.5 -204t-64.5 -192.5t-111.5 -163t-169 -111.5t-229.5 -42q-120 0 -218.5 41t-162.5 109.5t-100.5 153t-43.5 177.5z" />
<glyph unicode="&#xf1;" horiz-adv-x="1529" d="M57.5 393q-0.5 94 0 156t1.5 165.5t4 179t8 156.5t14 137.5t21 85.5q3 9 13.5 -3t13.5 -4q4 8 9.5 6t10 -5.5t4.5 -0.5q9 47 56 88.5t115 41.5q70 0 139.5 -36.5t116.5 -120.5q1 -2 48.5 -86t86 -148t91 -146.5t94.5 -129t65 -46.5q8 0 14.5 10.5t11 32t7 47.5t4 63.5 t2.5 73t0.5 82.5t-0.5 85.5t-0.5 89t-0.5 86.5q0 112 56.5 167t192.5 55q125 0 177 -36t52 -101v-171q-5 -551 -99 -818t-253 -267q-155 0 -307.5 125.5t-333.5 396.5v-403q0 -47 -13 -80t-30 -49.5t-45 -25.5t-45.5 -10.5t-44.5 -1.5q-37 0 -65.5 3t-66.5 17t-63 39t-43 73 t-18 114q0 19 -0.5 113zM399 1649q0 26 23 70.5t60 90t93 79t114 33.5q52 0 94.5 -15t65 -33t52 -33t58.5 -15q11 0 27 15.5t30.5 34t35 34t40.5 15.5q15 0 50.5 -31t35.5 -54q0 -25 -25.5 -68.5t-66 -87t-99.5 -75.5t-117 -32q-46 0 -135 42.5t-104 42.5q-22 0 -42 -15.5 t-33.5 -34t-32.5 -34t-38 -15.5q-15 0 -50.5 31.5t-35.5 54.5z" />
<glyph unicode="&#xf2;" d="M-10 751q0 102 28 202.5t84.5 190t135.5 158t188.5 109t235.5 40.5q140 0 257.5 -37.5t199.5 -102t141.5 -151t89 -184t36.5 -201.5t-11 -202.5t-58.5 -189t-101.5 -158.5q65 52 118.5 169.5t71 256t-22.5 267.5q16 -39 23.5 -92t5.5 -116.5t-14 -131.5t-39.5 -137 t-66.5 -133.5t-99 -120.5t-133 -97.5t-172.5 -65.5t-214.5 -24q-135 0 -259 54t-218 150.5t-149.5 238.5t-55.5 308zM258.5 1757.5q-0.5 13.5 3.5 32.5t12 41.5t22 44.5t31 40t41.5 29t51.5 11q64 0 134 -39.5t120.5 -92.5t84 -105.5t33.5 -80.5q0 -26 -39 -59t-57 -33 q-64 0 -212.5 74t-220.5 121q-4 3 -4.5 16.5zM324 778q0 -73 22.5 -134.5t59.5 -102.5t85 -70t97 -42t98 -13q63 0 124 25.5t111.5 72t81.5 121t31 164.5q0 160 -103.5 254t-251.5 94q-105 0 -187.5 -54.5t-125 -138t-42.5 -176.5z" />
<glyph unicode="&#xf3;" d="M-10 751q0 102 28 202.5t84.5 190t135.5 158t188.5 109t235.5 40.5q140 0 257.5 -37.5t199.5 -102t141.5 -151t89 -184t36.5 -201.5t-11 -202.5t-58.5 -189t-101.5 -158.5q65 52 118.5 169.5t71 256t-22.5 267.5q16 -39 23.5 -92t5.5 -116.5t-14 -131.5t-39.5 -137 t-66.5 -133.5t-99 -120.5t-133 -97.5t-172.5 -65.5t-214.5 -24q-135 0 -259 54t-218 150.5t-149.5 238.5t-55.5 308zM324 778q0 -73 22.5 -134.5t59.5 -102.5t85 -70t97 -42t98 -13q63 0 124 25.5t111.5 72t81.5 121t31 164.5q0 160 -103.5 254t-251.5 94 q-105 0 -187.5 -54.5t-125 -138t-42.5 -176.5zM570 1638q0 28 33.5 80.5t84 105.5t120.5 92.5t134 39.5q27 0 51.5 -11t41.5 -29t31 -40t22 -44.5t12 -41.5t3.5 -32.5t-4.5 -16.5q-72 -47 -220.5 -121t-212.5 -74q-18 0 -57 33t-39 59z" />
<glyph unicode="&#xf4;" d="M-10 751q0 102 28 202.5t84.5 190t135.5 158t188.5 109t235.5 40.5q140 0 257.5 -37.5t199.5 -102t141.5 -151t89 -184t36.5 -201.5t-11 -202.5t-58.5 -189t-101.5 -158.5q65 52 118.5 169.5t71 256t-22.5 267.5q16 -39 23.5 -92t5.5 -116.5t-14 -131.5t-39.5 -137 t-66.5 -133.5t-99 -120.5t-133 -97.5t-172.5 -65.5t-214.5 -24q-135 0 -259 54t-218 150.5t-149.5 238.5t-55.5 308zM321 1673q0 27 33.5 74t84 92.5t120.5 79t134 33.5q62 0 136 -29.5t130.5 -70.5t89.5 -88.5t19 -80.5q-17 -42 -54.5 -74t-64.5 -32q-40 0 -98.5 30.5 t-108 61.5t-66.5 31q-3 0 -113.5 -60t-146.5 -60q-18 0 -56.5 33.5t-38.5 59.5zM324 778q0 -73 22.5 -134.5t59.5 -102.5t85 -70t97 -42t98 -13q63 0 124 25.5t111.5 72t81.5 121t31 164.5q0 160 -103.5 254t-251.5 94q-105 0 -187.5 -54.5t-125 -138t-42.5 -176.5z" />
<glyph unicode="&#xf5;" d="M-10 751q0 102 28 202.5t84.5 190t135.5 158t188.5 109t235.5 40.5q140 0 257.5 -37.5t199.5 -102t141.5 -151t89 -184t36.5 -201.5t-11 -202.5t-58.5 -189t-101.5 -158.5q65 52 118.5 169.5t71 256t-22.5 267.5q16 -39 23.5 -92t5.5 -116.5t-14 -131.5t-39.5 -137 t-66.5 -133.5t-99 -120.5t-133 -97.5t-172.5 -65.5t-214.5 -24q-135 0 -259 54t-218 150.5t-149.5 238.5t-55.5 308zM311 1649q0 26 23 70.5t60 90t93 79t114 33.5q52 0 94.5 -15t65 -33t51.5 -33t58 -15q11 0 27 15.5t30.5 34t35.5 34t41 15.5q15 0 50 -31t35 -54 q0 -25 -25.5 -68.5t-66 -87t-99 -75.5t-116.5 -32q-46 0 -135 42.5t-104 42.5q-22 0 -42.5 -15.5t-34 -34t-32.5 -34t-38 -15.5q-15 0 -50 31.5t-35 54.5zM324 778q0 -73 22.5 -134.5t59.5 -102.5t85 -70t97 -42t98 -13q63 0 124 25.5t111.5 72t81.5 121t31 164.5 q0 160 -103.5 254t-251.5 94q-105 0 -187.5 -54.5t-125 -138t-42.5 -176.5z" />
<glyph unicode="&#xf6;" d="M-10 751q0 102 28 202.5t84.5 190t135.5 158t188.5 109t235.5 40.5q140 0 257.5 -37.5t199.5 -102t141.5 -151t89 -184t36.5 -201.5t-11 -202.5t-58.5 -189t-101.5 -158.5q65 52 118.5 169.5t71 256t-22.5 267.5q16 -39 23.5 -92t5.5 -116.5t-14 -131.5t-39.5 -137 t-66.5 -133.5t-99 -120.5t-133 -97.5t-172.5 -65.5t-214.5 -24q-135 0 -259 54t-218 150.5t-149.5 238.5t-55.5 308zM324 778q0 -73 22.5 -134.5t59.5 -102.5t85 -70t97 -42t98 -13q63 0 124 25.5t111.5 72t81.5 121t31 164.5q0 160 -103.5 254t-251.5 94 q-105 0 -187.5 -54.5t-125 -138t-42.5 -176.5zM328 1642v34q0 125 60.5 174t150.5 10q69 -26 95 -122q19 -71 2 -112q-8 -20 -22 -15q-1 -8 -19 -24t-18 -27q-7 25 -21 2l-6 -9q0 15 -19 3q-21 -14 -26 -34q-2 9 -18 5t-16 -8q-5 18 -31 22.5t-41 -8.5q6 9 -7 13 q-10 3 -17 -3q2 10 -8 18.5t-19 8.5q0 5 -10 31t-10 41zM758 1642v34q0 125 59.5 174t151.5 10q69 -26 95 -122q19 -71 2 -112q-8 -20 -22 -15q-1 -8 -20.5 -24t-19.5 -27q-2 10 -5.5 13t-6.5 0t-6 -8t-6 -12q0 15 -19 3q-21 -14 -26 -34q-2 9 -18 5t-16 -8q-5 18 -32 22.5 t-40 -8.5q2 8 -7 12.5t-16 -2.5q2 10 -8.5 18.5t-19.5 8.5q0 5 -10 31t-10 41z" />
<glyph unicode="&#xf7;" horiz-adv-x="1163" d="M82 636.5q-1 15.5 3 42t4 38.5q0 17 47 27t127.5 12.5t152.5 2t159 -2.5t111 -2q151 0 289 -11t138 -40q0 -21 -1 -35t-8.5 -40.5t-22 -44.5t-44 -37.5t-71.5 -30.5q-120 -23 -383 -11.5t-388 39.5q-44 10 -70 24t-34 34t-9 35.5zM413.5 234q-0.5 20 1 54.5t1.5 49.5 q0 23 16.5 37t45.5 18t54 4.5t58 -2t41 -2.5q30 0 56 -4.5t50 -22t24 -45.5q0 -10 2 -52.5t1.5 -68.5t-8.5 -58.5t-26 -49.5q-41 -34 -136.5 -24t-139.5 45q-16 12 -25 30t-12 44.5t-3.5 46.5zM413.5 1032.5q-0.5 20.5 1 55t1.5 49.5q0 23 16.5 37t45.5 17.5t54 4t58 -2 t41 -2.5q21 0 41 -2.5t41.5 -9.5t34.5 -22t13 -37q0 -10 2 -52.5t1.5 -68.5t-8.5 -58.5t-26 -49.5q-41 -34 -136.5 -24.5t-139.5 44.5q-16 12 -25 30.5t-12 44.5t-3.5 46.5z" />
<glyph unicode="&#xf8;" d="M-10 751q0 116 58 241.5t150.5 226.5t217 166.5t246.5 65.5q229 0 379 -106q151 130 229 99q75 -28 93.5 -72t-8.5 -112q-17 -34 -92 -120q42 -64 75.5 -177t33.5 -212q0 -38 -2.5 -77.5t-11.5 -95.5t-24 -108.5t-41 -111.5t-60 -109.5t-85 -97t-113 -79.5t-146 -52.5 t-182 -19.5q-222 0 -393 109q-58 -58 -101 -84t-90 -25.5t-99 34.5q-54 34 102 260q-136 190 -136 457zM331 741q0 -75 34 -157q306 368 471 542q-62 28 -150 28q-70 0 -129.5 -25.5t-100.5 -67t-69.5 -95.5t-42 -111t-13.5 -114zM563 413q60 -27 137 -27q122 0 213.5 148 t93.5 367q-70 -73 -154.5 -165.5t-174 -193.5t-115.5 -129z" />
<glyph unicode="&#xf9;" horiz-adv-x="1563" d="M51 686q0 142 20 334.5t45 269.5q11 38 45 67t76 43t77 20.5t58 6.5q126 0 126 -239q0 -33 -13.5 -214.5t-13.5 -219.5q0 -88 14 -150.5t32.5 -94t48.5 -49t51 -20.5t52 -3q70 0 128 17.5t96.5 45t67.5 65.5t45 75t26 78t13 70t3 55v529q0 26 14.5 43t38.5 23t36.5 7.5 t26.5 1.5q50 0 104.5 -14t104.5 -40.5t82.5 -72t32.5 -101.5v-314q0 -155 -25.5 -288t-84 -250.5t-148 -199.5t-223.5 -129.5t-304 -47.5q-94 0 -185 25t-176 80t-149 134.5t-103 197.5t-39 259zM333.5 1757.5q-0.5 13.5 3.5 32.5t12 41.5t22 44.5t31 40t41.5 29t51.5 11 q64 0 134 -39.5t120.5 -92.5t84 -105.5t33.5 -80.5q0 -26 -39 -59t-57 -33q-64 0 -212.5 74t-220.5 121q-4 3 -4.5 16.5z" />
<glyph unicode="&#xfa;" horiz-adv-x="1433" d="M39 1137.5q2 120.5 9 207.5q5 55 23 82.5t59 40.5q25 7 73 8.5t107.5 -5.5t102.5 -42t44 -94q0 -6 -3 -146t5.5 -269t35.5 -231q34 -126 109.5 -199.5t183.5 -73.5q49 0 87 48t59 127.5t35 172.5t18.5 191.5t5.5 176.5t0.5 135.5t-0.5 60.5q2 32 13.5 54.5t31 35.5 t36 19.5t42.5 13.5q52 15 118 -1.5t87 -67.5q18 -43 26.5 -139t10 -175t1.5 -235q0 -108 -5.5 -191.5t-22 -171t-44.5 -151.5t-74.5 -122t-110.5 -94.5t-154.5 -57.5t-203.5 -21q-77 0 -143 8.5t-136 31.5t-128 60t-112 97.5t-95 140.5q-38 84 -61 223.5t-27.5 285.5 t-2.5 266.5zM614 1638q0 28 33.5 80.5t84 105.5t120.5 92.5t134 39.5q27 0 51.5 -11t41.5 -29t31 -40t22 -44.5t12 -41.5t3.5 -32.5t-4.5 -16.5q-72 -47 -220.5 -121t-212.5 -74q-18 0 -57 33t-39 59z" />
<glyph unicode="&#xfb;" horiz-adv-x="1563" d="M51 686q0 142 20 334.5t45 269.5q11 38 45 67t76 43t77 20.5t58 6.5q126 0 126 -239q0 -33 -13.5 -214.5t-13.5 -219.5q0 -88 14 -150.5t32.5 -94t48.5 -49t51 -20.5t52 -3q70 0 128 17.5t96.5 45t67.5 65.5t45 75t26 78t13 70t3 55v529q0 26 14.5 43t38.5 23t36.5 7.5 t26.5 1.5q50 0 104.5 -14t104.5 -40.5t82.5 -72t32.5 -101.5v-314q0 -155 -25.5 -288t-84 -250.5t-148 -199.5t-223.5 -129.5t-304 -47.5q-94 0 -185 25t-176 80t-149 134.5t-103 197.5t-39 259zM382 1673q0 27 33.5 74t84 92.5t120.5 79t134 33.5q82 0 179.5 -47.5 t156 -112.5t40.5 -109q-17 -42 -55 -74t-65 -32q-40 0 -98.5 30.5t-108 61.5t-66.5 31q-3 0 -113 -60t-146 -60q-18 0 -57 33.5t-39 59.5z" />
<glyph unicode="&#xfc;" horiz-adv-x="1563" d="M51 686q0 142 20 334.5t45 269.5q11 38 45 67t76 43t77 20.5t58 6.5q126 0 126 -239q0 -33 -13.5 -214.5t-13.5 -219.5q0 -88 14 -150.5t32.5 -94t48.5 -49t51 -20.5t52 -3q70 0 128 17.5t96.5 45t67.5 65.5t45 75t26 78t13 70t3 55v529q0 26 14.5 43t38.5 23t36.5 7.5 t26.5 1.5q50 0 104.5 -14t104.5 -40.5t82.5 -72t32.5 -101.5v-314q0 -155 -25.5 -288t-84 -250.5t-148 -199.5t-223.5 -129.5t-304 -47.5q-94 0 -185 25t-176 80t-149 134.5t-103 197.5t-39 259zM386 1642v34q0 125 60.5 174t150.5 10q69 -26 95 -122q19 -71 2 -112 q-8 -20 -22 -15q-1 -8 -19 -24t-18 -27q-7 25 -21 2l-6 -9q0 15 -19 3q-21 -14 -26 -34q-2 9 -18 5t-16 -8q-5 18 -31 22.5t-41 -8.5q6 9 -7 13q-10 3 -17 -3q2 10 -8 18.5t-19 8.5q0 5 -10 31t-10 41zM816 1642v34q0 125 59.5 174t151.5 10q69 -26 95 -122q19 -71 3 -112 q-8 -20 -22 -15q-1 -8 -21 -24t-20 -27q-2 10 -5.5 13t-6.5 0t-6 -8t-6 -12q0 15 -19 3q-21 -14 -26 -34q-2 9 -18 5t-16 -8q-5 18 -32 22.5t-40 -8.5q2 8 -7 12.5t-16 -2.5q2 10 -8.5 18.5t-19.5 8.5q0 5 -10 31t-10 41z" />
<glyph unicode="&#xfd;" horiz-adv-x="993" d="M-17 1266q0 22 0.5 29t8 27t23 34t48 35.5t80.5 45.5q37 19 75.5 14t67.5 -20t42 -32q91 -116 235 -372q47 29 138.5 136.5t100.5 177.5q11 72 73 104t149 9q9 -3 70 -38q38 -22 38 -9q-1 2 -2 6q8 -13 16.5 -34.5t13 -33t7.5 -7.5q20 -60 0 -136t-65.5 -146.5 t-102.5 -147.5t-108.5 -139.5t-87 -122t-35.5 -96.5v-458q-42 -63 -112.5 -90t-136 -15.5t-113.5 66t-48 138.5v30q0 118 -1.5 190t-13.5 172.5t-36 140.5q-15 26 -102 158t-154.5 244.5t-67.5 139.5zM372 1638q0 28 33.5 80.5t84 105.5t120.5 92.5t134 39.5q27 0 51.5 -11 t41.5 -29t31 -40t22 -44.5t12 -41.5t3.5 -32.5t-4.5 -16.5q-72 -47 -220.5 -121t-212.5 -74q-18 0 -57 33t-39 59z" />
<glyph unicode="&#xfe;" horiz-adv-x="1221" d="M96 184v1151q0 54 5.5 88.5t23 64.5t52 44t89.5 14q59 0 100.5 -19.5t61.5 -53.5t28 -67t8 -71v-41q147 0 267 -25.5t200.5 -68t135.5 -100.5t79.5 -121t24.5 -132q0 -157 -51 -272t-144.5 -182t-212 -98.5t-265.5 -31.5q-34 0 -34 -41v-38q0 -38 -8 -71t-28 -67 t-61.5 -53.5t-100.5 -19.5q-55 0 -89.5 14t-52 44t-23 64.5t-5.5 88.5zM464 621q85 0 136 3.5t99.5 14.5t73 32.5t39 57.5t14.5 90q0 32 -13 57t-30.5 41t-50.5 27t-58.5 16.5t-70 8.5t-69 3.5t-70.5 0.5v-352z" />
<glyph unicode="&#xff;" horiz-adv-x="993" d="M-17 1266q0 22 0.5 29t8 27t23 34t48 35.5t80.5 45.5q37 19 75.5 14t67.5 -20t42 -32q91 -116 235 -372q47 29 138.5 136.5t100.5 177.5q11 72 73 104t149 9q9 -3 70 -38q38 -22 38 -9q-1 2 -2 6q8 -13 16.5 -34.5t13 -33t7.5 -7.5q20 -60 0 -136t-65.5 -146.5 t-102.5 -147.5t-108.5 -139.5t-87 -122t-35.5 -96.5v-458q-42 -63 -112.5 -90t-136 -15.5t-113.5 66t-48 138.5v30q0 118 -1.5 190t-13.5 172.5t-36 140.5q-15 26 -102 158t-154.5 244.5t-67.5 139.5zM116 1642v34q0 125 61 174t151 10q69 -26 95 -122q19 -71 2 -112 q-8 -20 -22 -15q-1 -8 -19.5 -24t-18.5 -27q-7 25 -21 2l-6 -9q0 15 -19.5 2t-24.5 -33q-2 9 -18.5 5t-16.5 -8q-5 18 -30.5 22.5t-40.5 -8.5q6 9 -7 13q-10 3 -17 -3q2 10 -8 18.5t-19 8.5q0 5 -10.5 31t-10.5 41zM546 1642v34q0 125 60 174t152 10q69 -26 95 -122 q19 -71 2 -112q-8 -20 -22 -15q-1 -8 -21 -24t-20 -27q-2 10 -5.5 13t-6.5 0t-6 -8t-6 -12q0 15 -19.5 2t-24.5 -33q-2 9 -18.5 5t-16.5 -8q-5 18 -31.5 22.5t-39.5 -8.5q2 8 -7.5 12.5t-16.5 -2.5q2 10 -8 18.5t-19 8.5q0 5 -10.5 31t-10.5 41z" />
<glyph unicode="&#x152;" horiz-adv-x="1877" d="M92 782q0 180 44 308.5t140.5 217t251 131t373.5 42.5q61 0 198 -13.5t311 -13.5q10 0 59.5 0.5t74 0.5t72 -3.5t78 -9.5t66 -18.5t59.5 -30.5q28 -24 28 -72q0 -37 -15 -65.5t-36.5 -47t-57.5 -31.5t-65.5 -19.5t-73.5 -10t-68 -4t-63 -0.5h-55q-34 0 -34 -34v-109 q0 -18 11.5 -27.5t29.5 -9.5h99q249 0 249 -151q0 -150 -249 -150h-99q-18 0 -29.5 -9.5t-11.5 -27.5v-280q0 -34 34 -34h55q39 0 63 -0.5t68.5 -4t74 -10t66 -19.5t58.5 -31.5t37 -47t15 -65.5q0 -49 -27 -72q-27 -27 -238 -34.5t-430.5 -3t-379.5 -3.5q-118 0 -216 25 t-167.5 67t-123 102t-86.5 125.5t-53.5 143.5t-28.5 150t-8 149zM461 792q0 -38 9 -88.5t37.5 -117.5t71.5 -121t120 -92t175 -38q35 0 56 4t38.5 21t26 40.5t14 74.5t7 110t1.5 159q0 70 -0.5 112.5t-2.5 92t-5.5 77t-11 59.5t-16.5 47.5t-24 33.5t-32.5 24.5t-42.5 14 t-53.5 9t-67.5 1.5q-155 -5 -227.5 -108.5t-72.5 -314.5z" />
<glyph unicode="&#x153;" horiz-adv-x="1877" d="M92 782q0 180 44 308.5t140.5 217t251 131t373.5 42.5q61 0 198 -13.5t311 -13.5q10 0 59.5 0.5t74 0.5t72 -3.5t78 -9.5t66 -18.5t59.5 -30.5q28 -24 28 -72q0 -37 -15 -65.5t-36.5 -47t-57.5 -31.5t-65.5 -19.5t-73.5 -10t-68 -4t-63 -0.5h-55q-34 0 -34 -34v-109 q0 -18 11.5 -27.5t29.5 -9.5h99q249 0 249 -151q0 -150 -249 -150h-99q-18 0 -29.5 -9.5t-11.5 -27.5v-280q0 -34 34 -34h55q39 0 63 -0.5t68.5 -4t74 -10t66 -19.5t58.5 -31.5t37 -47t15 -65.5q0 -49 -27 -72q-27 -27 -238 -34.5t-430.5 -3t-379.5 -3.5q-118 0 -216 25 t-167.5 67t-123 102t-86.5 125.5t-53.5 143.5t-28.5 150t-8 149zM461 792q0 -38 9 -88.5t37.5 -117.5t71.5 -121t120 -92t175 -38q35 0 56 4t38.5 21t26 40.5t14 74.5t7 110t1.5 159q0 70 -0.5 112.5t-2.5 92t-5.5 77t-11 59.5t-16.5 47.5t-24 33.5t-32.5 24.5t-42.5 14 t-53.5 9t-67.5 1.5q-155 -5 -227.5 -108.5t-72.5 -314.5z" />
<glyph unicode="&#x178;" horiz-adv-x="1119" d="M-72 1352q0 9 12 20.5t37 23t58 20.5t79.5 15t97.5 6q84 0 177 -107t212 -320q31 60 64 131.5t53 116.5t43.5 91t41 71.5t39.5 41.5t45 16q108 0 182 -49t74 -108q0 -20 -38 -122.5t-92.5 -226t-126 -233.5t-128.5 -135q0 -40 4.5 -97t9.5 -107t9.5 -105t3 -98 t-8.5 -78.5t-26.5 -55t-49.5 -19.5q-3 0 -24 -0.5t-40 -0.5t-48.5 0.5t-54.5 3t-54 6.5t-51 11.5t-41 17.5t-29 25t-10 33v430q0 60 -65.5 183.5t-144.5 239.5t-144.5 222.5t-65.5 136.5zM208 1642v34q0 125 61 174t151 10q69 -26 95 -122q19 -71 2 -112q-8 -20 -22 -15 q-1 -8 -19.5 -24t-18.5 -27q-7 25 -21 2l-6 -9q0 15 -19.5 2t-24.5 -33q-2 9 -18 5t-16 -8q-5 18 -31 22.5t-41 -8.5q6 9 -7 13q-10 3 -17 -3q2 10 -8 18.5t-19 8.5q0 5 -10.5 31t-10.5 41zM638 1642v34q0 125 60 174t152 10q69 -26 95 -122q19 -71 2 -112q-8 -20 -22 -15 q-1 -8 -21 -24t-20 -27q-2 10 -5.5 13t-6.5 0t-6 -8t-6 -12q0 15 -19.5 2t-24.5 -33q-2 9 -18 5t-16 -8q-5 18 -32 22.5t-40 -8.5q2 8 -7.5 12.5t-16.5 -2.5q2 10 -8 18.5t-19 8.5q0 5 -10.5 31t-10.5 41z" />
<glyph unicode="&#x2c6;" d="M321 1673q0 27 33.5 74t84 92.5t120.5 79t134 33.5q62 0 136 -29.5t130.5 -70.5t89.5 -88.5t19 -80.5q-17 -42 -54.5 -74t-64.5 -32q-40 0 -98.5 30.5t-108 61.5t-66.5 31q-3 0 -113.5 -60t-146.5 -60q-18 0 -56.5 33.5t-38.5 59.5z" />
<glyph unicode="&#x2dc;" d="M311 1649q0 26 23 70.5t60 90t93 79t114 33.5q52 0 94.5 -15t65 -33t51.5 -33t58 -15q11 0 27 15.5t30.5 34t35.5 34t41 15.5q15 0 50 -31t35 -54q0 -25 -25.5 -68.5t-66 -87t-99 -75.5t-116.5 -32q-46 0 -135 42.5t-104 42.5q-22 0 -42.5 -15.5t-34 -34t-32.5 -34 t-38 -15.5q-15 0 -50 31.5t-35 54.5z" />
<glyph unicode="&#x2000;" horiz-adv-x="979" />
<glyph unicode="&#x2001;" horiz-adv-x="1959" />
<glyph unicode="&#x2002;" horiz-adv-x="979" />
<glyph unicode="&#x2003;" horiz-adv-x="1959" />
<glyph unicode="&#x2004;" horiz-adv-x="653" />
<glyph unicode="&#x2005;" horiz-adv-x="489" />
<glyph unicode="&#x2006;" horiz-adv-x="326" />
<glyph unicode="&#x2007;" horiz-adv-x="326" />
<glyph unicode="&#x2008;" horiz-adv-x="244" />
<glyph unicode="&#x2009;" horiz-adv-x="391" />
<glyph unicode="&#x200a;" horiz-adv-x="108" />
<glyph unicode="&#x2010;" horiz-adv-x="768" d="M41 782q0 38 1.5 58t9 39.5t19 27.5t37 15t57 8.5t84.5 1.5h239q105 0 159.5 -13t70.5 -34.5t16 -61.5q0 -31 -9 -58t-32.5 -57t-76 -48t-128.5 -18l-198 -11q-249 -12 -249 151z" />
<glyph unicode="&#x2011;" horiz-adv-x="768" d="M41 782q0 38 1.5 58t9 39.5t19 27.5t37 15t57 8.5t84.5 1.5h239q105 0 159.5 -13t70.5 -34.5t16 -61.5q0 -31 -9 -58t-32.5 -57t-76 -48t-128.5 -18l-198 -11q-249 -12 -249 151z" />
<glyph unicode="&#x2012;" horiz-adv-x="768" d="M41 782q0 38 1.5 58t9 39.5t19 27.5t37 15t57 8.5t84.5 1.5h239q105 0 159.5 -13t70.5 -34.5t16 -61.5q0 -31 -9 -58t-32.5 -57t-76 -48t-128.5 -18l-198 -11q-249 -12 -249 151z" />
<glyph unicode="&#x2013;" horiz-adv-x="1706" d="M160 730v14v14v32t3.5 32t10.5 34t21.5 29t35 25t53 15.5t74.5 6.5h1004q42 0 74 -2t53 -6.5t35 -10.5t21.5 -14t11 -17.5t3.5 -20.5v-24v-14q0 -28 -19.5 -59t-58.5 -62t-111.5 -51t-165.5 -20h-847q-59 0 -97.5 5.5t-59 11.5t-30 22t-10.5 26t-1 34z" />
<glyph unicode="&#x2014;" horiz-adv-x="3413" d="M109 847q0 36 18 53t70 24.5t161 7.5h2680q39 0 69.5 -5.5t50 -13.5t33 -23t20 -26t9.5 -31t3.5 -30.5t-0.5 -31t-1 -27.5q0 -8 1 -24t0.5 -22.5t-3 -18.5t-9.5 -17t-20 -12.5t-33.5 -10.5t-50 -5.5t-69.5 -2.5h-2680q-61 0 -108 16.5t-73 40t-42 54.5t-21 56t-5 49z" />
<glyph unicode="&#x2018;" horiz-adv-x="549" d="M85 1382q0 26 21.5 44.5t55 27t60.5 11.5t51 3q174 0 174 -65q0 -15 1.5 -73.5t0.5 -84.5t-10.5 -61.5t-28.5 -53.5q-12 -11 -37.5 -17t-52.5 -8t-57 -11t-53 -25t-38 -52t-15 -89q-33 38 -52.5 199.5t-19.5 254.5z" />
<glyph unicode="&#x2019;" horiz-adv-x="549" d="M96.5 1277.5q-0.5 24.5 1 65.5t1.5 60q0 65 174 65q24 0 51 -3t60.5 -11.5t55 -27t21.5 -44.5q0 -93 -19.5 -254.5t-52.5 -199.5q0 53 -15 89t-38 52t-52.5 25t-56.5 11t-52.5 8t-37.5 17q-16 15 -25 37t-12 54t-3.5 56.5z" />
<glyph unicode="&#x201a;" horiz-adv-x="549" d="M85 338q0 26 21.5 44.5t55.5 26.5t60.5 11t50.5 3q174 0 174 -65q0 -15 1.5 -73.5t0.5 -84.5t-10.5 -61.5t-28.5 -53.5q-14 -13 -47 -18.5t-66.5 -10.5t-66 -18.5t-53 -52t-20.5 -101.5q-33 38 -52.5 199.5t-19.5 254.5z" />
<glyph unicode="&#x201c;" horiz-adv-x="1044" d="M85 1341q0 41 21.5 68.5t55.5 39t60 15.5t51 4q144 0 174 -65q9 -20 12 -53.5t-5 -74t-26 -76t-58.5 -59.5t-96.5 -24q-20 0 -40 -47t-39 -94t-37 -47q-15 0 -32 58t-28.5 155.5t-11.5 199.5zM580 1341q0 41 21.5 68.5t55.5 39t60 15.5t51 4q174 0 174 -65 q0 -15 1.5 -73.5t0.5 -84.5t-10.5 -61.5t-28.5 -53.5q-12 -11 -37.5 -17t-52.5 -8t-57 -11t-53 -25t-38 -52t-15 -89q-33 37 -52.5 193t-19.5 220z" />
<glyph unicode="&#x201d;" horiz-adv-x="1044" d="M99.5 1277.5q-0.5 24.5 1 65.5t1.5 60q0 65 174 65q25 0 51 -4t60 -15.5t55.5 -39t21.5 -68.5q0 -65 -19.5 -220.5t-51.5 -192.5q0 53 -15 89t-38 52t-53 25t-57 11t-52.5 8t-37.5 17q-16 15 -25 37t-12 54t-3.5 56.5zM585 1349.5q3 33.5 12 53.5q30 65 174 65 q25 0 51 -4t60 -15.5t55.5 -39t21.5 -68.5q0 -102 -11.5 -199.5t-28.5 -155.5t-32 -58q-18 0 -37 47t-39 94t-40 47q-56 0 -96.5 24t-58.5 59.5t-26 76t-5 74z" />
<glyph unicode="&#x201e;" horiz-adv-x="1044" d="M85 297q0 40 21.5 68t56 39t60 15t50.5 4q144 0 174 -65q9 -20 12 -53.5t-5 -74t-26 -75.5t-58.5 -59t-96.5 -24q-20 0 -40 -47t-39 -94t-37 -47q-15 0 -32 58t-28.5 155.5t-11.5 199.5zM580 297q0 40 21.5 68t56 39t60 15t50.5 4q174 0 174 -65q0 -15 1.5 -73.5 t0.5 -84.5t-10.5 -61.5t-28.5 -53.5q-14 -13 -47 -18.5t-66.5 -10.5t-66 -18.5t-53 -52t-20.5 -101.5q-33 37 -52.5 193t-19.5 220z" />
<glyph unicode="&#x2022;" horiz-adv-x="740" d="M150 689q0 96 69.5 166t149.5 70q58 0 113 -21.5t97 -67t48 -115t-33 -165.5q-27 -60 -84.5 -88t-127.5 -28t-125.5 45.5t-81 101.5t-25.5 102z" />
<glyph unicode="&#x2026;" horiz-adv-x="1897" d="M104 200q-1 26 0.5 84.5t1.5 73.5q0 28 16.5 44.5t45 21t53.5 5t56.5 -2.5t39.5 -3q23 0 45 -3t48 -11t42 -26.5t16 -44.5q0 -10 1 -49t0 -61t-4 -55t-12 -57.5t-23 -40.5q-40 -42 -142 -36t-145 46q-19 18 -28.5 53.5t-10.5 61.5zM720.5 198q1.5 118 40.5 160 q18 19 55.5 27.5t69.5 8.5t87.5 -2.5t77.5 -2.5q28 0 44.5 -16.5t21 -45.5t5 -54t-2.5 -57t-3 -39q0 -23 -3 -44.5t-11 -47.5t-26.5 -42t-44.5 -16q-18 0 -84 -8t-113 -4.5t-73 26.5q-42 39 -40.5 157zM1388.5 143q-0.5 46 0.5 61.5t4.5 51t12.5 57.5t24 39q40 42 140 39 t143 -43q16 -15 25 -37t12 -54t3.5 -56.5t-1 -65.5t-1.5 -60q0 -28 -16.5 -44.5t-45.5 -21t-54 -5t-57 2.5t-39 3q-22 0 -44.5 3t-48 11.5t-41.5 27t-16 44.5q0 1 -0.5 47z" />
<glyph unicode="&#x202f;" horiz-adv-x="391" />
<glyph unicode="&#x2039;" horiz-adv-x="733" d="M94 716.5q0 48.5 19 61.5q12 16 97.5 90.5t192.5 149t150 74.5q23 0 68 -40t45 -79q0 -21 -14 -31q-24 -21 -90 -71t-140 -104.5t-81 -59.5q63 -29 198 -144q99 -84 99 -160q0 -21 -17 -50t-48 -29q-17 -3 -89.5 45.5t-146 106t-147 116.5t-74.5 60q-22 16 -22 64.5z" />
<glyph unicode="&#x203a;" horiz-adv-x="733" d="M85 433q0 21 14 31q24 21 89.5 70.5t141 106t80.5 59.5q-30 14 -92 60t-106 83q-99 84 -99 161q0 21 16.5 49.5t47.5 28.5q17 3 89.5 -45.5t146 -106t147.5 -116.5t75 -60q22 -16 22 -64.5t-19 -61.5q-12 -16 -97.5 -90.5t-192.5 -149t-150 -74.5q-23 0 -68 40t-45 79z " />
<glyph unicode="&#x205f;" horiz-adv-x="489" />
<glyph unicode="&#x20ac;" horiz-adv-x="1037" d="M-51 857q0 44 61 70.5t137 24.5h3q37 110 99 202.5t148 164t201.5 112t248.5 40.5q67 0 102 -20t48 -62q7 -24 8 -50.5t-6 -60t-35.5 -59.5t-76.5 -35q-142 -27 -227.5 -80t-127.5 -152q342 6 342 -58q0 -69 -26.5 -106t-106.5 -37q-31 0 -115.5 -1.5t-133.5 -1.5v-76 q96 4 232 4q74 0 98.5 -14t24.5 -65q0 -66 -29 -89t-105 -23h-157q85 -104 342 -168q79 -22 107.5 -59.5t28.5 -97.5q0 -50 -11.5 -83.5t-42.5 -61t-89 -40.5t-147 -13q-67 0 -143 20t-157 64.5t-149 107.5t-119.5 158t-69.5 207q-65 12 -82 24q-121 71 75 102q0 31 7 120 q-157 29 -157 92z" />
<glyph unicode="&#x2122;" horiz-adv-x="1082" d="M34 1352q0 51 116 51h239q12 0 19 -0.5t17 -3t14.5 -9.5t4.5 -18q0 -16 -2 -26t-10 -22t-26.5 -18t-47.5 -6h-34q-20 0 -24 -43t-3 -187v-107q0 -32 -33 -38.5t-66.5 10t-33.5 41.5q0 283 13 318q-143 0 -143 58zM423 1004v102q0 139 57 223t131 84q41 0 72 -17t65 -51 q69 69 153 48q-1 0 -11.5 1t-18.5 0t-14 -5q46 2 90 -21.5t57 -56.5q-7 34 -45 61q68 -33 68 -181q0 -1 0.5 -15t0.5 -31v-40.5t-1 -47t-3 -46.5t-5.5 -44t-8.5 -35q-12 -28 -27 -36.5t-41 -8.5q-30 0 -42.5 16t-12.5 63v22.5v29.5t-0.5 31t-1.5 34.5t-2.5 32t-4 31.5t-6 24 t-8.5 18.5t-11 8.5l-30 -75q-15 -36 -32 -58t-34.5 -30t-26 -9.5t-23.5 -1.5q-28 0 -48 33.5t-28 74t-15 74t-12 33.5q-31 0 -31 -239q0 -23 -16 -45.5t-48 -22.5q-86 0 -86 72z" />
<glyph unicode="&#xe000;" horiz-adv-x="1450" d="M0 0v1451h1451v-1451h-1451z" />
<glyph unicode="&#xfb01;" horiz-adv-x="1423" d="M68 276v1045q0 37 24.5 65t73 45t99.5 27.5t127 15t130 6t133 1.5q40 0 75 -8t68 -27t52.5 -56.5t19.5 -89.5q0 -82 -48 -136.5t-146 -54.5q-2 0 -18 0.5t-30.5 0.5t-37 -0.5t-42.5 -2t-42.5 -4t-39.5 -7.5t-32 -11.5t-23 -15.5t-8 -21v-198q7 0 54.5 5.5t92 8t94.5 3 t82 -9t35 -28.5q0 -23 2 -69.5t-6.5 -98t-26.5 -60.5q-23 -11 -80 -25t-143 -32t-114 -25v-331q0 -49 -14.5 -82.5t-39 -49.5t-48.5 -22.5t-52 -6.5q-36 0 -63.5 8.5t-45.5 20.5t-30 34.5t-18.5 39.5t-9.5 48t-3.5 48t-0.5 50zM942 109q11 175 11 364.5t-5.5 418.5t-5.5 357 q0 46 12.5 82.5t30.5 59.5t47.5 40t54.5 25t60.5 12.5t56 5.5t49.5 1q31 0 52.5 -19t32.5 -58.5t16.5 -84t5.5 -110.5t-1.5 -122.5t-4 -136t-2.5 -135.5q0 -139 6.5 -283t12.5 -221t4 -138t-16 -85q-22 -36 -88.5 -48.5t-136 -12.5t-83.5 -7q1 5 -5 8.5t-15.5 3t-16.5 -5.5 q2 10 -13 17t-28 7q0 6 -15.5 29t-15.5 36z" />
<glyph unicode="&#xfb02;" horiz-adv-x="1382" d="M68 236v1044q0 37 24.5 65t73 45t99.5 27.5t127 15t130 6t133 1.5q40 0 75 -8t68 -26.5t52.5 -56t19.5 -89.5q0 -82 -48 -137t-146 -55q-2 0 -17.5 0.5t-23.5 0t-24 -2t-25 -5.5t-19.5 -10.5t-15.5 -17.5t-5 -26v-198q11 1 40.5 5.5t55 7.5t53.5 3.5t45.5 -9t20.5 -28.5 q4 -41 -3.5 -124.5t-27.5 -103.5q-28 -28 -71 -45.5t-123 -36.5v-331q0 -48 -36 -82.5t-89.5 -50t-96.5 -22t-75 -6.5q-31 0 -56.5 5.5t-42.5 18t-30 25t-20.5 34.5t-12.5 37.5t-6.5 43t-2 42.5t-0.5 44zM922 27v1205q0 110 80 154t199 10q44 -12 76 -161t44.5 -353.5 t15 -406.5t-9 -340.5t-30.5 -134.5q-3 -8 -27 -21.5t-24 -22.5q-11 26 -34 -7q2 12 -22 3q-30 -11 -36 -27q-5 7 -23 3t-18 -10q-7 15 -42 20t-50 -6q1 5 -4.5 8.5t-14.5 3.5t-16 -5q2 10 -11 16.5t-26 6.5q0 6 -13.5 29t-13.5 36z" />
</font>
</defs>
</svg>
